%FSLAX23Y23*%
%MOIN*%
G70*
G01*
G75*
G04 Layer_Physical_Order=2*
G04 Layer_Color=16711680*
%ADD10O,0.063X0.012*%
%ADD11O,0.012X0.063*%
%ADD12R,0.035X0.031*%
%ADD13R,0.075X0.043*%
%ADD14R,0.110X0.030*%
%ADD15R,0.039X0.059*%
%ADD16R,0.035X0.028*%
%ADD17R,0.028X0.035*%
%ADD18R,0.100X0.100*%
%ADD19O,0.010X0.030*%
%ADD20O,0.030X0.010*%
%ADD21R,0.031X0.035*%
%ADD22R,0.132X0.085*%
%ADD23C,0.010*%
%ADD24C,0.015*%
%ADD25C,0.008*%
%ADD26C,0.025*%
G04:AMPARAMS|DCode=27|XSize=70mil|YSize=70mil|CornerRadius=0mil|HoleSize=0mil|Usage=FLASHONLY|Rotation=90.000|XOffset=0mil|YOffset=0mil|HoleType=Round|Shape=Octagon|*
%AMOCTAGOND27*
4,1,8,0.018,0.035,-0.018,0.035,-0.035,0.018,-0.035,-0.018,-0.018,-0.035,0.018,-0.035,0.035,-0.018,0.035,0.018,0.018,0.035,0.0*
%
%ADD27OCTAGOND27*%

%ADD28C,0.100*%
%ADD29C,0.059*%
%ADD30R,0.059X0.059*%
%ADD31R,0.059X0.059*%
%ADD32C,0.030*%
%ADD33C,0.025*%
%ADD34C,0.020*%
G36*
X7038Y2357D02*
X6130D01*
X6125Y2356D01*
X6121Y2354D01*
X6119Y2350D01*
X6118Y2345D01*
Y2102D01*
X5397D01*
Y4663D01*
X7038D01*
Y2357D01*
D02*
G37*
%LPC*%
G36*
X5475Y3232D02*
X5465Y3231D01*
X5457Y3227D01*
X5449Y3221D01*
X5443Y3213D01*
X5439Y3205D01*
X5438Y3195D01*
X5439Y3185D01*
X5443Y3177D01*
X5449Y3169D01*
X5457Y3163D01*
X5465Y3159D01*
X5475Y3158D01*
X5485Y3159D01*
X5493Y3163D01*
X5501Y3169D01*
X5507Y3177D01*
X5511Y3185D01*
X5512Y3195D01*
X5511Y3205D01*
X5507Y3213D01*
X5501Y3221D01*
X5493Y3227D01*
X5485Y3231D01*
X5475Y3232D01*
D02*
G37*
G36*
X6355Y3282D02*
X6345Y3281D01*
X6337Y3277D01*
X6329Y3271D01*
X6323Y3263D01*
X6319Y3255D01*
X6318Y3245D01*
X6319Y3235D01*
X6323Y3227D01*
X6329Y3219D01*
X6337Y3213D01*
X6345Y3209D01*
X6355Y3208D01*
X6365Y3209D01*
X6373Y3213D01*
X6381Y3219D01*
X6387Y3227D01*
X6391Y3235D01*
X6392Y3245D01*
X6391Y3255D01*
X6387Y3263D01*
X6381Y3271D01*
X6373Y3277D01*
X6365Y3281D01*
X6355Y3282D01*
D02*
G37*
G36*
X6455D02*
X6445Y3281D01*
X6437Y3277D01*
X6429Y3271D01*
X6423Y3263D01*
X6419Y3255D01*
X6418Y3245D01*
X6419Y3235D01*
X6423Y3227D01*
X6429Y3219D01*
X6437Y3213D01*
X6445Y3209D01*
X6455Y3208D01*
X6465Y3209D01*
X6473Y3213D01*
X6481Y3219D01*
X6487Y3227D01*
X6491Y3235D01*
X6492Y3245D01*
X6491Y3255D01*
X6487Y3263D01*
X6481Y3271D01*
X6473Y3277D01*
X6465Y3281D01*
X6455Y3282D01*
D02*
G37*
G36*
X6851Y3020D02*
X6836Y3019D01*
X6822Y3013D01*
X6810Y3004D01*
X6801Y2992D01*
X6795Y2978D01*
X6794Y2963D01*
X6795Y2948D01*
X6801Y2934D01*
X6810Y2922D01*
X6822Y2913D01*
X6836Y2907D01*
X6851Y2906D01*
X6866Y2907D01*
X6880Y2913D01*
X6892Y2922D01*
X6901Y2934D01*
X6907Y2948D01*
X6908Y2963D01*
X6907Y2978D01*
X6901Y2992D01*
X6892Y3004D01*
X6880Y3013D01*
X6866Y3019D01*
X6851Y3020D01*
D02*
G37*
G36*
X6355Y3182D02*
X6345Y3181D01*
X6337Y3177D01*
X6329Y3171D01*
X6323Y3163D01*
X6319Y3155D01*
X6318Y3145D01*
X6319Y3135D01*
X6323Y3127D01*
X6329Y3119D01*
X6337Y3113D01*
X6345Y3109D01*
X6355Y3108D01*
X6365Y3109D01*
X6373Y3113D01*
X6381Y3119D01*
X6387Y3127D01*
X6391Y3135D01*
X6392Y3145D01*
X6391Y3155D01*
X6387Y3163D01*
X6381Y3171D01*
X6373Y3177D01*
X6365Y3181D01*
X6355Y3182D01*
D02*
G37*
G36*
X6780D02*
X6770Y3181D01*
X6762Y3177D01*
X6754Y3171D01*
X6748Y3163D01*
X6744Y3155D01*
X6743Y3145D01*
X6744Y3135D01*
X6748Y3127D01*
X6754Y3119D01*
X6762Y3113D01*
X6770Y3109D01*
X6780Y3108D01*
X6790Y3109D01*
X6798Y3113D01*
X6806Y3119D01*
X6812Y3127D01*
X6816Y3135D01*
X6817Y3145D01*
X6816Y3155D01*
X6812Y3163D01*
X6806Y3171D01*
X6798Y3177D01*
X6790Y3181D01*
X6780Y3182D01*
D02*
G37*
G36*
Y3282D02*
X6770Y3281D01*
X6762Y3277D01*
X6754Y3271D01*
X6748Y3263D01*
X6744Y3255D01*
X6743Y3245D01*
X6744Y3235D01*
X6748Y3227D01*
X6754Y3219D01*
X6762Y3213D01*
X6770Y3209D01*
X6780Y3208D01*
X6790Y3209D01*
X6798Y3213D01*
X6806Y3219D01*
X6812Y3227D01*
X6816Y3235D01*
X6817Y3245D01*
X6816Y3255D01*
X6812Y3263D01*
X6806Y3271D01*
X6798Y3277D01*
X6790Y3281D01*
X6780Y3282D01*
D02*
G37*
G36*
X6817Y3382D02*
X6743D01*
Y3308D01*
X6817D01*
Y3382D01*
D02*
G37*
G36*
X5475Y3432D02*
X5465Y3431D01*
X5457Y3427D01*
X5449Y3421D01*
X5443Y3413D01*
X5439Y3405D01*
X5438Y3395D01*
X5439Y3385D01*
X5443Y3377D01*
X5449Y3369D01*
X5457Y3363D01*
X5465Y3359D01*
X5475Y3358D01*
X5485Y3359D01*
X5493Y3363D01*
X5501Y3369D01*
X5507Y3377D01*
X5511Y3385D01*
X5512Y3395D01*
X5511Y3405D01*
X5507Y3413D01*
X5501Y3421D01*
X5493Y3427D01*
X5485Y3431D01*
X5475Y3432D01*
D02*
G37*
G36*
X5512Y3532D02*
X5438D01*
Y3458D01*
X5512D01*
Y3532D01*
D02*
G37*
G36*
X6880Y3282D02*
X6870Y3281D01*
X6862Y3277D01*
X6854Y3271D01*
X6848Y3263D01*
X6844Y3255D01*
X6843Y3245D01*
X6844Y3235D01*
X6848Y3227D01*
X6854Y3219D01*
X6862Y3213D01*
X6870Y3209D01*
X6880Y3208D01*
X6890Y3209D01*
X6898Y3213D01*
X6906Y3219D01*
X6912Y3227D01*
X6916Y3235D01*
X6917Y3245D01*
X6916Y3255D01*
X6912Y3263D01*
X6906Y3271D01*
X6898Y3277D01*
X6890Y3281D01*
X6880Y3282D01*
D02*
G37*
G36*
X5475Y3332D02*
X5465Y3331D01*
X5457Y3327D01*
X5449Y3321D01*
X5443Y3313D01*
X5439Y3305D01*
X5438Y3295D01*
X5439Y3285D01*
X5443Y3277D01*
X5449Y3269D01*
X5457Y3263D01*
X5465Y3259D01*
X5475Y3258D01*
X5485Y3259D01*
X5493Y3263D01*
X5501Y3269D01*
X5507Y3277D01*
X5511Y3285D01*
X5512Y3295D01*
X5511Y3305D01*
X5507Y3313D01*
X5501Y3321D01*
X5493Y3327D01*
X5485Y3331D01*
X5475Y3332D01*
D02*
G37*
G36*
X6392Y3382D02*
X6318D01*
Y3308D01*
X6392D01*
Y3382D01*
D02*
G37*
G36*
X6060Y2197D02*
X6050Y2196D01*
X6042Y2192D01*
X6034Y2186D01*
X6028Y2178D01*
X6024Y2170D01*
X6023Y2160D01*
X6024Y2150D01*
X6028Y2142D01*
X6034Y2134D01*
X6042Y2128D01*
X6050Y2124D01*
X6060Y2123D01*
X6070Y2124D01*
X6078Y2128D01*
X6086Y2134D01*
X6092Y2142D01*
X6096Y2150D01*
X6097Y2160D01*
X6096Y2170D01*
X6092Y2178D01*
X6086Y2186D01*
X6078Y2192D01*
X6070Y2196D01*
X6060Y2197D01*
D02*
G37*
G36*
X5560Y2297D02*
X5550Y2296D01*
X5542Y2292D01*
X5534Y2286D01*
X5528Y2278D01*
X5524Y2270D01*
X5523Y2260D01*
X5524Y2250D01*
X5528Y2242D01*
X5534Y2234D01*
X5542Y2228D01*
X5544Y2227D01*
X5543Y2222D01*
X5515D01*
X5497Y2241D01*
Y2297D01*
X5423D01*
Y2223D01*
X5479D01*
X5501Y2201D01*
X5505Y2199D01*
X5510Y2198D01*
X5543D01*
X5544Y2193D01*
X5542Y2192D01*
X5534Y2186D01*
X5528Y2178D01*
X5524Y2170D01*
X5523Y2160D01*
X5524Y2150D01*
X5528Y2142D01*
X5534Y2134D01*
X5542Y2128D01*
X5550Y2124D01*
X5560Y2123D01*
X5570Y2124D01*
X5578Y2128D01*
X5586Y2134D01*
X5592Y2142D01*
X5596Y2150D01*
X5597Y2160D01*
X5596Y2170D01*
X5592Y2178D01*
X5586Y2186D01*
X5578Y2192D01*
X5576Y2193D01*
X5577Y2198D01*
X5590D01*
X5591Y2196D01*
X5597Y2192D01*
X5605Y2190D01*
X5613Y2192D01*
X5619Y2196D01*
X5623Y2202D01*
X5625Y2210D01*
X5623Y2218D01*
X5619Y2224D01*
X5613Y2228D01*
X5605Y2230D01*
X5597Y2228D01*
X5591Y2224D01*
X5590Y2222D01*
X5577D01*
X5576Y2227D01*
X5578Y2228D01*
X5586Y2234D01*
X5592Y2242D01*
X5596Y2250D01*
X5597Y2260D01*
X5596Y2270D01*
X5592Y2278D01*
X5586Y2286D01*
X5578Y2292D01*
X5570Y2296D01*
X5560Y2297D01*
D02*
G37*
G36*
X5860D02*
X5850Y2296D01*
X5842Y2292D01*
X5834Y2286D01*
X5828Y2278D01*
X5824Y2270D01*
X5823Y2260D01*
X5824Y2250D01*
X5828Y2242D01*
X5834Y2234D01*
X5842Y2228D01*
X5850Y2224D01*
X5860Y2223D01*
X5870Y2224D01*
X5878Y2228D01*
X5886Y2234D01*
X5892Y2242D01*
X5896Y2250D01*
X5897Y2260D01*
X5896Y2270D01*
X5892Y2278D01*
X5886Y2286D01*
X5878Y2292D01*
X5870Y2296D01*
X5860Y2297D01*
D02*
G37*
G36*
X5460Y2197D02*
X5450Y2196D01*
X5442Y2192D01*
X5434Y2186D01*
X5428Y2178D01*
X5424Y2170D01*
X5423Y2160D01*
X5424Y2150D01*
X5428Y2142D01*
X5434Y2134D01*
X5442Y2128D01*
X5450Y2124D01*
X5460Y2123D01*
X5470Y2124D01*
X5478Y2128D01*
X5486Y2134D01*
X5492Y2142D01*
X5496Y2150D01*
X5497Y2160D01*
X5496Y2170D01*
X5492Y2178D01*
X5486Y2186D01*
X5478Y2192D01*
X5470Y2196D01*
X5460Y2197D01*
D02*
G37*
G36*
X5660D02*
X5650Y2196D01*
X5642Y2192D01*
X5634Y2186D01*
X5628Y2178D01*
X5624Y2170D01*
X5623Y2160D01*
X5624Y2150D01*
X5628Y2142D01*
X5634Y2134D01*
X5642Y2128D01*
X5650Y2124D01*
X5660Y2123D01*
X5670Y2124D01*
X5678Y2128D01*
X5686Y2134D01*
X5692Y2142D01*
X5696Y2150D01*
X5697Y2160D01*
X5696Y2170D01*
X5692Y2178D01*
X5686Y2186D01*
X5678Y2192D01*
X5670Y2196D01*
X5660Y2197D01*
D02*
G37*
G36*
X5960D02*
X5950Y2196D01*
X5942Y2192D01*
X5934Y2186D01*
X5928Y2178D01*
X5924Y2170D01*
X5923Y2160D01*
X5924Y2150D01*
X5928Y2142D01*
X5934Y2134D01*
X5942Y2128D01*
X5950Y2124D01*
X5960Y2123D01*
X5970Y2124D01*
X5978Y2128D01*
X5986Y2134D01*
X5992Y2142D01*
X5996Y2150D01*
X5997Y2160D01*
X5996Y2170D01*
X5992Y2178D01*
X5986Y2186D01*
X5978Y2192D01*
X5970Y2196D01*
X5960Y2197D01*
D02*
G37*
G36*
X6060Y2297D02*
X6050Y2296D01*
X6042Y2292D01*
X6034Y2286D01*
X6028Y2278D01*
X6024Y2270D01*
X6023Y2260D01*
X6024Y2250D01*
X6028Y2242D01*
X6034Y2234D01*
X6042Y2228D01*
X6050Y2224D01*
X6060Y2223D01*
X6070Y2224D01*
X6078Y2228D01*
X6086Y2234D01*
X6092Y2242D01*
X6096Y2250D01*
X6097Y2260D01*
X6096Y2270D01*
X6092Y2278D01*
X6086Y2286D01*
X6078Y2292D01*
X6070Y2296D01*
X6060Y2297D01*
D02*
G37*
G36*
X6851Y2744D02*
X6836Y2743D01*
X6822Y2737D01*
X6810Y2728D01*
X6801Y2716D01*
X6795Y2702D01*
X6794Y2687D01*
X6795Y2672D01*
X6801Y2658D01*
X6810Y2646D01*
X6822Y2637D01*
X6836Y2631D01*
X6851Y2630D01*
X6866Y2631D01*
X6880Y2637D01*
X6892Y2646D01*
X6901Y2658D01*
X6907Y2672D01*
X6908Y2687D01*
X6907Y2702D01*
X6901Y2716D01*
X6892Y2728D01*
X6880Y2737D01*
X6866Y2743D01*
X6851Y2744D01*
D02*
G37*
G36*
X6970Y2778D02*
X6928D01*
X6907Y2757D01*
Y2715D01*
X6928Y2694D01*
X6970D01*
X6991Y2715D01*
Y2757D01*
X6970Y2778D01*
D02*
G37*
G36*
X5730Y2925D02*
X5722Y2923D01*
X5716Y2919D01*
X5712Y2913D01*
X5710Y2905D01*
X5712Y2897D01*
X5716Y2891D01*
X5718Y2890D01*
Y2856D01*
X5719Y2852D01*
X5721Y2848D01*
X5762Y2807D01*
X5762Y2805D01*
X5763Y2797D01*
X5767Y2791D01*
X5774Y2787D01*
X5781Y2785D01*
X5789Y2787D01*
X5795Y2791D01*
X5800Y2797D01*
X5801Y2805D01*
X5800Y2813D01*
X5795Y2819D01*
X5789Y2823D01*
X5781Y2825D01*
X5779Y2824D01*
X5742Y2861D01*
Y2890D01*
X5744Y2891D01*
X5748Y2897D01*
X5750Y2905D01*
X5748Y2913D01*
X5744Y2919D01*
X5738Y2923D01*
X5730Y2925D01*
D02*
G37*
G36*
X5660Y2415D02*
X5652Y2413D01*
X5646Y2409D01*
X5642Y2403D01*
X5640Y2395D01*
X5642Y2387D01*
X5646Y2381D01*
X5652Y2377D01*
X5659Y2375D01*
X5695Y2339D01*
Y2282D01*
X5690Y2281D01*
X5686Y2286D01*
X5678Y2292D01*
X5670Y2296D01*
X5660Y2297D01*
X5650Y2296D01*
X5642Y2292D01*
X5634Y2286D01*
X5628Y2278D01*
X5624Y2270D01*
X5623Y2260D01*
X5624Y2250D01*
X5628Y2242D01*
X5634Y2234D01*
X5642Y2228D01*
X5650Y2224D01*
X5660Y2223D01*
X5670Y2224D01*
X5678Y2228D01*
X5686Y2234D01*
X5690Y2239D01*
X5695Y2238D01*
Y2210D01*
X5696Y2204D01*
X5700Y2200D01*
X5726Y2173D01*
X5724Y2170D01*
X5723Y2160D01*
X5724Y2150D01*
X5728Y2142D01*
X5734Y2134D01*
X5742Y2128D01*
X5750Y2124D01*
X5760Y2123D01*
X5770Y2124D01*
X5778Y2128D01*
X5786Y2134D01*
X5792Y2142D01*
X5796Y2150D01*
X5797Y2160D01*
X5796Y2170D01*
X5792Y2178D01*
X5786Y2186D01*
X5778Y2192D01*
X5770Y2196D01*
X5760Y2197D01*
X5750Y2196D01*
X5747Y2194D01*
X5725Y2216D01*
Y2238D01*
X5730Y2239D01*
X5734Y2234D01*
X5742Y2228D01*
X5750Y2224D01*
X5760Y2223D01*
X5770Y2224D01*
X5778Y2228D01*
X5786Y2234D01*
X5792Y2242D01*
X5796Y2250D01*
X5797Y2260D01*
X5796Y2270D01*
X5792Y2278D01*
X5786Y2286D01*
X5778Y2292D01*
X5770Y2296D01*
X5760Y2297D01*
X5750Y2296D01*
X5742Y2292D01*
X5734Y2286D01*
X5730Y2281D01*
X5725Y2282D01*
Y2345D01*
X5724Y2351D01*
X5720Y2355D01*
X5680Y2396D01*
X5678Y2403D01*
X5674Y2409D01*
X5668Y2413D01*
X5660Y2415D01*
D02*
G37*
G36*
X6480Y2542D02*
X6470Y2541D01*
X6462Y2537D01*
X6454Y2531D01*
X6448Y2523D01*
X6444Y2515D01*
X6443Y2505D01*
X6444Y2495D01*
X6448Y2487D01*
X6454Y2479D01*
X6462Y2473D01*
X6470Y2469D01*
X6480Y2468D01*
X6490Y2469D01*
X6498Y2473D01*
X6506Y2479D01*
X6512Y2487D01*
X6516Y2495D01*
X6517Y2505D01*
X6516Y2515D01*
X6512Y2523D01*
X6506Y2531D01*
X6498Y2537D01*
X6490Y2541D01*
X6480Y2542D01*
D02*
G37*
G36*
X6417Y2542D02*
X6343D01*
Y2517D01*
X6340D01*
X6335Y2516D01*
X6331Y2514D01*
X6310Y2492D01*
X6180D01*
X6175Y2491D01*
X6171Y2489D01*
X5976Y2293D01*
X5970Y2296D01*
X5960Y2297D01*
X5950Y2296D01*
X5942Y2292D01*
X5934Y2286D01*
X5928Y2278D01*
X5924Y2270D01*
X5923Y2260D01*
X5924Y2250D01*
X5928Y2242D01*
X5934Y2234D01*
X5942Y2228D01*
X5950Y2224D01*
X5960Y2223D01*
X5970Y2224D01*
X5978Y2228D01*
X5986Y2234D01*
X5992Y2242D01*
X5996Y2250D01*
X5997Y2260D01*
X5996Y2270D01*
X5993Y2276D01*
X6185Y2468D01*
X6315D01*
X6320Y2469D01*
X6324Y2471D01*
X6339Y2487D01*
X6343Y2485D01*
Y2468D01*
X6417D01*
Y2542D01*
D02*
G37*
G36*
X6355Y4382D02*
X6345Y4381D01*
X6337Y4377D01*
X6329Y4371D01*
X6323Y4363D01*
X6319Y4355D01*
X6318Y4345D01*
X6319Y4335D01*
X6323Y4327D01*
X6329Y4319D01*
X6337Y4313D01*
X6345Y4309D01*
X6355Y4308D01*
X6365Y4309D01*
X6373Y4313D01*
X6381Y4319D01*
X6387Y4327D01*
X6391Y4335D01*
X6392Y4345D01*
X6391Y4355D01*
X6387Y4363D01*
X6381Y4371D01*
X6373Y4377D01*
X6365Y4381D01*
X6355Y4382D01*
D02*
G37*
G36*
X6455D02*
X6445Y4381D01*
X6437Y4377D01*
X6429Y4371D01*
X6423Y4363D01*
X6419Y4355D01*
X6418Y4345D01*
X6419Y4335D01*
X6423Y4327D01*
X6429Y4319D01*
X6437Y4313D01*
X6445Y4309D01*
X6455Y4308D01*
X6465Y4309D01*
X6473Y4313D01*
X6481Y4319D01*
X6487Y4327D01*
X6491Y4335D01*
X6492Y4345D01*
X6491Y4355D01*
X6487Y4363D01*
X6481Y4371D01*
X6473Y4377D01*
X6465Y4381D01*
X6455Y4382D01*
D02*
G37*
G36*
X6780D02*
X6770Y4381D01*
X6762Y4377D01*
X6754Y4371D01*
X6748Y4363D01*
X6744Y4355D01*
X6743Y4345D01*
X6744Y4335D01*
X6748Y4327D01*
X6754Y4319D01*
X6762Y4313D01*
X6770Y4309D01*
X6780Y4308D01*
X6790Y4309D01*
X6798Y4313D01*
X6806Y4319D01*
X6812Y4327D01*
X6816Y4335D01*
X6817Y4345D01*
X6816Y4355D01*
X6812Y4363D01*
X6806Y4371D01*
X6798Y4377D01*
X6790Y4381D01*
X6780Y4382D01*
D02*
G37*
G36*
X5475Y4332D02*
X5465Y4331D01*
X5457Y4327D01*
X5449Y4321D01*
X5443Y4313D01*
X5439Y4305D01*
X5438Y4295D01*
X5439Y4285D01*
X5443Y4277D01*
X5449Y4269D01*
X5457Y4263D01*
X5465Y4259D01*
X5475Y4258D01*
X5485Y4259D01*
X5493Y4263D01*
X5501Y4269D01*
X5507Y4277D01*
X5511Y4285D01*
X5512Y4295D01*
X5511Y4305D01*
X5507Y4313D01*
X5501Y4321D01*
X5493Y4327D01*
X5485Y4331D01*
X5475Y4332D01*
D02*
G37*
G36*
X5915Y4192D02*
X5907Y4190D01*
X5901Y4186D01*
X5897Y4180D01*
X5895Y4172D01*
X5896Y4170D01*
X5892Y4166D01*
X5890Y4167D01*
X5882Y4165D01*
X5876Y4161D01*
X5872Y4155D01*
X5871Y4149D01*
X5869Y4147D01*
X5865Y4146D01*
X5860Y4147D01*
X5852Y4145D01*
X5846Y4141D01*
X5842Y4135D01*
X5840Y4127D01*
X5842Y4119D01*
X5846Y4113D01*
X5849Y4111D01*
Y3591D01*
X5846Y3589D01*
X5842Y3583D01*
X5840Y3575D01*
X5842Y3567D01*
X5846Y3561D01*
X5849Y3559D01*
Y2991D01*
X5846Y2989D01*
X5842Y2983D01*
X5840Y2975D01*
X5841Y2972D01*
X5832Y2963D01*
X5830Y2959D01*
X5829Y2955D01*
X5829Y2955D01*
Y2825D01*
X5826Y2824D01*
X5822Y2817D01*
X5821Y2810D01*
X5822Y2802D01*
X5826Y2795D01*
X5833Y2791D01*
X5840Y2790D01*
X5848Y2791D01*
X5855Y2795D01*
X5859Y2802D01*
X5860Y2810D01*
X5859Y2817D01*
X5855Y2822D01*
X5856Y2823D01*
X5859Y2826D01*
X5865Y2825D01*
X5871Y2826D01*
X5874Y2824D01*
X5875Y2822D01*
X5872Y2818D01*
X5870Y2810D01*
X5872Y2802D01*
X5876Y2796D01*
X5882Y2792D01*
X5890Y2790D01*
X5898Y2792D01*
X5904Y2796D01*
X5908Y2802D01*
X5910Y2810D01*
X5908Y2818D01*
X5904Y2824D01*
X5901Y2826D01*
Y2853D01*
X5901Y2853D01*
X5900Y2858D01*
X5898Y2861D01*
X5898Y2861D01*
X5881Y2878D01*
Y2919D01*
X5908Y2946D01*
X5910Y2949D01*
X5911Y2954D01*
X5911Y2954D01*
Y2980D01*
X5919Y2988D01*
X5922Y2987D01*
X5924Y2986D01*
Y2846D01*
X5921Y2844D01*
X5917Y2838D01*
X5915Y2830D01*
X5917Y2822D01*
X5921Y2816D01*
X5927Y2812D01*
X5935Y2810D01*
X5943Y2812D01*
X5949Y2816D01*
X5953Y2822D01*
X5955Y2830D01*
X5953Y2838D01*
X5949Y2844D01*
X5946Y2846D01*
Y2854D01*
X5951Y2854D01*
X5952Y2852D01*
X5956Y2846D01*
X5962Y2842D01*
X5970Y2840D01*
X5977Y2842D01*
X5978Y2842D01*
X5983Y2839D01*
X5983Y2837D01*
X5986Y2834D01*
X5986Y2833D01*
X5985Y2830D01*
X5987Y2822D01*
X5991Y2816D01*
X5997Y2812D01*
X6005Y2810D01*
X6013Y2812D01*
X6019Y2816D01*
X6023Y2822D01*
X6025Y2830D01*
X6023Y2838D01*
X6019Y2844D01*
X6013Y2848D01*
X6005Y2850D01*
X6005Y2850D01*
Y2870D01*
X6004Y2874D01*
X6001Y2878D01*
X6001Y2878D01*
X5981Y2898D01*
Y2975D01*
X6003Y2996D01*
X6003Y2996D01*
X6005Y3000D01*
X6006Y3004D01*
Y3019D01*
X6009Y3021D01*
X6013Y3027D01*
X6015Y3035D01*
X6013Y3043D01*
X6009Y3049D01*
X6003Y3053D01*
X5995Y3055D01*
X5987Y3053D01*
X5981Y3049D01*
X5980Y3050D01*
X5976Y3051D01*
Y3296D01*
X5981Y3297D01*
X5983Y3295D01*
X5989Y3291D01*
X5997Y3289D01*
X6004Y3291D01*
X6011Y3295D01*
X6015Y3302D01*
X6017Y3309D01*
X6021Y3314D01*
X6034D01*
X6036Y3311D01*
X6042Y3307D01*
X6050Y3305D01*
X6058Y3307D01*
X6064Y3311D01*
X6068Y3317D01*
X6070Y3325D01*
X6068Y3333D01*
X6064Y3339D01*
X6058Y3343D01*
X6050Y3345D01*
X6042Y3343D01*
X6036Y3339D01*
X6034Y3336D01*
X6013D01*
X6013Y3336D01*
X6008Y3335D01*
X6005Y3333D01*
X6005Y3333D01*
X6000Y3328D01*
X5997Y3329D01*
X5989Y3328D01*
X5983Y3323D01*
X5981Y3321D01*
X5976Y3323D01*
Y3580D01*
X5983Y3587D01*
X5983Y3587D01*
X5985Y3591D01*
X5986Y3595D01*
Y3599D01*
X5989Y3601D01*
X5993Y3607D01*
X5995Y3615D01*
X5993Y3623D01*
X5989Y3629D01*
X5983Y3633D01*
X5975Y3635D01*
X5967Y3633D01*
X5966Y3632D01*
X5961Y3635D01*
Y4146D01*
X5965Y4150D01*
X5973Y4152D01*
X5979Y4156D01*
X5983Y4162D01*
X5985Y4170D01*
X5983Y4178D01*
X5979Y4184D01*
X5973Y4188D01*
X5965Y4190D01*
X5957Y4188D01*
X5951Y4184D01*
X5947Y4178D01*
X5945Y4170D01*
X5946Y4167D01*
X5942Y4163D01*
X5940Y4159D01*
X5939Y4155D01*
X5939Y4155D01*
Y3626D01*
X5934Y3626D01*
X5933Y3628D01*
X5929Y3634D01*
X5923Y3638D01*
X5915Y3640D01*
X5912Y3639D01*
X5901Y3650D01*
Y4095D01*
X5923Y4117D01*
X5923Y4117D01*
X5925Y4121D01*
X5926Y4125D01*
Y4156D01*
X5929Y4158D01*
X5933Y4164D01*
X5935Y4172D01*
X5933Y4180D01*
X5929Y4186D01*
X5923Y4190D01*
X5915Y4192D01*
D02*
G37*
G36*
X6355Y4282D02*
X6345Y4281D01*
X6337Y4277D01*
X6329Y4271D01*
X6323Y4263D01*
X6319Y4255D01*
X6318Y4245D01*
X6319Y4235D01*
X6323Y4227D01*
X6329Y4219D01*
X6337Y4213D01*
X6345Y4209D01*
X6355Y4208D01*
X6365Y4209D01*
X6373Y4213D01*
X6381Y4219D01*
X6387Y4227D01*
X6391Y4235D01*
X6392Y4245D01*
X6391Y4255D01*
X6387Y4263D01*
X6381Y4271D01*
X6373Y4277D01*
X6365Y4281D01*
X6355Y4282D01*
D02*
G37*
G36*
X6780D02*
X6770Y4281D01*
X6762Y4277D01*
X6754Y4271D01*
X6748Y4263D01*
X6744Y4255D01*
X6743Y4245D01*
X6744Y4235D01*
X6748Y4227D01*
X6754Y4219D01*
X6762Y4213D01*
X6770Y4209D01*
X6780Y4208D01*
X6790Y4209D01*
X6798Y4213D01*
X6806Y4219D01*
X6812Y4227D01*
X6816Y4235D01*
X6817Y4245D01*
X6816Y4255D01*
X6812Y4263D01*
X6806Y4271D01*
X6798Y4277D01*
X6790Y4281D01*
X6780Y4282D01*
D02*
G37*
G36*
X6050Y4445D02*
X6042Y4443D01*
X6036Y4439D01*
X6034Y4436D01*
X6013D01*
X6013Y4436D01*
X6008Y4435D01*
X6005Y4433D01*
X6005Y4433D01*
X6000Y4428D01*
X5997Y4429D01*
X5989Y4428D01*
X5983Y4423D01*
X5978Y4417D01*
X5977Y4409D01*
X5978Y4402D01*
X5983Y4395D01*
X5989Y4391D01*
X5997Y4389D01*
X6004Y4391D01*
X6011Y4395D01*
X6015Y4402D01*
X6017Y4409D01*
X6021Y4414D01*
X6034D01*
X6036Y4411D01*
X6042Y4407D01*
X6050Y4405D01*
X6058Y4407D01*
X6064Y4411D01*
X6068Y4417D01*
X6070Y4425D01*
X6068Y4433D01*
X6064Y4439D01*
X6058Y4443D01*
X6050Y4445D01*
D02*
G37*
G36*
X5475Y4532D02*
X5465Y4531D01*
X5457Y4527D01*
X5449Y4521D01*
X5443Y4513D01*
X5439Y4505D01*
X5438Y4495D01*
X5439Y4485D01*
X5443Y4477D01*
X5449Y4469D01*
X5457Y4463D01*
X5465Y4459D01*
X5475Y4458D01*
X5485Y4459D01*
X5493Y4463D01*
X5501Y4469D01*
X5507Y4477D01*
X5511Y4485D01*
X5512Y4495D01*
X5511Y4505D01*
X5507Y4513D01*
X5501Y4521D01*
X5493Y4527D01*
X5485Y4531D01*
X5475Y4532D01*
D02*
G37*
G36*
X5512Y4632D02*
X5438D01*
Y4558D01*
X5512D01*
Y4632D01*
D02*
G37*
G36*
X6817Y4482D02*
X6743D01*
Y4408D01*
X6817D01*
Y4482D01*
D02*
G37*
G36*
X6880Y4382D02*
X6870Y4381D01*
X6862Y4377D01*
X6854Y4371D01*
X6848Y4363D01*
X6844Y4355D01*
X6843Y4345D01*
X6844Y4335D01*
X6848Y4327D01*
X6854Y4319D01*
X6862Y4313D01*
X6870Y4309D01*
X6880Y4308D01*
X6890Y4309D01*
X6898Y4313D01*
X6906Y4319D01*
X6912Y4327D01*
X6916Y4335D01*
X6917Y4345D01*
X6916Y4355D01*
X6912Y4363D01*
X6906Y4371D01*
X6898Y4377D01*
X6890Y4381D01*
X6880Y4382D01*
D02*
G37*
G36*
X5475Y4432D02*
X5465Y4431D01*
X5457Y4427D01*
X5449Y4421D01*
X5443Y4413D01*
X5439Y4405D01*
X5438Y4395D01*
X5439Y4385D01*
X5443Y4377D01*
X5449Y4369D01*
X5457Y4363D01*
X5465Y4359D01*
X5475Y4358D01*
X5485Y4359D01*
X5493Y4363D01*
X5501Y4369D01*
X5507Y4377D01*
X5511Y4385D01*
X5512Y4395D01*
X5511Y4405D01*
X5507Y4413D01*
X5501Y4421D01*
X5493Y4427D01*
X5485Y4431D01*
X5475Y4432D01*
D02*
G37*
G36*
X6392Y4482D02*
X6318D01*
Y4408D01*
X6392D01*
Y4482D01*
D02*
G37*
G36*
X6455Y3832D02*
X6445Y3831D01*
X6437Y3827D01*
X6429Y3821D01*
X6423Y3813D01*
X6419Y3805D01*
X6418Y3795D01*
X6419Y3785D01*
X6423Y3777D01*
X6429Y3769D01*
X6437Y3763D01*
X6445Y3759D01*
X6455Y3758D01*
X6465Y3759D01*
X6473Y3763D01*
X6481Y3769D01*
X6487Y3777D01*
X6491Y3785D01*
X6492Y3795D01*
X6491Y3805D01*
X6487Y3813D01*
X6481Y3821D01*
X6473Y3827D01*
X6465Y3831D01*
X6455Y3832D01*
D02*
G37*
G36*
X6780D02*
X6770Y3831D01*
X6762Y3827D01*
X6754Y3821D01*
X6748Y3813D01*
X6744Y3805D01*
X6743Y3795D01*
X6744Y3785D01*
X6748Y3777D01*
X6754Y3769D01*
X6762Y3763D01*
X6770Y3759D01*
X6780Y3758D01*
X6790Y3759D01*
X6798Y3763D01*
X6806Y3769D01*
X6812Y3777D01*
X6816Y3785D01*
X6817Y3795D01*
X6816Y3805D01*
X6812Y3813D01*
X6806Y3821D01*
X6798Y3827D01*
X6790Y3831D01*
X6780Y3832D01*
D02*
G37*
G36*
X6880D02*
X6870Y3831D01*
X6862Y3827D01*
X6854Y3821D01*
X6848Y3813D01*
X6844Y3805D01*
X6843Y3795D01*
X6844Y3785D01*
X6848Y3777D01*
X6854Y3769D01*
X6862Y3763D01*
X6870Y3759D01*
X6880Y3758D01*
X6890Y3759D01*
X6898Y3763D01*
X6906Y3769D01*
X6912Y3777D01*
X6916Y3785D01*
X6917Y3795D01*
X6916Y3805D01*
X6912Y3813D01*
X6906Y3821D01*
X6898Y3827D01*
X6890Y3831D01*
X6880Y3832D01*
D02*
G37*
G36*
X6355D02*
X6345Y3831D01*
X6337Y3827D01*
X6329Y3821D01*
X6323Y3813D01*
X6319Y3805D01*
X6318Y3795D01*
X6319Y3785D01*
X6323Y3777D01*
X6329Y3769D01*
X6337Y3763D01*
X6345Y3759D01*
X6355Y3758D01*
X6365Y3759D01*
X6373Y3763D01*
X6381Y3769D01*
X6387Y3777D01*
X6391Y3785D01*
X6392Y3795D01*
X6391Y3805D01*
X6387Y3813D01*
X6381Y3821D01*
X6373Y3827D01*
X6365Y3831D01*
X6355Y3832D01*
D02*
G37*
G36*
Y3732D02*
X6345Y3731D01*
X6337Y3727D01*
X6329Y3721D01*
X6323Y3713D01*
X6319Y3705D01*
X6318Y3695D01*
X6319Y3685D01*
X6323Y3677D01*
X6329Y3669D01*
X6337Y3663D01*
X6345Y3659D01*
X6355Y3658D01*
X6365Y3659D01*
X6373Y3663D01*
X6381Y3669D01*
X6387Y3677D01*
X6391Y3685D01*
X6392Y3695D01*
X6391Y3705D01*
X6387Y3713D01*
X6381Y3721D01*
X6373Y3727D01*
X6365Y3731D01*
X6355Y3732D01*
D02*
G37*
G36*
X6780D02*
X6770Y3731D01*
X6762Y3727D01*
X6754Y3721D01*
X6748Y3713D01*
X6744Y3705D01*
X6743Y3695D01*
X6744Y3685D01*
X6748Y3677D01*
X6754Y3669D01*
X6762Y3663D01*
X6770Y3659D01*
X6780Y3658D01*
X6790Y3659D01*
X6798Y3663D01*
X6806Y3669D01*
X6812Y3677D01*
X6816Y3685D01*
X6817Y3695D01*
X6816Y3705D01*
X6812Y3713D01*
X6806Y3721D01*
X6798Y3727D01*
X6790Y3731D01*
X6780Y3732D01*
D02*
G37*
G36*
X5475Y3782D02*
X5465Y3781D01*
X5457Y3777D01*
X5449Y3771D01*
X5443Y3763D01*
X5439Y3755D01*
X5438Y3745D01*
X5439Y3735D01*
X5443Y3727D01*
X5449Y3719D01*
X5457Y3713D01*
X5465Y3709D01*
X5475Y3708D01*
X5485Y3709D01*
X5493Y3713D01*
X5501Y3719D01*
X5507Y3727D01*
X5511Y3735D01*
X5512Y3745D01*
X5511Y3755D01*
X5507Y3763D01*
X5501Y3771D01*
X5493Y3777D01*
X5485Y3781D01*
X5475Y3782D01*
D02*
G37*
G36*
X6050Y3895D02*
X6042Y3893D01*
X6036Y3889D01*
X6034Y3886D01*
X6013D01*
X6013Y3886D01*
X6008Y3885D01*
X6005Y3883D01*
X6005Y3883D01*
X6000Y3878D01*
X5997Y3879D01*
X5989Y3878D01*
X5983Y3873D01*
X5978Y3867D01*
X5977Y3859D01*
X5978Y3852D01*
X5983Y3845D01*
X5989Y3841D01*
X5997Y3839D01*
X6004Y3841D01*
X6011Y3845D01*
X6015Y3852D01*
X6017Y3859D01*
X6021Y3864D01*
X6034D01*
X6036Y3861D01*
X6042Y3857D01*
X6050Y3855D01*
X6058Y3857D01*
X6064Y3861D01*
X6068Y3867D01*
X6070Y3875D01*
X6068Y3883D01*
X6064Y3889D01*
X6058Y3893D01*
X6050Y3895D01*
D02*
G37*
G36*
X5475Y3982D02*
X5465Y3981D01*
X5457Y3977D01*
X5449Y3971D01*
X5443Y3963D01*
X5439Y3955D01*
X5438Y3945D01*
X5439Y3935D01*
X5443Y3927D01*
X5449Y3919D01*
X5457Y3913D01*
X5465Y3909D01*
X5475Y3908D01*
X5485Y3909D01*
X5493Y3913D01*
X5501Y3919D01*
X5507Y3927D01*
X5511Y3935D01*
X5512Y3945D01*
X5511Y3955D01*
X5507Y3963D01*
X5501Y3971D01*
X5493Y3977D01*
X5485Y3981D01*
X5475Y3982D01*
D02*
G37*
G36*
X5512Y4082D02*
X5438D01*
Y4008D01*
X5512D01*
Y4082D01*
D02*
G37*
G36*
X5475Y3882D02*
X5465Y3881D01*
X5457Y3877D01*
X5449Y3871D01*
X5443Y3863D01*
X5439Y3855D01*
X5438Y3845D01*
X5439Y3835D01*
X5443Y3827D01*
X5449Y3819D01*
X5457Y3813D01*
X5465Y3809D01*
X5475Y3808D01*
X5485Y3809D01*
X5493Y3813D01*
X5501Y3819D01*
X5507Y3827D01*
X5511Y3835D01*
X5512Y3845D01*
X5511Y3855D01*
X5507Y3863D01*
X5501Y3871D01*
X5493Y3877D01*
X5485Y3881D01*
X5475Y3882D01*
D02*
G37*
G36*
X6392Y3932D02*
X6318D01*
Y3858D01*
X6392D01*
Y3932D01*
D02*
G37*
G36*
X6817D02*
X6743D01*
Y3858D01*
X6817D01*
Y3932D01*
D02*
G37*
%LPD*%
G36*
X5939Y3614D02*
Y3030D01*
X5934Y3027D01*
X5933Y3028D01*
X5925Y3030D01*
X5922Y3029D01*
X5901Y3050D01*
Y3545D01*
X5923Y3567D01*
X5923Y3567D01*
X5925Y3571D01*
X5926Y3575D01*
Y3604D01*
X5929Y3606D01*
X5933Y3612D01*
X5934Y3614D01*
X5939Y3614D01*
D02*
G37*
D23*
X5510Y2210D02*
X5605D01*
X5460Y2260D02*
X5510Y2210D01*
X5730Y2856D02*
Y2905D01*
Y2856D02*
X5781Y2805D01*
X6180Y2480D02*
X6315D01*
X5960Y2260D02*
X6180Y2480D01*
X6315D02*
X6340Y2505D01*
X6380D01*
D24*
X5710Y2210D02*
Y2345D01*
X5660Y2395D02*
X5710Y2345D01*
Y2210D02*
X5760Y2160D01*
D25*
X5870Y2924D02*
X5900Y2954D01*
X5870Y2873D02*
Y2924D01*
Y2873D02*
X5890Y2853D01*
X5840Y2955D02*
X5860Y2975D01*
X5840Y2810D02*
Y2955D01*
Y2810D02*
X5840Y2810D01*
X5855Y2930D02*
X5884Y2958D01*
X5855Y2855D02*
Y2930D01*
Y2855D02*
X5865Y2845D01*
X5900Y2954D02*
Y2985D01*
X5884Y2958D02*
Y3002D01*
X5885Y3003D01*
X5890Y2810D02*
Y2853D01*
X5970Y2893D02*
Y2979D01*
Y2893D02*
X5994Y2870D01*
X5970Y2979D02*
X5995Y3004D01*
X5950Y2880D02*
Y2981D01*
X5935Y2830D02*
Y2987D01*
X5950Y2880D02*
X5970Y2860D01*
X5950Y2981D02*
X5965Y2996D01*
X5935Y2987D02*
X5950Y3002D01*
Y4155D01*
X5965Y2996D02*
Y3585D01*
X5994Y2842D02*
Y2870D01*
Y2842D02*
X6005Y2830D01*
X5997Y4409D02*
X6013Y4425D01*
X6050D01*
X5997Y3859D02*
X6013Y3875D01*
X6050D01*
X5997Y3309D02*
X6013Y3325D01*
X6050D01*
X5890Y3045D02*
X5925Y3010D01*
X5875Y3039D02*
X5885Y3029D01*
Y3010D02*
Y3029D01*
X5900Y2985D02*
X5925Y3010D01*
X5995Y3004D02*
Y3035D01*
X5965Y3585D02*
X5975Y3595D01*
Y3615D01*
X5890Y3645D02*
X5915Y3620D01*
X5890Y3045D02*
Y3550D01*
X5915Y3575D02*
Y3620D01*
X5890Y3550D02*
X5915Y3575D01*
X5875Y3039D02*
Y3556D01*
X5890Y3571D01*
Y3595D01*
X5860Y2975D02*
Y3575D01*
X5890Y3595D02*
Y3624D01*
X5875Y3639D02*
X5890Y3624D01*
Y3645D02*
Y4100D01*
X5915Y4125D01*
Y4172D01*
X5890Y4121D02*
Y4147D01*
X5875Y4106D02*
X5890Y4121D01*
X5875Y3639D02*
Y4106D01*
X5860Y3575D02*
Y4127D01*
X5950Y4155D02*
X5965Y4170D01*
D27*
X6949Y2736D02*
D03*
Y2914D02*
D03*
D28*
X6851Y2687D02*
D03*
Y2963D02*
D03*
D29*
X6060Y2160D02*
D03*
Y2260D02*
D03*
X5960Y2160D02*
D03*
Y2260D02*
D03*
X5860Y2160D02*
D03*
Y2260D02*
D03*
X5760Y2160D02*
D03*
Y2260D02*
D03*
X5660Y2160D02*
D03*
Y2260D02*
D03*
X5560Y2160D02*
D03*
Y2260D02*
D03*
X5460Y2160D02*
D03*
X5475Y4495D02*
D03*
Y4395D02*
D03*
Y4295D02*
D03*
Y4195D02*
D03*
X6455Y4445D02*
D03*
X6355Y4345D02*
D03*
X6455D02*
D03*
X6355Y4245D02*
D03*
X6455D02*
D03*
X6880Y4445D02*
D03*
X6780Y4345D02*
D03*
X6880D02*
D03*
X6780Y4245D02*
D03*
X6880D02*
D03*
Y3895D02*
D03*
X6780Y3795D02*
D03*
X6880D02*
D03*
X6780Y3695D02*
D03*
X6880D02*
D03*
X5475Y3945D02*
D03*
Y3845D02*
D03*
Y3745D02*
D03*
Y3645D02*
D03*
X6455Y3895D02*
D03*
X6355Y3795D02*
D03*
X6455D02*
D03*
X6355Y3695D02*
D03*
X6455D02*
D03*
X6880Y3345D02*
D03*
X6780Y3245D02*
D03*
X6880D02*
D03*
X6780Y3145D02*
D03*
X6880D02*
D03*
X5475Y3395D02*
D03*
Y3295D02*
D03*
Y3195D02*
D03*
Y3095D02*
D03*
X6455Y3345D02*
D03*
X6355Y3245D02*
D03*
X6455D02*
D03*
X6355Y3145D02*
D03*
X6455D02*
D03*
X6480Y2505D02*
D03*
D30*
X5460Y2260D02*
D03*
X6380Y2505D02*
D03*
D31*
X5475Y4595D02*
D03*
X6355Y4445D02*
D03*
X6780D02*
D03*
Y3895D02*
D03*
X5475Y4045D02*
D03*
X6355Y3895D02*
D03*
X6780Y3345D02*
D03*
X5475Y3495D02*
D03*
X6355Y3345D02*
D03*
D32*
X6955Y2800D02*
D03*
X6850D02*
D03*
X6615Y2895D02*
D03*
X6225Y3045D02*
D03*
X6410D02*
D03*
X6835Y3040D02*
D03*
X6615Y3045D02*
D03*
X6230Y4140D02*
D03*
X6405D02*
D03*
X6830Y4145D02*
D03*
X6615D02*
D03*
X6220Y3595D02*
D03*
X6400D02*
D03*
X6840D02*
D03*
X6615D02*
D03*
X6895Y2450D02*
D03*
X6775D02*
D03*
X6275Y2375D02*
D03*
X6400D02*
D03*
X6525D02*
D03*
X6650D02*
D03*
X6775D02*
D03*
X6900D02*
D03*
X7020D02*
D03*
Y2455D02*
D03*
X6630Y2530D02*
D03*
X6565Y2450D02*
D03*
X6645Y2610D02*
D03*
X6515D02*
D03*
X6440D02*
D03*
X6295D02*
D03*
X6210D02*
D03*
X6295Y2450D02*
D03*
X6210D02*
D03*
X6295Y2530D02*
D03*
X6210D02*
D03*
X6830Y3485D02*
D03*
X6615D02*
D03*
X6305Y3490D02*
D03*
X6245Y3400D02*
D03*
X6615Y3140D02*
D03*
Y3245D02*
D03*
Y3345D02*
D03*
X6825Y4595D02*
D03*
X6615D02*
D03*
X6295D02*
D03*
X6245Y4500D02*
D03*
X6615Y4240D02*
D03*
Y4345D02*
D03*
Y4445D02*
D03*
X6825Y4040D02*
D03*
X6615D02*
D03*
X6290D02*
D03*
X6245Y3950D02*
D03*
X6615Y3690D02*
D03*
Y3795D02*
D03*
Y3895D02*
D03*
X7020Y3075D02*
D03*
Y3200D02*
D03*
Y3325D02*
D03*
Y3450D02*
D03*
Y3600D02*
D03*
Y3725D02*
D03*
Y3875D02*
D03*
Y4000D02*
D03*
Y4125D02*
D03*
Y4250D02*
D03*
Y4375D02*
D03*
Y4500D02*
D03*
Y4625D02*
D03*
X5975Y2355D02*
D03*
X6075Y2330D02*
D03*
X6120Y2375D02*
D03*
X6015Y2420D02*
D03*
Y2120D02*
D03*
X5510D02*
D03*
X5610D02*
D03*
X5710D02*
D03*
X5610Y2300D02*
D03*
X5790Y2335D02*
D03*
X5880Y2325D02*
D03*
X5915Y2205D02*
D03*
X5810D02*
D03*
X6020Y3415D02*
D03*
Y3500D02*
D03*
Y3965D02*
D03*
Y4050D02*
D03*
X6015Y4515D02*
D03*
Y4620D02*
D03*
X5922Y4378D02*
D03*
X5788Y4398D02*
D03*
X5815Y4570D02*
D03*
X5630Y4545D02*
D03*
X5685Y4500D02*
D03*
X5630Y3995D02*
D03*
X5685Y3950D02*
D03*
X5815Y4020D02*
D03*
X5788Y3848D02*
D03*
X5922Y3828D02*
D03*
X5630Y3445D02*
D03*
X5685Y3400D02*
D03*
X5815Y3470D02*
D03*
X5788Y3298D02*
D03*
X5922Y3278D02*
D03*
X6938Y2648D02*
D03*
D33*
X5785Y2485D02*
D03*
Y2530D02*
D03*
Y2565D02*
D03*
X5605Y2210D02*
D03*
X5955Y2565D02*
D03*
X5478Y2778D02*
D03*
X5602D02*
D03*
X5781Y2805D02*
D03*
X5997Y4409D02*
D03*
X6050Y4425D02*
D03*
X6165Y4500D02*
D03*
X5997Y3859D02*
D03*
X6050Y3875D02*
D03*
X6165Y3950D02*
D03*
X5997Y3309D02*
D03*
X6050Y3325D02*
D03*
X6165Y3400D02*
D03*
X5660Y2395D02*
D03*
X5730Y2905D02*
D03*
X6400Y2810D02*
D03*
Y2760D02*
D03*
Y2660D02*
D03*
X6735Y2800D02*
D03*
X6005Y2830D02*
D03*
X5995Y3035D02*
D03*
X5970Y2860D02*
D03*
X5935Y2830D02*
D03*
X5975Y3615D02*
D03*
X5840Y2810D02*
D03*
X5860Y2975D02*
D03*
X5885Y3010D02*
D03*
X5865Y2845D02*
D03*
X5890Y2810D02*
D03*
X5925Y3010D02*
D03*
X5915Y3620D02*
D03*
X5890Y3595D02*
D03*
X5860Y3575D02*
D03*
Y4127D02*
D03*
X5890Y4147D02*
D03*
X5915Y4172D02*
D03*
X5965Y4170D02*
D03*
D34*
X6067Y4248D02*
D03*
X6023D02*
D03*
X6067Y4292D02*
D03*
X6023D02*
D03*
X6067Y3698D02*
D03*
X6023D02*
D03*
X6067Y3742D02*
D03*
X6023D02*
D03*
X6067Y3148D02*
D03*
X6023D02*
D03*
X6067Y3192D02*
D03*
X6023D02*
D03*
M02*
