%FSLAX23Y23*%
%MOIN*%
G70*
G01*
G75*
G04 Layer_Physical_Order=1*
G04 Layer_Color=255*
%ADD10O,0.063X0.012*%
%ADD11O,0.012X0.063*%
%ADD12R,0.035X0.031*%
%ADD13R,0.075X0.043*%
%ADD14R,0.110X0.030*%
%ADD15R,0.039X0.059*%
%ADD16R,0.035X0.028*%
%ADD17R,0.028X0.035*%
%ADD18R,0.100X0.100*%
%ADD19O,0.010X0.030*%
%ADD20O,0.030X0.010*%
%ADD21R,0.031X0.035*%
%ADD22R,0.132X0.085*%
%ADD23C,0.010*%
%ADD24C,0.015*%
%ADD25C,0.008*%
%ADD26C,0.025*%
G04:AMPARAMS|DCode=27|XSize=70mil|YSize=70mil|CornerRadius=0mil|HoleSize=0mil|Usage=FLASHONLY|Rotation=90.000|XOffset=0mil|YOffset=0mil|HoleType=Round|Shape=Octagon|*
%AMOCTAGOND27*
4,1,8,0.018,0.035,-0.018,0.035,-0.035,0.018,-0.035,-0.018,-0.018,-0.035,0.018,-0.035,0.035,-0.018,0.035,0.018,0.018,0.035,0.0*
%
%ADD27OCTAGOND27*%

%ADD28C,0.100*%
%ADD29C,0.059*%
%ADD30R,0.059X0.059*%
%ADD31R,0.059X0.059*%
%ADD32C,0.030*%
%ADD33C,0.025*%
%ADD34C,0.020*%
G36*
X6915Y3494D02*
Y3267D01*
X6910Y3266D01*
X6906Y3271D01*
X6898Y3277D01*
X6890Y3281D01*
X6880Y3282D01*
X6870Y3281D01*
X6862Y3277D01*
X6854Y3271D01*
X6852Y3268D01*
X6847Y3270D01*
Y3419D01*
X6847Y3419D01*
X6846Y3424D01*
X6843Y3427D01*
X6843Y3427D01*
X6823Y3448D01*
X6819Y3450D01*
X6815Y3451D01*
X6815Y3451D01*
X6333D01*
X6333Y3451D01*
X6329Y3450D01*
X6325Y3448D01*
X6325Y3448D01*
X6232Y3355D01*
X6230Y3352D01*
X6229Y3351D01*
X6225Y3353D01*
Y3520D01*
X6225Y3521D01*
X6228Y3525D01*
X6884D01*
X6915Y3494D01*
D02*
G37*
G36*
X5805Y3215D02*
X5825D01*
X5845Y3195D01*
X5865Y3195D01*
X5914D01*
X5920Y3190D01*
X5924Y3186D01*
X5929Y3185D01*
X5942Y3172D01*
X5942Y3172D01*
X5946Y3169D01*
X5950Y3169D01*
X5950Y3169D01*
X5954D01*
X5954Y3169D01*
X5958Y3168D01*
X5978D01*
X5983Y3169D01*
X5985Y3170D01*
X6010D01*
Y3150D01*
X5985D01*
X5983Y3152D01*
X5978Y3153D01*
X5958D01*
X5954Y3152D01*
X5954Y3152D01*
X5934D01*
X5934Y3152D01*
X5930Y3151D01*
X5926Y3148D01*
X5912Y3134D01*
X5905D01*
Y3145D01*
X5855D01*
Y3135D01*
X5810D01*
X5779Y3166D01*
Y3210D01*
X5691D01*
Y3153D01*
X5761D01*
X5775Y3139D01*
X5773Y3134D01*
X5691D01*
Y3076D01*
X5779D01*
Y3094D01*
X5785D01*
X5790Y3090D01*
X5790Y3090D01*
X5793Y3087D01*
X5798Y3086D01*
X5805D01*
Y3075D01*
X5855D01*
Y3084D01*
X5911D01*
X5911Y3084D01*
X5915Y3085D01*
X5919Y3088D01*
X5940Y3109D01*
X5945Y3109D01*
Y3095D01*
X5880Y3030D01*
X5654Y3030D01*
X5650Y3034D01*
X5650Y3228D01*
X5805D01*
Y3215D01*
D02*
G37*
G36*
X6854Y3769D02*
X6862Y3763D01*
X6870Y3759D01*
X6880Y3758D01*
X6890Y3759D01*
X6893Y3761D01*
X6915Y3739D01*
Y3682D01*
X6893Y3660D01*
X6802D01*
X6801Y3665D01*
X6806Y3669D01*
X6812Y3677D01*
X6816Y3685D01*
X6817Y3695D01*
X6816Y3705D01*
X6813Y3712D01*
X6843Y3743D01*
X6843Y3743D01*
X6846Y3746D01*
X6847Y3751D01*
X6847Y3751D01*
Y3770D01*
X6852Y3772D01*
X6854Y3769D01*
D02*
G37*
G36*
X6035Y3355D02*
X6002D01*
X5995Y3362D01*
X5991Y3365D01*
X5987Y3366D01*
X5987Y3366D01*
X5525D01*
Y3525D01*
X6035D01*
Y3355D01*
D02*
G37*
G36*
X6665Y2557D02*
X6656Y2549D01*
X6654Y2545D01*
X6653Y2540D01*
Y2490D01*
X6600Y2437D01*
X6595Y2432D01*
X6155D01*
X6150Y2437D01*
X6150D01*
X6105Y2482D01*
Y2490D01*
Y2545D01*
X6145D01*
Y2545D01*
X6145D01*
Y2545D01*
X6195D01*
Y2590D01*
X6182D01*
Y2630D01*
X6468D01*
Y2539D01*
X6462Y2537D01*
X6454Y2531D01*
X6448Y2523D01*
X6444Y2515D01*
X6443Y2505D01*
X6444Y2495D01*
X6448Y2487D01*
X6454Y2479D01*
X6462Y2473D01*
X6470Y2469D01*
X6480Y2468D01*
X6490Y2469D01*
X6491Y2470D01*
X6498Y2473D01*
X6506Y2479D01*
X6512Y2487D01*
X6516Y2495D01*
X6517Y2505D01*
X6516Y2515D01*
X6512Y2523D01*
X6506Y2531D01*
X6498Y2537D01*
X6492Y2540D01*
Y2630D01*
X6665D01*
Y2557D01*
D02*
G37*
G36*
X7038Y2357D02*
X6130D01*
X6125Y2356D01*
X6121Y2354D01*
X6119Y2350D01*
X6118Y2345D01*
Y2102D01*
X5397D01*
Y2365D01*
X5465D01*
X5467Y2360D01*
X5410Y2303D01*
X5407Y2299D01*
X5406Y2294D01*
Y2202D01*
X5407Y2197D01*
X5410Y2193D01*
X5427Y2176D01*
X5424Y2170D01*
X5423Y2160D01*
X5424Y2150D01*
X5428Y2142D01*
X5434Y2134D01*
X5442Y2128D01*
X5450Y2124D01*
X5460Y2123D01*
X5470Y2124D01*
X5478Y2128D01*
X5486Y2134D01*
X5492Y2142D01*
X5496Y2150D01*
X5497Y2160D01*
X5496Y2170D01*
X5492Y2178D01*
X5486Y2186D01*
X5478Y2192D01*
X5470Y2196D01*
X5460Y2197D01*
X5450Y2196D01*
X5444Y2193D01*
X5431Y2207D01*
Y2223D01*
X5497D01*
Y2297D01*
X5444D01*
X5442Y2301D01*
X5493Y2352D01*
X5533D01*
X5535Y2347D01*
X5510Y2322D01*
X5507Y2318D01*
X5506Y2313D01*
Y2197D01*
X5507Y2192D01*
X5510Y2188D01*
X5526Y2172D01*
X5524Y2170D01*
X5523Y2160D01*
X5524Y2150D01*
X5528Y2142D01*
X5534Y2134D01*
X5542Y2128D01*
X5550Y2124D01*
X5560Y2123D01*
X5570Y2124D01*
X5578Y2128D01*
X5586Y2134D01*
X5592Y2142D01*
X5596Y2150D01*
X5597Y2160D01*
X5596Y2170D01*
X5592Y2178D01*
X5586Y2186D01*
X5578Y2192D01*
X5570Y2196D01*
X5560Y2197D01*
X5550Y2196D01*
X5542Y2192D01*
X5541Y2191D01*
X5531Y2202D01*
Y2230D01*
X5536Y2233D01*
X5542Y2228D01*
X5550Y2224D01*
X5560Y2223D01*
X5570Y2224D01*
X5578Y2228D01*
X5586Y2234D01*
X5592Y2242D01*
X5596Y2250D01*
X5597Y2260D01*
X5596Y2270D01*
X5592Y2278D01*
X5586Y2286D01*
X5580Y2291D01*
X5579Y2297D01*
X5600Y2318D01*
X5730D01*
X5735Y2319D01*
X5739Y2321D01*
X5770Y2353D01*
X5838D01*
X5840Y2348D01*
X5801Y2309D01*
X5799Y2305D01*
X5798Y2300D01*
Y2277D01*
X5793Y2276D01*
X5792Y2278D01*
X5786Y2286D01*
X5778Y2292D01*
X5770Y2296D01*
X5760Y2297D01*
X5750Y2296D01*
X5742Y2292D01*
X5734Y2286D01*
X5728Y2278D01*
X5724Y2270D01*
X5723Y2260D01*
X5724Y2250D01*
X5728Y2242D01*
X5734Y2234D01*
X5742Y2228D01*
X5750Y2224D01*
X5760Y2223D01*
X5764Y2224D01*
X5767Y2219D01*
X5761Y2214D01*
X5639D01*
X5634Y2219D01*
X5630Y2221D01*
X5625Y2222D01*
X5620D01*
X5619Y2224D01*
X5613Y2228D01*
X5605Y2230D01*
X5597Y2228D01*
X5591Y2224D01*
X5587Y2218D01*
X5585Y2210D01*
X5587Y2202D01*
X5591Y2196D01*
X5597Y2192D01*
X5605Y2190D01*
X5613Y2192D01*
X5619Y2196D01*
X5622Y2196D01*
X5625Y2193D01*
X5629Y2190D01*
X5631Y2190D01*
X5631Y2189D01*
X5633Y2184D01*
X5628Y2178D01*
X5624Y2170D01*
X5623Y2160D01*
X5624Y2150D01*
X5628Y2142D01*
X5634Y2134D01*
X5642Y2128D01*
X5650Y2124D01*
X5660Y2123D01*
X5670Y2124D01*
X5678Y2128D01*
X5686Y2134D01*
X5692Y2142D01*
X5696Y2150D01*
X5697Y2160D01*
X5696Y2170D01*
X5692Y2178D01*
X5687Y2184D01*
X5690Y2189D01*
X5730D01*
X5733Y2184D01*
X5728Y2178D01*
X5724Y2170D01*
X5723Y2160D01*
X5724Y2150D01*
X5728Y2142D01*
X5734Y2134D01*
X5742Y2128D01*
X5750Y2124D01*
X5760Y2123D01*
X5770Y2124D01*
X5778Y2128D01*
X5786Y2134D01*
X5792Y2142D01*
X5796Y2150D01*
X5797Y2160D01*
X5796Y2170D01*
X5792Y2178D01*
X5786Y2186D01*
X5780Y2191D01*
X5779Y2197D01*
X5819Y2236D01*
X5820Y2239D01*
X5821Y2240D01*
X5822Y2243D01*
X5827Y2244D01*
X5828Y2242D01*
X5834Y2234D01*
X5842Y2228D01*
X5850Y2224D01*
X5860Y2223D01*
X5870Y2224D01*
X5878Y2228D01*
X5886Y2234D01*
X5892Y2242D01*
X5896Y2250D01*
X5897Y2260D01*
X5896Y2270D01*
X5892Y2278D01*
X5886Y2286D01*
X5878Y2292D01*
X5870Y2296D01*
X5860Y2297D01*
X5850Y2296D01*
X5842Y2292D01*
X5834Y2286D01*
X5828Y2278D01*
X5827Y2276D01*
X5822Y2277D01*
Y2295D01*
X5883Y2355D01*
X5887Y2353D01*
Y2345D01*
X5888Y2341D01*
X5891Y2337D01*
X5926Y2301D01*
X5930Y2299D01*
X5935Y2298D01*
X5943D01*
X5944Y2293D01*
X5942Y2292D01*
X5934Y2286D01*
X5928Y2278D01*
X5924Y2270D01*
X5923Y2260D01*
X5924Y2250D01*
X5928Y2242D01*
X5934Y2234D01*
X5942Y2228D01*
X5950Y2224D01*
X5960Y2223D01*
X5970Y2224D01*
X5978Y2228D01*
X5986Y2234D01*
X5992Y2242D01*
X5993Y2244D01*
X5998Y2243D01*
Y2210D01*
X5999Y2205D01*
X6001Y2201D01*
X6027Y2176D01*
X6024Y2170D01*
X6023Y2160D01*
X6024Y2150D01*
X6028Y2142D01*
X6034Y2134D01*
X6042Y2128D01*
X6050Y2124D01*
X6060Y2123D01*
X6070Y2124D01*
X6078Y2128D01*
X6086Y2134D01*
X6092Y2142D01*
X6096Y2150D01*
X6097Y2160D01*
X6096Y2170D01*
X6092Y2178D01*
X6086Y2186D01*
X6078Y2192D01*
X6070Y2196D01*
X6060Y2197D01*
X6050Y2196D01*
X6044Y2193D01*
X6022Y2215D01*
Y2243D01*
X6027Y2244D01*
X6028Y2242D01*
X6034Y2234D01*
X6042Y2228D01*
X6050Y2224D01*
X6060Y2223D01*
X6070Y2224D01*
X6078Y2228D01*
X6086Y2234D01*
X6092Y2242D01*
X6096Y2250D01*
X6097Y2260D01*
X6096Y2270D01*
X6092Y2278D01*
X6086Y2286D01*
X6078Y2292D01*
X6070Y2296D01*
X6060Y2297D01*
X6050Y2296D01*
X6044Y2293D01*
X6002Y2336D01*
X5998Y2338D01*
X5993Y2339D01*
X5950D01*
X5931Y2358D01*
Y2365D01*
X5990D01*
X5995Y2370D01*
Y2436D01*
X5999Y2440D01*
X6088Y2440D01*
X6133Y2394D01*
X6135Y2393D01*
X6137Y2392D01*
X6142Y2391D01*
X6608D01*
X6613Y2392D01*
X6617Y2394D01*
X6691Y2468D01*
X6728D01*
Y2470D01*
X6762D01*
Y2468D01*
X6815D01*
Y2470D01*
X6825D01*
Y2467D01*
X6878D01*
Y2470D01*
X7038D01*
Y2357D01*
D02*
G37*
G36*
X6854Y3219D02*
X6862Y3213D01*
X6870Y3209D01*
X6880Y3208D01*
X6890Y3209D01*
X6893Y3211D01*
X6915Y3189D01*
Y3132D01*
X6893Y3110D01*
X6802D01*
X6801Y3115D01*
X6806Y3119D01*
X6812Y3127D01*
X6816Y3135D01*
X6817Y3145D01*
X6816Y3155D01*
X6813Y3162D01*
X6843Y3193D01*
X6843Y3193D01*
X6846Y3196D01*
X6847Y3201D01*
X6847Y3201D01*
Y3220D01*
X6852Y3222D01*
X6854Y3219D01*
D02*
G37*
G36*
X5635Y2550D02*
X5640Y2550D01*
Y2522D01*
X5590D01*
Y2530D01*
X5556D01*
X5541Y2545D01*
X5538Y2547D01*
X5533Y2548D01*
X5533Y2548D01*
X5514D01*
Y2565D01*
X5426D01*
Y2508D01*
X5514D01*
Y2526D01*
X5529D01*
X5540Y2514D01*
Y2490D01*
X5538Y2490D01*
X5535Y2487D01*
X5535Y2487D01*
X5519Y2472D01*
X5514Y2472D01*
Y2489D01*
X5426D01*
Y2431D01*
X5514D01*
Y2449D01*
X5524D01*
X5524Y2449D01*
X5528Y2450D01*
X5531Y2452D01*
X5547Y2468D01*
X5590D01*
Y2460D01*
X5640D01*
X5640Y2455D01*
Y2445D01*
X5635Y2440D01*
X5605Y2410D01*
X5431D01*
X5419Y2422D01*
Y2580D01*
X5605D01*
X5635Y2550D01*
D02*
G37*
G36*
X6915Y4594D02*
Y4367D01*
X6910Y4366D01*
X6906Y4371D01*
X6898Y4377D01*
X6890Y4381D01*
X6880Y4382D01*
X6870Y4381D01*
X6862Y4377D01*
X6854Y4371D01*
X6852Y4368D01*
X6847Y4370D01*
Y4519D01*
X6847Y4519D01*
X6846Y4524D01*
X6843Y4527D01*
X6843Y4527D01*
X6823Y4548D01*
X6819Y4550D01*
X6815Y4551D01*
X6815Y4551D01*
X6333D01*
X6333Y4551D01*
X6329Y4550D01*
X6325Y4548D01*
X6325Y4548D01*
X6232Y4455D01*
X6230Y4452D01*
X6229Y4451D01*
X6225Y4453D01*
Y4620D01*
X6224Y4626D01*
X6220Y4630D01*
X6215Y4636D01*
X6217Y4641D01*
X6868D01*
X6915Y4594D01*
D02*
G37*
G36*
X5805Y4315D02*
X5825D01*
X5845Y4295D01*
X5865Y4295D01*
X5914D01*
X5920Y4290D01*
X5924Y4286D01*
X5929Y4285D01*
X5942Y4272D01*
X5942Y4272D01*
X5946Y4269D01*
X5950Y4269D01*
X5950Y4269D01*
X5954D01*
X5954Y4269D01*
X5958Y4268D01*
X5978D01*
X5983Y4269D01*
X5985Y4270D01*
X6010D01*
Y4250D01*
X5985D01*
X5983Y4252D01*
X5978Y4253D01*
X5958D01*
X5954Y4252D01*
X5954Y4252D01*
X5934D01*
X5934Y4252D01*
X5930Y4251D01*
X5926Y4248D01*
X5912Y4234D01*
X5905D01*
Y4245D01*
X5855D01*
Y4235D01*
X5810D01*
X5779Y4266D01*
Y4310D01*
X5691D01*
Y4253D01*
X5761D01*
X5775Y4239D01*
X5773Y4234D01*
X5691D01*
Y4176D01*
X5779D01*
Y4194D01*
X5785D01*
X5790Y4190D01*
X5790Y4190D01*
X5793Y4187D01*
X5798Y4186D01*
X5805D01*
Y4175D01*
X5855D01*
Y4184D01*
X5894D01*
X5897Y4180D01*
X5897Y4179D01*
X5895Y4172D01*
X5896Y4170D01*
X5892Y4166D01*
X5890Y4167D01*
X5882Y4165D01*
X5876Y4161D01*
X5872Y4155D01*
X5871Y4149D01*
X5869Y4147D01*
X5865Y4146D01*
X5860Y4147D01*
X5852Y4145D01*
X5846Y4141D01*
X5842Y4135D01*
X5841Y4130D01*
X5654Y4130D01*
X5650Y4134D01*
X5650Y4328D01*
X5805D01*
Y4315D01*
D02*
G37*
G36*
X6035Y4635D02*
X6035Y4635D01*
Y4455D01*
X6002D01*
X5995Y4462D01*
X5991Y4465D01*
X5987Y4466D01*
X5987Y4466D01*
X5525D01*
Y4640D01*
X6033D01*
X6035Y4635D01*
D02*
G37*
G36*
X7038Y2780D02*
X6922D01*
X6920Y2781D01*
X6915Y2782D01*
X6798D01*
X6793Y2781D01*
X6791Y2780D01*
X6705D01*
Y2785D01*
X6687D01*
X6523Y2950D01*
X6519Y2952D01*
X6514Y2953D01*
X6209D01*
X6205Y2957D01*
Y3134D01*
X6320D01*
X6323Y3127D01*
X6329Y3119D01*
X6337Y3113D01*
X6345Y3109D01*
X6355Y3108D01*
X6365Y3109D01*
X6373Y3113D01*
X6381Y3119D01*
X6387Y3127D01*
X6391Y3135D01*
X6392Y3145D01*
X6391Y3155D01*
X6387Y3163D01*
X6381Y3171D01*
X6373Y3177D01*
X6365Y3181D01*
X6355Y3182D01*
X6345Y3181D01*
X6337Y3177D01*
X6329Y3171D01*
X6323Y3163D01*
X6320Y3156D01*
X6209D01*
X6205Y3160D01*
Y3169D01*
X6220D01*
X6220Y3169D01*
X6224Y3170D01*
X6228Y3172D01*
X6290Y3234D01*
X6320D01*
X6323Y3227D01*
X6329Y3219D01*
X6337Y3213D01*
X6345Y3209D01*
X6355Y3208D01*
X6365Y3209D01*
X6373Y3213D01*
X6381Y3219D01*
X6387Y3227D01*
X6391Y3235D01*
X6392Y3245D01*
X6391Y3255D01*
X6387Y3263D01*
X6381Y3271D01*
X6373Y3277D01*
X6365Y3281D01*
X6355Y3282D01*
X6345Y3281D01*
X6337Y3277D01*
X6329Y3271D01*
X6323Y3263D01*
X6320Y3256D01*
X6298D01*
X6295Y3261D01*
X6295Y3262D01*
X6296Y3266D01*
X6296Y3266D01*
Y3322D01*
X6308Y3334D01*
X6318D01*
Y3308D01*
X6392D01*
Y3382D01*
X6339D01*
X6337Y3386D01*
X6350Y3399D01*
X6710D01*
X6743Y3366D01*
Y3308D01*
X6809D01*
Y3290D01*
X6797Y3278D01*
X6790Y3281D01*
X6780Y3282D01*
X6770Y3281D01*
X6762Y3277D01*
X6754Y3271D01*
X6748Y3263D01*
X6744Y3255D01*
X6743Y3245D01*
X6744Y3235D01*
X6748Y3227D01*
X6754Y3219D01*
X6762Y3213D01*
X6770Y3209D01*
X6780Y3208D01*
X6790Y3209D01*
X6798Y3213D01*
X6806Y3219D01*
X6812Y3227D01*
X6816Y3235D01*
X6817Y3245D01*
X6816Y3255D01*
X6813Y3262D01*
X6820Y3269D01*
X6824Y3267D01*
Y3205D01*
X6797Y3178D01*
X6790Y3181D01*
X6780Y3182D01*
X6770Y3181D01*
X6762Y3177D01*
X6754Y3171D01*
X6748Y3163D01*
X6744Y3155D01*
X6743Y3145D01*
X6744Y3135D01*
X6748Y3127D01*
X6754Y3119D01*
X6759Y3115D01*
X6758Y3110D01*
X6546D01*
X6525Y3131D01*
Y3190D01*
X6524Y3195D01*
X6524Y3196D01*
X6520Y3200D01*
X6489Y3232D01*
X6491Y3235D01*
X6492Y3245D01*
X6491Y3255D01*
X6487Y3263D01*
X6481Y3271D01*
X6473Y3277D01*
X6465Y3281D01*
X6455Y3282D01*
X6445Y3281D01*
X6437Y3277D01*
X6429Y3271D01*
X6423Y3263D01*
X6419Y3255D01*
X6418Y3245D01*
X6419Y3235D01*
X6423Y3227D01*
X6429Y3219D01*
X6437Y3213D01*
X6445Y3209D01*
X6455Y3208D01*
X6465Y3209D01*
X6468Y3211D01*
X6495Y3184D01*
Y3125D01*
X6496Y3119D01*
X6500Y3115D01*
X6530Y3085D01*
X6534Y3081D01*
X6540Y3080D01*
X6899D01*
X6905Y3081D01*
X6910Y3085D01*
X6940Y3115D01*
X6944Y3120D01*
X6945Y3126D01*
Y3195D01*
Y3500D01*
X6944Y3505D01*
X6944Y3506D01*
X6940Y3510D01*
X6900Y3550D01*
X6896Y3554D01*
X6890Y3555D01*
X6209D01*
X6205Y3558D01*
Y3684D01*
X6320D01*
X6323Y3677D01*
X6329Y3669D01*
X6337Y3663D01*
X6345Y3659D01*
X6355Y3658D01*
X6365Y3659D01*
X6373Y3663D01*
X6381Y3669D01*
X6387Y3677D01*
X6391Y3685D01*
X6392Y3695D01*
X6391Y3705D01*
X6387Y3713D01*
X6381Y3721D01*
X6373Y3727D01*
X6365Y3731D01*
X6355Y3732D01*
X6345Y3731D01*
X6337Y3727D01*
X6329Y3721D01*
X6323Y3713D01*
X6320Y3706D01*
X6209D01*
X6205Y3710D01*
Y3719D01*
X6220D01*
X6220Y3719D01*
X6224Y3720D01*
X6228Y3722D01*
X6290Y3784D01*
X6320D01*
X6323Y3777D01*
X6329Y3769D01*
X6337Y3763D01*
X6345Y3759D01*
X6355Y3758D01*
X6365Y3759D01*
X6373Y3763D01*
X6381Y3769D01*
X6387Y3777D01*
X6391Y3785D01*
X6392Y3795D01*
X6391Y3805D01*
X6387Y3813D01*
X6381Y3821D01*
X6373Y3827D01*
X6365Y3831D01*
X6355Y3832D01*
X6345Y3831D01*
X6337Y3827D01*
X6329Y3821D01*
X6323Y3813D01*
X6320Y3806D01*
X6298D01*
X6295Y3811D01*
X6295Y3812D01*
X6296Y3816D01*
X6296Y3816D01*
Y3872D01*
X6308Y3884D01*
X6318D01*
Y3858D01*
X6392D01*
Y3932D01*
X6339D01*
X6337Y3936D01*
X6350Y3949D01*
X6710D01*
X6743Y3916D01*
Y3858D01*
X6809D01*
Y3840D01*
X6797Y3828D01*
X6790Y3831D01*
X6780Y3832D01*
X6770Y3831D01*
X6762Y3827D01*
X6754Y3821D01*
X6748Y3813D01*
X6744Y3805D01*
X6743Y3795D01*
X6744Y3785D01*
X6748Y3777D01*
X6754Y3769D01*
X6762Y3763D01*
X6770Y3759D01*
X6780Y3758D01*
X6790Y3759D01*
X6798Y3763D01*
X6806Y3769D01*
X6812Y3777D01*
X6816Y3785D01*
X6817Y3795D01*
X6816Y3805D01*
X6813Y3812D01*
X6820Y3819D01*
X6824Y3817D01*
Y3755D01*
X6797Y3728D01*
X6790Y3731D01*
X6780Y3732D01*
X6770Y3731D01*
X6762Y3727D01*
X6754Y3721D01*
X6748Y3713D01*
X6744Y3705D01*
X6743Y3695D01*
X6744Y3685D01*
X6748Y3677D01*
X6754Y3669D01*
X6759Y3665D01*
X6758Y3660D01*
X6546D01*
X6525Y3681D01*
Y3740D01*
X6524Y3745D01*
X6524Y3746D01*
X6520Y3750D01*
X6489Y3782D01*
X6491Y3785D01*
X6492Y3795D01*
X6491Y3805D01*
X6487Y3813D01*
X6481Y3821D01*
X6473Y3827D01*
X6465Y3831D01*
X6455Y3832D01*
X6445Y3831D01*
X6437Y3827D01*
X6429Y3821D01*
X6423Y3813D01*
X6419Y3805D01*
X6418Y3795D01*
X6419Y3785D01*
X6423Y3777D01*
X6429Y3769D01*
X6437Y3763D01*
X6445Y3759D01*
X6455Y3758D01*
X6465Y3759D01*
X6468Y3761D01*
X6495Y3734D01*
Y3675D01*
X6496Y3669D01*
X6500Y3665D01*
X6530Y3635D01*
X6534Y3631D01*
X6540Y3630D01*
X6899D01*
X6905Y3631D01*
X6910Y3635D01*
X6940Y3665D01*
X6944Y3670D01*
X6945Y3676D01*
Y3745D01*
Y4050D01*
X6944Y4055D01*
X6944Y4056D01*
X6940Y4060D01*
X6900Y4100D01*
X6896Y4104D01*
X6890Y4105D01*
X6209D01*
X6205Y4108D01*
Y4234D01*
X6320D01*
X6323Y4227D01*
X6329Y4219D01*
X6337Y4213D01*
X6345Y4209D01*
X6355Y4208D01*
X6365Y4209D01*
X6373Y4213D01*
X6381Y4219D01*
X6387Y4227D01*
X6391Y4235D01*
X6392Y4245D01*
X6391Y4255D01*
X6387Y4263D01*
X6381Y4271D01*
X6373Y4277D01*
X6365Y4281D01*
X6355Y4282D01*
X6345Y4281D01*
X6337Y4277D01*
X6329Y4271D01*
X6323Y4263D01*
X6320Y4256D01*
X6209D01*
X6205Y4260D01*
Y4269D01*
X6220D01*
X6220Y4269D01*
X6224Y4270D01*
X6228Y4272D01*
X6290Y4334D01*
X6320D01*
X6323Y4327D01*
X6329Y4319D01*
X6337Y4313D01*
X6345Y4309D01*
X6355Y4308D01*
X6365Y4309D01*
X6373Y4313D01*
X6381Y4319D01*
X6387Y4327D01*
X6391Y4335D01*
X6392Y4345D01*
X6391Y4355D01*
X6387Y4363D01*
X6381Y4371D01*
X6373Y4377D01*
X6365Y4381D01*
X6355Y4382D01*
X6345Y4381D01*
X6337Y4377D01*
X6329Y4371D01*
X6323Y4363D01*
X6320Y4356D01*
X6298D01*
X6295Y4361D01*
X6295Y4362D01*
X6296Y4366D01*
X6296Y4366D01*
Y4422D01*
X6308Y4434D01*
X6318D01*
Y4408D01*
X6392D01*
Y4482D01*
X6339D01*
X6337Y4486D01*
X6350Y4499D01*
X6710D01*
X6743Y4466D01*
Y4408D01*
X6809D01*
Y4390D01*
X6797Y4378D01*
X6790Y4381D01*
X6780Y4382D01*
X6770Y4381D01*
X6762Y4377D01*
X6754Y4371D01*
X6748Y4363D01*
X6744Y4355D01*
X6743Y4345D01*
X6744Y4335D01*
X6748Y4327D01*
X6754Y4319D01*
X6762Y4313D01*
X6770Y4309D01*
X6780Y4308D01*
X6790Y4309D01*
X6798Y4313D01*
X6806Y4319D01*
X6812Y4327D01*
X6816Y4335D01*
X6817Y4345D01*
X6816Y4355D01*
X6813Y4362D01*
X6820Y4369D01*
X6824Y4367D01*
Y4305D01*
X6797Y4278D01*
X6790Y4281D01*
X6780Y4282D01*
X6770Y4281D01*
X6762Y4277D01*
X6754Y4271D01*
X6748Y4263D01*
X6744Y4255D01*
X6743Y4245D01*
X6744Y4235D01*
X6748Y4227D01*
X6754Y4219D01*
X6759Y4215D01*
X6758Y4210D01*
X6546D01*
X6525Y4231D01*
Y4290D01*
X6524Y4295D01*
X6524Y4296D01*
X6520Y4300D01*
X6489Y4332D01*
X6491Y4335D01*
X6492Y4345D01*
X6491Y4355D01*
X6487Y4363D01*
X6481Y4371D01*
X6473Y4377D01*
X6465Y4381D01*
X6455Y4382D01*
X6445Y4381D01*
X6437Y4377D01*
X6429Y4371D01*
X6423Y4363D01*
X6419Y4355D01*
X6418Y4345D01*
X6419Y4335D01*
X6423Y4327D01*
X6429Y4319D01*
X6437Y4313D01*
X6445Y4309D01*
X6455Y4308D01*
X6465Y4309D01*
X6468Y4311D01*
X6495Y4284D01*
Y4225D01*
X6496Y4219D01*
X6500Y4215D01*
X6530Y4185D01*
X6534Y4181D01*
X6540Y4180D01*
X6899D01*
X6905Y4181D01*
X6910Y4185D01*
X6940Y4215D01*
X6944Y4220D01*
X6945Y4226D01*
Y4295D01*
Y4600D01*
X6944Y4606D01*
X6940Y4610D01*
X6893Y4658D01*
X6895Y4663D01*
X7038D01*
Y2780D01*
D02*
G37*
G36*
X6915Y4044D02*
Y3817D01*
X6910Y3816D01*
X6906Y3821D01*
X6898Y3827D01*
X6890Y3831D01*
X6880Y3832D01*
X6870Y3831D01*
X6862Y3827D01*
X6854Y3821D01*
X6852Y3818D01*
X6847Y3820D01*
Y3969D01*
X6847Y3969D01*
X6846Y3974D01*
X6843Y3977D01*
X6843Y3977D01*
X6823Y3998D01*
X6819Y4000D01*
X6815Y4001D01*
X6815Y4001D01*
X6333D01*
X6333Y4001D01*
X6329Y4000D01*
X6325Y3998D01*
X6325Y3998D01*
X6232Y3905D01*
X6230Y3902D01*
X6229Y3901D01*
X6225Y3903D01*
Y4070D01*
X6225Y4071D01*
X6228Y4075D01*
X6884D01*
X6915Y4044D01*
D02*
G37*
G36*
X5805Y3765D02*
X5825D01*
X5845Y3745D01*
X5865Y3745D01*
X5914D01*
X5920Y3740D01*
X5924Y3736D01*
X5929Y3735D01*
X5942Y3722D01*
X5942Y3722D01*
X5946Y3719D01*
X5950Y3719D01*
X5950Y3719D01*
X5954D01*
X5954Y3719D01*
X5958Y3718D01*
X5978D01*
X5983Y3719D01*
X5985Y3720D01*
X6010D01*
Y3700D01*
X5985D01*
X5983Y3702D01*
X5978Y3703D01*
X5958D01*
X5954Y3702D01*
X5954Y3702D01*
X5934D01*
X5934Y3702D01*
X5930Y3701D01*
X5926Y3698D01*
X5912Y3684D01*
X5905D01*
Y3695D01*
X5855D01*
Y3685D01*
X5810D01*
X5779Y3716D01*
Y3760D01*
X5691D01*
Y3703D01*
X5761D01*
X5775Y3689D01*
X5773Y3684D01*
X5691D01*
Y3626D01*
X5779D01*
Y3644D01*
X5785D01*
X5790Y3640D01*
X5790Y3640D01*
X5793Y3637D01*
X5798Y3636D01*
X5805D01*
Y3625D01*
X5855D01*
Y3634D01*
X5895D01*
X5898Y3629D01*
X5897Y3628D01*
X5895Y3620D01*
X5896Y3618D01*
X5892Y3614D01*
X5890Y3615D01*
X5882Y3613D01*
X5876Y3609D01*
X5872Y3603D01*
X5871Y3597D01*
X5869Y3595D01*
X5865Y3594D01*
X5860Y3595D01*
X5852Y3593D01*
X5846Y3589D01*
X5842Y3583D01*
X5841Y3580D01*
X5654Y3580D01*
X5650Y3584D01*
X5650Y3778D01*
X5805D01*
Y3765D01*
D02*
G37*
G36*
X6035Y3905D02*
X6002D01*
X5995Y3912D01*
X5991Y3915D01*
X5987Y3916D01*
X5987Y3916D01*
X5525D01*
Y4075D01*
X6035D01*
Y3905D01*
D02*
G37*
G36*
X6854Y4319D02*
X6862Y4313D01*
X6870Y4309D01*
X6880Y4308D01*
X6890Y4309D01*
X6893Y4311D01*
X6915Y4289D01*
Y4232D01*
X6893Y4210D01*
X6802D01*
X6801Y4215D01*
X6806Y4219D01*
X6812Y4227D01*
X6816Y4235D01*
X6817Y4245D01*
X6816Y4255D01*
X6813Y4262D01*
X6843Y4293D01*
X6843Y4293D01*
X6846Y4296D01*
X6847Y4301D01*
X6847Y4301D01*
Y4320D01*
X6852Y4322D01*
X6854Y4319D01*
D02*
G37*
%LPC*%
G36*
X5960Y2197D02*
X5950Y2196D01*
X5942Y2192D01*
X5934Y2186D01*
X5928Y2178D01*
X5924Y2170D01*
X5923Y2160D01*
X5924Y2150D01*
X5928Y2142D01*
X5934Y2134D01*
X5942Y2128D01*
X5950Y2124D01*
X5960Y2123D01*
X5970Y2124D01*
X5978Y2128D01*
X5986Y2134D01*
X5992Y2142D01*
X5996Y2150D01*
X5997Y2160D01*
X5996Y2170D01*
X5992Y2178D01*
X5986Y2186D01*
X5978Y2192D01*
X5970Y2196D01*
X5960Y2197D01*
D02*
G37*
G36*
X5660Y2297D02*
X5650Y2296D01*
X5642Y2292D01*
X5634Y2286D01*
X5628Y2278D01*
X5624Y2270D01*
X5623Y2260D01*
X5624Y2250D01*
X5628Y2242D01*
X5634Y2234D01*
X5642Y2228D01*
X5650Y2224D01*
X5660Y2223D01*
X5670Y2224D01*
X5678Y2228D01*
X5686Y2234D01*
X5692Y2242D01*
X5696Y2250D01*
X5697Y2260D01*
X5696Y2270D01*
X5692Y2278D01*
X5686Y2286D01*
X5678Y2292D01*
X5670Y2296D01*
X5660Y2297D01*
D02*
G37*
G36*
X6851Y3020D02*
X6836Y3019D01*
X6822Y3013D01*
X6810Y3004D01*
X6801Y2992D01*
X6795Y2978D01*
X6794Y2963D01*
X6795Y2948D01*
X6801Y2934D01*
X6810Y2922D01*
X6822Y2913D01*
X6836Y2907D01*
X6851Y2906D01*
X6866Y2907D01*
X6880Y2913D01*
X6892Y2922D01*
X6901Y2934D01*
X6907Y2948D01*
X6908Y2963D01*
X6907Y2978D01*
X6901Y2992D01*
X6892Y3004D01*
X6880Y3013D01*
X6866Y3019D01*
X6851Y3020D01*
D02*
G37*
G36*
X6417Y2542D02*
X6343D01*
Y2468D01*
X6417D01*
Y2542D01*
D02*
G37*
%LPD*%
D10*
X5708Y2683D02*
D03*
Y2664D02*
D03*
Y2644D02*
D03*
Y2624D02*
D03*
Y2605D02*
D03*
Y2585D02*
D03*
Y2565D02*
D03*
Y2545D02*
D03*
Y2526D02*
D03*
Y2506D02*
D03*
Y2486D02*
D03*
Y2467D02*
D03*
X6032D02*
D03*
Y2486D02*
D03*
Y2506D02*
D03*
Y2526D02*
D03*
Y2545D02*
D03*
Y2565D02*
D03*
Y2585D02*
D03*
Y2605D02*
D03*
Y2624D02*
D03*
Y2644D02*
D03*
Y2664D02*
D03*
Y2683D02*
D03*
D11*
X5762Y2413D02*
D03*
X5781D02*
D03*
X5801D02*
D03*
X5821D02*
D03*
X5840D02*
D03*
X5860D02*
D03*
X5880D02*
D03*
X5900D02*
D03*
X5919D02*
D03*
X5939D02*
D03*
X5959D02*
D03*
X5978D02*
D03*
Y2737D02*
D03*
X5959D02*
D03*
X5939D02*
D03*
X5919D02*
D03*
X5900D02*
D03*
X5880D02*
D03*
X5860D02*
D03*
X5840D02*
D03*
X5821D02*
D03*
X5801D02*
D03*
X5781D02*
D03*
X5762D02*
D03*
D12*
X5515Y2678D02*
D03*
Y2622D02*
D03*
X5565Y2678D02*
D03*
Y2622D02*
D03*
X5515Y2778D02*
D03*
Y2722D02*
D03*
X5565Y2452D02*
D03*
Y2508D02*
D03*
X5615Y2538D02*
D03*
Y2482D02*
D03*
X5565Y2778D02*
D03*
Y2722D02*
D03*
X6120Y2568D02*
D03*
Y2512D02*
D03*
X6170Y2568D02*
D03*
Y2512D02*
D03*
X6735Y2707D02*
D03*
Y2763D02*
D03*
X5830Y4253D02*
D03*
Y4197D02*
D03*
X5880Y4278D02*
D03*
Y4222D02*
D03*
X5830Y4337D02*
D03*
Y4393D02*
D03*
X5880Y4322D02*
D03*
Y4378D02*
D03*
Y3772D02*
D03*
Y3828D02*
D03*
X5830Y3787D02*
D03*
Y3843D02*
D03*
X5880Y3728D02*
D03*
Y3672D02*
D03*
X5830Y3703D02*
D03*
Y3647D02*
D03*
X5880Y3222D02*
D03*
Y3278D02*
D03*
X5830Y3237D02*
D03*
Y3293D02*
D03*
X5880Y3178D02*
D03*
Y3122D02*
D03*
X5830Y3153D02*
D03*
Y3097D02*
D03*
D13*
X5470Y2460D02*
D03*
Y2537D02*
D03*
X5735Y4205D02*
D03*
Y4282D02*
D03*
Y3655D02*
D03*
Y3732D02*
D03*
Y3105D02*
D03*
Y3182D02*
D03*
D14*
X6480Y2660D02*
D03*
X6320D02*
D03*
X6480Y2710D02*
D03*
X6320D02*
D03*
X6480Y2760D02*
D03*
X6320D02*
D03*
X6480Y2810D02*
D03*
X6320D02*
D03*
X6480Y2860D02*
D03*
X6320D02*
D03*
D15*
X6788Y2505D02*
D03*
X6702D02*
D03*
X6788Y2585D02*
D03*
X6702D02*
D03*
X6852Y2504D02*
D03*
X6938D02*
D03*
X6852Y2589D02*
D03*
X6938D02*
D03*
D16*
X6680Y2765D02*
D03*
Y2705D02*
D03*
D17*
X5680Y2805D02*
D03*
X5740D02*
D03*
X5720Y2855D02*
D03*
X5780D02*
D03*
X6165Y4405D02*
D03*
X6105D02*
D03*
X6165Y3855D02*
D03*
X6105D02*
D03*
X6165Y3305D02*
D03*
X6105D02*
D03*
D18*
X6045Y4270D02*
D03*
Y3720D02*
D03*
Y3170D02*
D03*
D19*
X5996Y4347D02*
D03*
X6015D02*
D03*
X6035D02*
D03*
X6055D02*
D03*
X6075D02*
D03*
X6094D02*
D03*
Y4193D02*
D03*
X6075D02*
D03*
X6055D02*
D03*
X6035D02*
D03*
X6015D02*
D03*
X5996D02*
D03*
Y3797D02*
D03*
X6015D02*
D03*
X6035D02*
D03*
X6055D02*
D03*
X6075D02*
D03*
X6094D02*
D03*
Y3643D02*
D03*
X6075D02*
D03*
X6055D02*
D03*
X6035D02*
D03*
X6015D02*
D03*
X5996D02*
D03*
Y3247D02*
D03*
X6015D02*
D03*
X6035D02*
D03*
X6055D02*
D03*
X6075D02*
D03*
X6094D02*
D03*
Y3093D02*
D03*
X6075D02*
D03*
X6055D02*
D03*
X6035D02*
D03*
X6015D02*
D03*
X5996D02*
D03*
D20*
X6122Y4319D02*
D03*
Y4300D02*
D03*
Y4280D02*
D03*
Y4260D02*
D03*
Y4240D02*
D03*
Y4221D02*
D03*
X5968D02*
D03*
Y4240D02*
D03*
Y4260D02*
D03*
Y4280D02*
D03*
Y4300D02*
D03*
Y4319D02*
D03*
X6122Y3769D02*
D03*
Y3750D02*
D03*
Y3730D02*
D03*
Y3710D02*
D03*
Y3690D02*
D03*
Y3671D02*
D03*
X5968D02*
D03*
Y3690D02*
D03*
Y3710D02*
D03*
Y3730D02*
D03*
Y3750D02*
D03*
Y3769D02*
D03*
X6122Y3219D02*
D03*
Y3200D02*
D03*
Y3180D02*
D03*
Y3160D02*
D03*
Y3140D02*
D03*
Y3121D02*
D03*
X5968D02*
D03*
Y3140D02*
D03*
Y3160D02*
D03*
Y3180D02*
D03*
Y3200D02*
D03*
Y3219D02*
D03*
D21*
X6107Y4455D02*
D03*
X6163D02*
D03*
X6107Y3905D02*
D03*
X6163D02*
D03*
X6107Y3355D02*
D03*
X6163D02*
D03*
D22*
X5723Y4570D02*
D03*
X6115D02*
D03*
X5723Y4020D02*
D03*
X6115D02*
D03*
X5723Y3470D02*
D03*
X6115D02*
D03*
D23*
X6608Y2403D02*
X6702Y2497D01*
X6078Y2467D02*
X6142Y2403D01*
X6608D01*
X6600Y2420D02*
X6665Y2485D01*
X6150Y2420D02*
X6600D01*
X6084Y2486D02*
X6150Y2420D01*
X6377Y2890D02*
X6413Y2854D01*
X5815Y2890D02*
X6377D01*
X5780Y2855D02*
X5815Y2890D01*
X5860Y2381D02*
Y2413D01*
X5765Y2365D02*
X5844D01*
X5860Y2381D01*
X5740Y2388D02*
Y2434D01*
X5716Y2364D02*
X5740Y2388D01*
X5488Y2364D02*
X5716D01*
X5762Y2382D02*
Y2413D01*
X5758Y2382D02*
X5762D01*
X5723Y2347D02*
X5758Y2382D01*
X5552Y2347D02*
X5723D01*
X5595Y2330D02*
X5730D01*
X5765Y2365D01*
X5560Y2295D02*
X5595Y2330D01*
X5560Y2260D02*
Y2295D01*
X5418Y2294D02*
X5488Y2364D01*
X5518Y2313D02*
X5552Y2347D01*
X5518Y2197D02*
X5565Y2150D01*
X5518Y2197D02*
Y2313D01*
X5633Y2202D02*
X5767D01*
X5625Y2210D02*
X5633Y2202D01*
X5605Y2210D02*
X5625D01*
X5767Y2202D02*
X5810Y2245D01*
X5880Y2370D02*
Y2413D01*
X5810Y2300D02*
X5880Y2370D01*
X5708Y2565D02*
X5785D01*
X5708Y2545D02*
X5750D01*
X5765Y2530D01*
X5785D01*
X5708Y2486D02*
X5784D01*
X5418Y2202D02*
X5460Y2160D01*
X5418Y2202D02*
Y2294D01*
X6032Y2585D02*
X6075D01*
X6087Y2573D02*
X6155D01*
X5708Y2467D02*
X5740Y2434D01*
X5810Y2245D02*
Y2300D01*
X6075Y2585D02*
X6087Y2573D01*
X5955Y2565D02*
X6032D01*
X5670Y2486D02*
X5708D01*
X5635Y2451D02*
X5670Y2486D01*
X5567Y2451D02*
X5635D01*
X5560Y2457D02*
X5567Y2451D01*
X5640Y2610D02*
Y2638D01*
Y2610D02*
X5665Y2585D01*
X5708D01*
X5600Y2622D02*
X5657Y2565D01*
X5708D01*
X5655Y2625D02*
Y2670D01*
Y2625D02*
X5675Y2605D01*
X5708D01*
X5600Y2678D02*
X5640Y2638D01*
X5660Y2545D02*
X5708D01*
X5649Y2534D02*
X5660Y2545D01*
X5610Y2534D02*
X5649D01*
X6032Y2565D02*
X6065D01*
X6113Y2517D01*
X6155D01*
X5603Y2722D02*
X5655Y2670D01*
X5515Y2722D02*
X5565D01*
X5603D01*
X5515Y2678D02*
X5565D01*
X5600D01*
X5478Y2778D02*
X5515D01*
X5565D02*
X5602D01*
X5515D02*
X5565D01*
X5515Y2622D02*
X5565D01*
X5600D01*
X6032Y2486D02*
X6084D01*
X6032Y2467D02*
X6078D01*
X5762Y2737D02*
Y2782D01*
X5781Y2737D02*
Y2805D01*
X6413Y2837D02*
X6440Y2810D01*
X6480D01*
X6413Y2837D02*
Y2854D01*
X6440Y2860D02*
X6480D01*
X6393Y2907D02*
X6440Y2860D01*
X5746Y2876D02*
X5777Y2907D01*
X5740Y2805D02*
X5746D01*
X5735Y2810D02*
X5762Y2782D01*
X5746Y2805D02*
Y2876D01*
X6915Y2770D02*
X6949Y2736D01*
X6798Y2770D02*
X6915D01*
X6738Y2710D02*
X6798Y2770D01*
X6165Y4457D02*
Y4500D01*
X6163Y4455D02*
X6165Y4457D01*
X6163Y3905D02*
X6165Y3907D01*
Y3950D01*
X6163Y3355D02*
X6165Y3357D01*
Y3400D01*
X6480Y2505D02*
Y2660D01*
X6550D01*
X6600Y2710D01*
X6555Y2755D02*
X6600Y2710D01*
X5730Y2905D02*
X5749Y2924D01*
X6600Y2710D02*
X6738D01*
X6320Y2810D02*
X6400D01*
X6320Y2760D02*
X6400D01*
X6320Y2660D02*
X6400D01*
X5411Y2870D02*
X5446Y2835D01*
X5464Y2722D02*
X5515D01*
X5411Y2775D02*
X5464Y2722D01*
X5463Y2678D02*
X5515D01*
X5411Y2730D02*
X5463Y2678D01*
X5680Y2765D02*
Y2805D01*
Y2765D02*
X5770Y2675D01*
X5970D01*
X6010Y2715D01*
X6170Y2568D02*
Y2680D01*
X6010Y2210D02*
X6060Y2160D01*
X5980Y2310D02*
X6010Y2280D01*
Y2210D02*
Y2280D01*
X5900Y2345D02*
Y2413D01*
Y2345D02*
X5935Y2310D01*
X5980D01*
X5919Y2353D02*
Y2413D01*
Y2353D02*
X5945Y2327D01*
X5993D01*
X6060Y2260D01*
X6792Y2589D02*
X6852D01*
X6788Y2505D02*
X6850D01*
X6702Y2497D02*
Y2505D01*
Y2577D02*
Y2585D01*
X6665Y2540D02*
X6702Y2577D01*
X6665Y2485D02*
Y2540D01*
X6010Y2715D02*
X6135D01*
X6170Y2680D01*
X6135Y2715D02*
X6171Y2751D01*
Y2821D01*
X6210Y2860D01*
X6320D01*
X5680Y2805D02*
X5720Y2845D01*
Y2855D01*
X5446Y2835D02*
X5650D01*
X5680Y2805D01*
X5650Y2835D02*
X5680Y2865D01*
Y2895D01*
X5726Y2941D01*
X6735Y2763D02*
Y2800D01*
X5995Y3035D02*
X5996Y3036D01*
X5975Y2800D02*
X6005Y2830D01*
X5900Y2737D02*
Y2780D01*
X5919Y2737D02*
Y2775D01*
X5939Y2737D02*
Y2771D01*
X5968Y2800D01*
X5975D01*
X5919Y2775D02*
X5970Y2826D01*
Y2860D01*
X5900Y2780D02*
X5915Y2795D01*
Y2810D01*
X5935Y2830D01*
X5777Y2907D02*
X6393D01*
X5749Y2924D02*
X6506D01*
X6555Y2875D01*
Y2755D02*
Y2875D01*
X5726Y2941D02*
X6514D01*
X6680Y2775D01*
Y2765D02*
Y2775D01*
D24*
X5425Y2395D02*
X5660D01*
X5405Y2415D02*
X5425Y2395D01*
X5405Y2415D02*
Y4611D01*
X6874Y4655D02*
X6930Y4600D01*
X6174Y4655D02*
X6874D01*
X6174D02*
X6210Y4620D01*
X5449Y4655D02*
X6174D01*
X5405Y4611D02*
X5449Y4655D01*
X5917Y4278D02*
X5935Y4260D01*
X5880Y4278D02*
X5917D01*
X5855Y4253D02*
X5880Y4278D01*
X5830Y4253D02*
X5855D01*
X5830D02*
Y4295D01*
X5830Y4295D01*
X5860Y4342D02*
X5880Y4322D01*
X5908D01*
X5930Y4300D01*
X5788Y4398D02*
X5860D01*
X5880Y4378D01*
X5922D01*
X6880Y4345D02*
X6930Y4295D01*
X6455Y4345D02*
X6510Y4290D01*
X6930Y4226D02*
Y4295D01*
X6899Y4195D02*
X6930Y4226D01*
X6510Y4225D02*
Y4290D01*
Y4225D02*
X6540Y4195D01*
X6899D01*
X5411Y4359D02*
X5475Y4295D01*
X5520D02*
X5567Y4342D01*
X5475Y4295D02*
X5520D01*
X5567Y4342D02*
X5860D01*
X6165Y4405D02*
X6167D01*
X6210Y4448D01*
Y4620D01*
X6930Y4295D02*
Y4600D01*
X5908Y3772D02*
X5930Y3750D01*
X5880Y3772D02*
X5908D01*
X5411Y3809D02*
X5475Y3745D01*
X5411Y4068D02*
X5433Y4090D01*
X6190D01*
X6165Y3855D02*
X6167D01*
X6190Y4090D02*
X6210Y4070D01*
X6167Y3855D02*
X6210Y3898D01*
X6455Y3795D02*
X6510Y3740D01*
Y3675D02*
Y3740D01*
X6210Y3898D02*
Y4070D01*
X6510Y3675D02*
X6540Y3645D01*
X6899D01*
X6880Y3795D02*
X6930Y3745D01*
X6190Y4090D02*
X6890D01*
X6930Y4050D01*
Y3676D02*
Y3745D01*
X6899Y3645D02*
X6930Y3676D01*
Y3745D02*
Y4050D01*
X5475Y3745D02*
X5520D01*
X5567Y3792D01*
X5860D01*
X5880Y3772D01*
X5788Y3848D02*
X5860D01*
X5880Y3828D01*
X5922D01*
X5917Y3178D02*
X5935Y3160D01*
X5880Y3178D02*
X5917D01*
X5908Y3222D02*
X5930Y3200D01*
X5880Y3222D02*
X5908D01*
X5411Y3259D02*
X5475Y3195D01*
X6165Y3305D02*
X6167D01*
X6210Y3348D01*
X6455Y3245D02*
X6510Y3190D01*
Y3125D02*
Y3190D01*
X6210Y3348D02*
Y3520D01*
X6510Y3125D02*
X6540Y3095D01*
X6899D01*
X6880Y3245D02*
X6930Y3195D01*
Y3126D02*
Y3195D01*
X6899Y3095D02*
X6930Y3126D01*
Y3195D02*
Y3500D01*
X5475Y3195D02*
X5520D01*
X5567Y3242D01*
X5860D02*
X5880Y3222D01*
X5567Y3242D02*
X5860D01*
X5788Y3298D02*
X5860D01*
X5880Y3278D01*
X5922D01*
X5830Y3153D02*
X5855D01*
X5880Y3178D01*
X5830Y3153D02*
Y3195D01*
X5830Y3195D01*
X5411Y3518D02*
X5433Y3540D01*
X6190D01*
X6210Y3520D01*
X6190Y3540D02*
X6890D01*
X6930Y3500D01*
D25*
X5663Y2526D02*
X5708D01*
X5648Y2511D02*
X5663Y2526D01*
X5568Y2511D02*
X5648D01*
X5565Y2508D02*
X5568Y2511D01*
X5615Y2482D02*
X5641D01*
X5665Y2506D01*
X5708D01*
X5562Y2508D02*
X5565D01*
X5533Y2537D02*
X5562Y2508D01*
X5470Y2537D02*
X5533D01*
X5470Y2460D02*
X5524D01*
X5543Y2479D01*
X5612D01*
X5615Y2482D01*
X5801Y2737D02*
Y2776D01*
X5810Y2785D01*
Y2825D01*
X5780Y2855D02*
X5810Y2825D01*
X5735Y4205D02*
X5790D01*
X5798Y4197D01*
X5830D01*
Y4196D02*
Y4197D01*
X5880Y4222D02*
Y4224D01*
X5735Y4282D02*
X5748D01*
X5806Y4224D01*
X5880D01*
X5830Y4196D02*
X5911D01*
X5936Y4221D01*
X5968D01*
X5880Y4222D02*
X5916D01*
X5934Y4240D01*
X5968D01*
X5935Y4260D02*
X5968D01*
X5950Y4280D02*
X5968D01*
X5930Y4300D02*
X5950Y4280D01*
X6015Y4347D02*
Y4391D01*
X5997Y4409D02*
X6015Y4391D01*
X5996Y4347D02*
Y4375D01*
X6035Y4347D02*
Y4406D01*
X5967Y4439D02*
X5997Y4409D01*
X5947Y4424D02*
X5996Y4375D01*
X5987Y4454D02*
X6035Y4406D01*
X5516Y4454D02*
X5987D01*
X5473Y4439D02*
X5967D01*
X5504Y4424D02*
X5947D01*
X6115Y4463D02*
Y4570D01*
X6105Y4405D02*
Y4453D01*
X6107Y4455D01*
X6115Y4463D01*
X6070Y4405D02*
X6105D01*
X6050Y4425D02*
X6070Y4405D01*
X6715Y4510D02*
X6780Y4445D01*
X6075Y4360D02*
X6090Y4375D01*
X6132D01*
X6145Y4362D01*
X6075Y4347D02*
Y4360D01*
X6780Y4245D02*
X6836Y4301D01*
X6815Y4540D02*
X6836Y4519D01*
Y4301D02*
Y4519D01*
X6821Y4386D02*
Y4509D01*
X6780Y4345D02*
X6821Y4386D01*
X6805Y4525D02*
X6821Y4509D01*
X6122Y4240D02*
X6142D01*
X6122Y4221D02*
X6146D01*
X6170Y4245D01*
X6355D01*
X6142Y4240D02*
X6181Y4280D01*
X6220D01*
X6285Y4345D01*
X6355D01*
X6122Y4300D02*
X6218D01*
X6122Y4319D02*
X6217D01*
X6270Y4372D01*
X6094Y4347D02*
X6223D01*
X6255Y4379D01*
X6145Y4362D02*
X6217D01*
X6240Y4385D01*
X6218Y4300D02*
X6285Y4366D01*
X5475Y4495D02*
X5516Y4454D01*
X5434Y4478D02*
X5473Y4439D01*
X5434Y4554D02*
X5475Y4595D01*
X5434Y4478D02*
Y4554D01*
X5475Y4395D02*
X5504Y4424D01*
X6285Y4366D02*
Y4426D01*
X6304Y4445D01*
X6355D01*
X6270Y4372D02*
Y4435D01*
X6345Y4510D01*
X6715D01*
X6255Y4379D02*
Y4441D01*
X6339Y4525D01*
X6805D01*
X6240Y4385D02*
Y4447D01*
X6333Y4540D01*
X6815D01*
X5735Y3655D02*
X5790D01*
X5798Y3647D02*
X5830D01*
X5790Y3655D02*
X5798Y3647D01*
X5748Y3732D02*
X5806Y3674D01*
X5735Y3732D02*
X5748D01*
X5806Y3674D02*
X5880D01*
Y3672D02*
Y3674D01*
X5475Y3845D02*
X5504Y3874D01*
X5947D01*
X5996Y3825D01*
Y3797D02*
Y3825D01*
X5967Y3889D02*
X5997Y3859D01*
X6015Y3841D01*
X5434Y3928D02*
X5473Y3889D01*
X5434Y4004D02*
X5475Y4045D01*
X5434Y3928D02*
Y4004D01*
X5473Y3889D02*
X5967D01*
X6015Y3797D02*
Y3841D01*
X6050Y3875D02*
X6070Y3855D01*
X6105D01*
X5516Y3904D02*
X5987D01*
X5475Y3945D02*
X5516Y3904D01*
X5987D02*
X6035Y3856D01*
Y3797D02*
Y3856D01*
X6075Y3797D02*
Y3810D01*
X6090Y3825D01*
X6132D02*
X6145Y3812D01*
X6090Y3825D02*
X6132D01*
X6145Y3812D02*
X6217D01*
X6240Y3835D01*
X6780Y3695D02*
X6836Y3751D01*
Y3969D01*
X6240Y3835D02*
Y3897D01*
X6333Y3990D01*
X6815D02*
X6836Y3969D01*
X6333Y3990D02*
X6815D01*
X6094Y3797D02*
X6223D01*
X6255Y3829D01*
Y3891D01*
X6339Y3975D01*
X6780Y3795D02*
X6821Y3836D01*
X6339Y3975D02*
X6805D01*
X6821Y3836D02*
Y3959D01*
X6805Y3975D02*
X6821Y3959D01*
X6122Y3769D02*
X6217D01*
X6270Y3822D01*
Y3885D02*
X6345Y3960D01*
X6270Y3822D02*
Y3885D01*
X6345Y3960D02*
X6715D01*
X6780Y3895D01*
X6122Y3750D02*
X6218D01*
X6285Y3816D01*
Y3876D01*
X6304Y3895D01*
X6355D01*
X6122Y3690D02*
X6142D01*
X6181Y3730D01*
X6220D01*
X6285Y3795D01*
X6355D01*
X6122Y3671D02*
X6146D01*
X6170Y3695D01*
X6355D01*
X5830Y3646D02*
X5911D01*
X5936Y3671D01*
X5968D01*
X5880Y3672D02*
X5916D01*
X5934Y3690D01*
X5968D01*
X5930Y3750D02*
X5950Y3730D01*
X5968D01*
X6107Y3905D02*
X6115Y3913D01*
Y4020D01*
X6105Y3855D02*
Y3903D01*
X6107Y3905D01*
X5830Y3646D02*
Y3647D01*
X5735Y3105D02*
X5790D01*
X5798Y3097D02*
X5830D01*
X5790Y3105D02*
X5798Y3097D01*
X5748Y3182D02*
X5806Y3124D01*
X5735Y3182D02*
X5748D01*
X5806Y3124D02*
X5880D01*
Y3122D02*
Y3124D01*
X5475Y3295D02*
X5504Y3324D01*
X5947D01*
X5996Y3275D01*
Y3247D02*
Y3275D01*
X5967Y3339D02*
X5997Y3309D01*
X6015Y3291D01*
X5434Y3378D02*
X5473Y3339D01*
X5434Y3454D02*
X5475Y3495D01*
X5434Y3378D02*
Y3454D01*
X5473Y3339D02*
X5967D01*
X6015Y3247D02*
Y3291D01*
X6050Y3325D02*
X6070Y3305D01*
X6105D01*
X5516Y3354D02*
X5987D01*
X5475Y3395D02*
X5516Y3354D01*
X5987D02*
X6035Y3306D01*
Y3247D02*
Y3306D01*
X6075Y3247D02*
Y3260D01*
X6090Y3275D01*
X6132D02*
X6145Y3262D01*
X6090Y3275D02*
X6132D01*
X6145Y3262D02*
X6217D01*
X6240Y3285D01*
X6780Y3145D02*
X6836Y3201D01*
Y3419D01*
X6240Y3285D02*
Y3347D01*
X6333Y3440D01*
X6815D02*
X6836Y3419D01*
X6333Y3440D02*
X6815D01*
X6094Y3247D02*
X6223D01*
X6255Y3279D01*
Y3341D01*
X6339Y3425D01*
X6780Y3245D02*
X6821Y3286D01*
X6339Y3425D02*
X6805D01*
X6821Y3286D02*
Y3409D01*
X6805Y3425D02*
X6821Y3409D01*
X6122Y3219D02*
X6217D01*
X6270Y3272D01*
Y3335D02*
X6345Y3410D01*
X6270Y3272D02*
Y3335D01*
X6345Y3410D02*
X6715D01*
X6780Y3345D01*
X6122Y3200D02*
X6218D01*
X6285Y3266D01*
Y3326D01*
X6304Y3345D01*
X6355D01*
X6122Y3140D02*
X6142D01*
X6181Y3180D01*
X6220D01*
X6285Y3245D01*
X6355D01*
X6122Y3121D02*
X6146D01*
X6170Y3145D01*
X6355D01*
X5830Y3096D02*
X5911D01*
X5936Y3121D01*
X5968D01*
X5880Y3122D02*
X5916D01*
X5934Y3140D01*
X5968D01*
X5935Y3160D02*
X5968D01*
X5930Y3200D02*
X5950Y3180D01*
X5968D01*
X6107Y3355D02*
X6115Y3363D01*
Y3470D01*
X6105Y3305D02*
Y3353D01*
X6107Y3355D01*
X5830Y3096D02*
Y3097D01*
X5996Y3036D02*
Y3093D01*
Y3636D02*
Y3643D01*
X5840Y2737D02*
Y2810D01*
X5860Y2737D02*
Y2790D01*
X5865Y2795D01*
Y2845D01*
X5880Y2737D02*
Y2785D01*
X5890Y2795D01*
Y2810D01*
X5860Y2975D02*
X5890D01*
X5925Y3010D02*
X5960D01*
X6015Y3065D02*
Y3093D01*
X5890Y2975D02*
X5900Y2965D01*
X5885Y3010D02*
X5915Y2980D01*
X5960Y3010D02*
X5975Y2995D01*
X5900Y2965D02*
X6020D01*
X6094Y3039D01*
Y3093D01*
X5915Y2980D02*
X6014D01*
X6075Y3041D01*
Y3093D01*
X5975Y2995D02*
X6008D01*
X6025Y3012D01*
Y3055D01*
X6015Y3065D02*
X6025Y3055D01*
X5975Y3615D02*
X5996Y3636D01*
X5915Y3620D02*
X5945Y3590D01*
X5890Y3595D02*
X5910Y3575D01*
X5860D02*
X5877D01*
X5892Y3560D01*
X6030D01*
X6094Y3624D01*
Y3643D01*
X5910Y3575D02*
X6024D01*
X6075Y3626D01*
Y3643D01*
X5945Y3590D02*
X5985D01*
X6015Y3620D01*
Y3643D01*
Y4172D02*
Y4195D01*
X5985Y4142D02*
X6015Y4172D01*
X5945Y4142D02*
X5985D01*
X6075Y4178D02*
Y4195D01*
X6024Y4127D02*
X6075Y4178D01*
X5910Y4127D02*
X6024D01*
X6094Y4176D02*
Y4195D01*
X6030Y4112D02*
X6094Y4176D01*
X5892Y4112D02*
X6030D01*
X5877Y4127D02*
X5892Y4112D01*
X5860Y4127D02*
X5877D01*
X5890Y4147D02*
X5910Y4127D01*
X5915Y4172D02*
X5945Y4142D01*
X5965Y4170D02*
X5985D01*
X5996Y4181D01*
Y4193D01*
D26*
X5723Y4570D02*
X5815D01*
X5685Y4500D02*
Y4532D01*
X5630Y4545D02*
X5698D01*
X5630Y3995D02*
X5698D01*
X5685Y3950D02*
Y3982D01*
X5723Y4020D02*
X5815D01*
X5630Y3445D02*
X5698D01*
X5685Y3400D02*
Y3432D01*
X5723Y3470D02*
X5815D01*
X6938Y2589D02*
Y2648D01*
Y2504D02*
Y2589D01*
Y2444D02*
Y2504D01*
D27*
X6949Y2736D02*
D03*
Y2914D02*
D03*
D28*
X6851Y2687D02*
D03*
Y2963D02*
D03*
D29*
X6060Y2160D02*
D03*
Y2260D02*
D03*
X5960Y2160D02*
D03*
Y2260D02*
D03*
X5860Y2160D02*
D03*
Y2260D02*
D03*
X5760Y2160D02*
D03*
Y2260D02*
D03*
X5660Y2160D02*
D03*
Y2260D02*
D03*
X5560Y2160D02*
D03*
Y2260D02*
D03*
X5460Y2160D02*
D03*
X5475Y4495D02*
D03*
Y4395D02*
D03*
Y4295D02*
D03*
Y4195D02*
D03*
X6455Y4445D02*
D03*
X6355Y4345D02*
D03*
X6455D02*
D03*
X6355Y4245D02*
D03*
X6455D02*
D03*
X6880Y4445D02*
D03*
X6780Y4345D02*
D03*
X6880D02*
D03*
X6780Y4245D02*
D03*
X6880D02*
D03*
Y3895D02*
D03*
X6780Y3795D02*
D03*
X6880D02*
D03*
X6780Y3695D02*
D03*
X6880D02*
D03*
X5475Y3945D02*
D03*
Y3845D02*
D03*
Y3745D02*
D03*
Y3645D02*
D03*
X6455Y3895D02*
D03*
X6355Y3795D02*
D03*
X6455D02*
D03*
X6355Y3695D02*
D03*
X6455D02*
D03*
X6880Y3345D02*
D03*
X6780Y3245D02*
D03*
X6880D02*
D03*
X6780Y3145D02*
D03*
X6880D02*
D03*
X5475Y3395D02*
D03*
Y3295D02*
D03*
Y3195D02*
D03*
Y3095D02*
D03*
X6455Y3345D02*
D03*
X6355Y3245D02*
D03*
X6455D02*
D03*
X6355Y3145D02*
D03*
X6455D02*
D03*
X6480Y2505D02*
D03*
D30*
X5460Y2260D02*
D03*
X6380Y2505D02*
D03*
D31*
X5475Y4595D02*
D03*
X6355Y4445D02*
D03*
X6780D02*
D03*
Y3895D02*
D03*
X5475Y4045D02*
D03*
X6355Y3895D02*
D03*
X6780Y3345D02*
D03*
X5475Y3495D02*
D03*
X6355Y3345D02*
D03*
D32*
X6955Y2800D02*
D03*
X6850D02*
D03*
X6615Y2895D02*
D03*
X6225Y3045D02*
D03*
X6410D02*
D03*
X6835Y3040D02*
D03*
X6615Y3045D02*
D03*
X6230Y4140D02*
D03*
X6405D02*
D03*
X6830Y4145D02*
D03*
X6615D02*
D03*
X6220Y3595D02*
D03*
X6400D02*
D03*
X6840D02*
D03*
X6615D02*
D03*
X6895Y2450D02*
D03*
X6775D02*
D03*
X6275Y2375D02*
D03*
X6400D02*
D03*
X6525D02*
D03*
X6650D02*
D03*
X6775D02*
D03*
X6900D02*
D03*
X7020D02*
D03*
Y2455D02*
D03*
X6630Y2530D02*
D03*
X6565Y2450D02*
D03*
X6645Y2610D02*
D03*
X6515D02*
D03*
X6440D02*
D03*
X6295D02*
D03*
X6210D02*
D03*
X6295Y2450D02*
D03*
X6210D02*
D03*
X6295Y2530D02*
D03*
X6210D02*
D03*
X6830Y3485D02*
D03*
X6615D02*
D03*
X6305Y3490D02*
D03*
X6245Y3400D02*
D03*
X6615Y3140D02*
D03*
Y3245D02*
D03*
Y3345D02*
D03*
X6825Y4595D02*
D03*
X6615D02*
D03*
X6295D02*
D03*
X6245Y4500D02*
D03*
X6615Y4240D02*
D03*
Y4345D02*
D03*
Y4445D02*
D03*
X6825Y4040D02*
D03*
X6615D02*
D03*
X6290D02*
D03*
X6245Y3950D02*
D03*
X6615Y3690D02*
D03*
Y3795D02*
D03*
Y3895D02*
D03*
X7020Y3075D02*
D03*
Y3200D02*
D03*
Y3325D02*
D03*
Y3450D02*
D03*
Y3600D02*
D03*
Y3725D02*
D03*
Y3875D02*
D03*
Y4000D02*
D03*
Y4125D02*
D03*
Y4250D02*
D03*
Y4375D02*
D03*
Y4500D02*
D03*
Y4625D02*
D03*
X5975Y2355D02*
D03*
X6075Y2330D02*
D03*
X6120Y2375D02*
D03*
X6015Y2420D02*
D03*
Y2120D02*
D03*
X5510D02*
D03*
X5610D02*
D03*
X5710D02*
D03*
X5610Y2300D02*
D03*
X5790Y2335D02*
D03*
X5880Y2325D02*
D03*
X5915Y2205D02*
D03*
X5810D02*
D03*
X6020Y3415D02*
D03*
Y3500D02*
D03*
Y3965D02*
D03*
Y4050D02*
D03*
X6015Y4515D02*
D03*
Y4620D02*
D03*
X5922Y4378D02*
D03*
X5788Y4398D02*
D03*
X5815Y4570D02*
D03*
X5630Y4545D02*
D03*
X5685Y4500D02*
D03*
X5630Y3995D02*
D03*
X5685Y3950D02*
D03*
X5815Y4020D02*
D03*
X5788Y3848D02*
D03*
X5922Y3828D02*
D03*
X5630Y3445D02*
D03*
X5685Y3400D02*
D03*
X5815Y3470D02*
D03*
X5788Y3298D02*
D03*
X5922Y3278D02*
D03*
X6938Y2648D02*
D03*
D33*
X5785Y2485D02*
D03*
Y2530D02*
D03*
Y2565D02*
D03*
X5605Y2210D02*
D03*
X5955Y2565D02*
D03*
X5478Y2778D02*
D03*
X5602D02*
D03*
X5781Y2805D02*
D03*
X5997Y4409D02*
D03*
X6050Y4425D02*
D03*
X6165Y4500D02*
D03*
X5997Y3859D02*
D03*
X6050Y3875D02*
D03*
X6165Y3950D02*
D03*
X5997Y3309D02*
D03*
X6050Y3325D02*
D03*
X6165Y3400D02*
D03*
X5660Y2395D02*
D03*
X5730Y2905D02*
D03*
X6400Y2810D02*
D03*
Y2760D02*
D03*
Y2660D02*
D03*
X6735Y2800D02*
D03*
X6005Y2830D02*
D03*
X5995Y3035D02*
D03*
X5970Y2860D02*
D03*
X5935Y2830D02*
D03*
X5975Y3615D02*
D03*
X5840Y2810D02*
D03*
X5860Y2975D02*
D03*
X5885Y3010D02*
D03*
X5865Y2845D02*
D03*
X5890Y2810D02*
D03*
X5925Y3010D02*
D03*
X5915Y3620D02*
D03*
X5890Y3595D02*
D03*
X5860Y3575D02*
D03*
Y4127D02*
D03*
X5890Y4147D02*
D03*
X5915Y4172D02*
D03*
X5965Y4170D02*
D03*
D34*
X6067Y4248D02*
D03*
X6023D02*
D03*
X6067Y4292D02*
D03*
X6023D02*
D03*
X6067Y3698D02*
D03*
X6023D02*
D03*
X6067Y3742D02*
D03*
X6023D02*
D03*
X6067Y3148D02*
D03*
X6023D02*
D03*
X6067Y3192D02*
D03*
X6023D02*
D03*
M02*
