%FSLAX23Y23*%
%MOIN*%
G70*
G01*
G75*
G04 Layer_Color=65535*
%ADD10O,0.063X0.012*%
%ADD11O,0.012X0.063*%
%ADD12R,0.035X0.031*%
%ADD13R,0.075X0.043*%
%ADD14R,0.110X0.030*%
%ADD15R,0.039X0.059*%
%ADD16R,0.035X0.028*%
%ADD17R,0.028X0.035*%
%ADD18R,0.100X0.100*%
%ADD19O,0.010X0.030*%
%ADD20O,0.030X0.010*%
%ADD21R,0.031X0.035*%
%ADD22R,0.132X0.085*%
%ADD23C,0.010*%
%ADD24C,0.015*%
%ADD25C,0.008*%
%ADD26C,0.025*%
G04:AMPARAMS|DCode=27|XSize=70mil|YSize=70mil|CornerRadius=0mil|HoleSize=0mil|Usage=FLASHONLY|Rotation=90.000|XOffset=0mil|YOffset=0mil|HoleType=Round|Shape=Octagon|*
%AMOCTAGOND27*
4,1,8,0.018,0.035,-0.018,0.035,-0.035,0.018,-0.035,-0.018,-0.018,-0.035,0.018,-0.035,0.035,-0.018,0.035,0.018,0.018,0.035,0.0*
%
%ADD27OCTAGOND27*%

%ADD28C,0.100*%
%ADD29C,0.059*%
%ADD30R,0.059X0.059*%
%ADD31R,0.059X0.059*%
%ADD32C,0.030*%
%ADD33C,0.025*%
%ADD34C,0.020*%
%ADD35C,0.010*%
%ADD36C,0.024*%
%ADD37C,0.010*%
%ADD38C,0.006*%
%ADD39C,0.008*%
%ADD40C,0.005*%
G36*
X6454Y3507D02*
X6481Y3460D01*
X6457D01*
X6440Y3492D01*
X6422Y3460D01*
X6403D01*
X6430Y3507D01*
X6406Y3548D01*
X6430D01*
X6444Y3521D01*
X6459Y3548D01*
X6478D01*
X6454Y3507D01*
D02*
G37*
G36*
X6261D02*
X6289Y3460D01*
X6265D01*
X6247Y3492D01*
X6229Y3460D01*
X6210D01*
X6237Y3507D01*
X6213Y3548D01*
X6237D01*
X6252Y3521D01*
X6266Y3548D01*
X6286D01*
X6261Y3507D01*
D02*
G37*
G36*
X6511Y3460D02*
X6491D01*
Y3548D01*
X6511D01*
Y3460D01*
D02*
G37*
G36*
X6559Y3549D02*
X6561Y3549D01*
X6563Y3549D01*
X6565Y3548D01*
X6568Y3548D01*
X6570Y3547D01*
X6573Y3546D01*
X6576Y3544D01*
X6579Y3543D01*
X6582Y3541D01*
X6584Y3538D01*
X6586Y3536D01*
X6588Y3532D01*
X6590Y3529D01*
X6572Y3523D01*
Y3523D01*
X6572Y3523D01*
X6572Y3524D01*
X6572Y3524D01*
X6570Y3526D01*
X6569Y3528D01*
X6568Y3529D01*
X6567Y3530D01*
X6566Y3531D01*
X6564Y3532D01*
X6563Y3532D01*
X6561Y3533D01*
X6559Y3533D01*
X6557Y3533D01*
X6556D01*
X6555Y3533D01*
X6554Y3533D01*
X6553Y3533D01*
X6551Y3532D01*
X6549Y3531D01*
X6548Y3531D01*
X6547Y3530D01*
X6546Y3529D01*
X6545Y3528D01*
X6545Y3527D01*
X6545Y3525D01*
Y3525D01*
Y3525D01*
X6545Y3524D01*
X6545Y3523D01*
X6545Y3523D01*
X6546Y3522D01*
X6546Y3521D01*
X6547Y3520D01*
X6547Y3520D01*
X6548Y3520D01*
X6548Y3519D01*
X6549Y3519D01*
X6551Y3518D01*
X6553Y3517D01*
X6555Y3517D01*
X6558Y3516D01*
X6558D01*
X6558Y3516D01*
X6559Y3516D01*
X6560Y3516D01*
X6561Y3515D01*
X6562Y3515D01*
X6565Y3514D01*
X6568Y3513D01*
X6572Y3513D01*
X6575Y3511D01*
X6576Y3511D01*
X6577Y3511D01*
X6577D01*
X6578Y3510D01*
X6578Y3510D01*
X6579Y3509D01*
X6581Y3508D01*
X6583Y3507D01*
X6584Y3506D01*
X6586Y3504D01*
X6588Y3502D01*
X6588Y3501D01*
X6589Y3500D01*
X6589Y3499D01*
X6590Y3497D01*
X6591Y3496D01*
X6592Y3493D01*
X6592Y3491D01*
X6592Y3488D01*
Y3488D01*
Y3487D01*
Y3487D01*
X6592Y3486D01*
X6592Y3485D01*
X6592Y3484D01*
X6591Y3482D01*
X6591Y3481D01*
X6590Y3478D01*
X6589Y3476D01*
X6588Y3474D01*
X6587Y3472D01*
X6586Y3471D01*
X6585Y3469D01*
X6583Y3467D01*
X6583Y3467D01*
X6583Y3467D01*
X6582Y3466D01*
X6581Y3466D01*
X6580Y3465D01*
X6579Y3464D01*
X6578Y3464D01*
X6576Y3463D01*
X6574Y3462D01*
X6572Y3461D01*
X6570Y3461D01*
X6568Y3460D01*
X6565Y3459D01*
X6562Y3459D01*
X6559Y3459D01*
X6556Y3459D01*
X6554D01*
X6553Y3459D01*
X6552D01*
X6551Y3459D01*
X6549Y3459D01*
X6548Y3459D01*
X6544Y3460D01*
X6540Y3461D01*
X6536Y3463D01*
X6534Y3464D01*
X6533Y3465D01*
X6532Y3465D01*
X6532Y3465D01*
X6532Y3465D01*
X6531Y3466D01*
X6530Y3467D01*
X6529Y3467D01*
X6528Y3468D01*
X6527Y3469D01*
X6526Y3471D01*
X6525Y3472D01*
X6524Y3473D01*
X6523Y3475D01*
X6522Y3477D01*
X6521Y3479D01*
X6521Y3481D01*
X6520Y3483D01*
X6539Y3487D01*
Y3487D01*
X6539Y3487D01*
X6540Y3486D01*
X6540Y3485D01*
X6540Y3485D01*
X6541Y3483D01*
X6542Y3482D01*
X6543Y3481D01*
X6544Y3480D01*
X6545Y3479D01*
X6546Y3478D01*
X6548Y3477D01*
X6550Y3476D01*
X6552Y3476D01*
X6555Y3475D01*
X6557Y3475D01*
X6558D01*
X6559Y3475D01*
X6561Y3475D01*
X6563Y3476D01*
X6565Y3476D01*
X6566Y3477D01*
X6568Y3478D01*
X6568Y3478D01*
X6568Y3478D01*
X6569Y3479D01*
X6569Y3480D01*
X6570Y3481D01*
X6571Y3482D01*
X6571Y3483D01*
X6571Y3484D01*
Y3484D01*
Y3485D01*
X6571Y3486D01*
X6571Y3487D01*
X6570Y3487D01*
X6570Y3488D01*
X6569Y3489D01*
X6568Y3490D01*
X6568Y3490D01*
X6567Y3491D01*
X6567Y3491D01*
X6565Y3492D01*
X6564Y3492D01*
X6562Y3493D01*
X6559Y3494D01*
X6556Y3494D01*
X6556D01*
X6555Y3494D01*
X6554Y3495D01*
X6553Y3495D01*
X6552Y3495D01*
X6550Y3496D01*
X6548Y3496D01*
X6547Y3497D01*
X6543Y3498D01*
X6539Y3500D01*
X6537Y3501D01*
X6535Y3502D01*
X6533Y3503D01*
X6532Y3504D01*
X6532Y3504D01*
X6531Y3504D01*
X6531Y3504D01*
X6531Y3505D01*
X6530Y3506D01*
X6530Y3506D01*
X6528Y3508D01*
X6527Y3511D01*
X6526Y3514D01*
X6525Y3517D01*
X6525Y3519D01*
X6525Y3521D01*
Y3522D01*
Y3522D01*
Y3523D01*
X6525Y3523D01*
X6525Y3524D01*
X6525Y3526D01*
X6525Y3527D01*
X6526Y3528D01*
X6527Y3531D01*
X6527Y3533D01*
X6528Y3535D01*
X6529Y3536D01*
X6530Y3538D01*
X6532Y3540D01*
X6533Y3541D01*
X6533Y3541D01*
X6534Y3542D01*
X6534Y3542D01*
X6535Y3542D01*
X6536Y3543D01*
X6537Y3544D01*
X6538Y3545D01*
X6539Y3545D01*
X6541Y3546D01*
X6543Y3547D01*
X6545Y3547D01*
X6547Y3548D01*
X6549Y3549D01*
X6551Y3549D01*
X6554Y3549D01*
X6556Y3549D01*
X6558D01*
X6559Y3549D01*
D02*
G37*
G36*
X6932Y3460D02*
X6912D01*
Y3548D01*
X6932D01*
Y3460D01*
D02*
G37*
G36*
X6823D02*
X6801D01*
X6795Y3478D01*
X6767D01*
X6761Y3460D01*
X6743D01*
X6771Y3548D01*
X6795D01*
X6823Y3460D01*
D02*
G37*
G36*
X6710D02*
X6687D01*
X6682Y3478D01*
X6654D01*
X6648Y3460D01*
X6630D01*
X6658Y3548D01*
X6682D01*
X6710Y3460D01*
D02*
G37*
G36*
X5601Y3720D02*
X5590D01*
X5577Y3764D01*
X5588D01*
X5597Y3732D01*
X5606Y3764D01*
X5615D01*
X5601Y3720D01*
D02*
G37*
G36*
X5634Y3765D02*
X5635D01*
X5635Y3765D01*
X5636Y3764D01*
X5637Y3764D01*
X5639Y3764D01*
X5640Y3763D01*
X5642Y3763D01*
X5643Y3762D01*
X5644Y3762D01*
X5644Y3761D01*
X5644Y3761D01*
X5644Y3761D01*
X5645Y3761D01*
X5645Y3761D01*
X5645Y3760D01*
X5646Y3759D01*
X5647Y3758D01*
X5648Y3757D01*
X5648Y3756D01*
X5648Y3755D01*
X5649Y3754D01*
X5649Y3753D01*
Y3753D01*
Y3752D01*
X5649Y3752D01*
X5648Y3752D01*
X5648Y3751D01*
X5648Y3750D01*
X5648Y3750D01*
X5648Y3749D01*
X5647Y3748D01*
X5647Y3747D01*
X5646Y3746D01*
X5645Y3746D01*
X5645Y3745D01*
X5644Y3744D01*
X5642Y3744D01*
X5641Y3743D01*
X5641D01*
X5641Y3743D01*
X5642Y3743D01*
X5642Y3742D01*
X5643Y3742D01*
X5644Y3742D01*
X5645Y3741D01*
X5645Y3741D01*
X5646Y3740D01*
X5647Y3739D01*
X5648Y3739D01*
X5649Y3738D01*
X5649Y3737D01*
X5650Y3735D01*
X5650Y3734D01*
X5650Y3733D01*
Y3732D01*
Y3732D01*
Y3732D01*
X5650Y3732D01*
X5650Y3731D01*
X5650Y3731D01*
X5649Y3729D01*
X5649Y3728D01*
X5648Y3727D01*
X5648Y3726D01*
X5648Y3725D01*
X5647Y3724D01*
X5646Y3724D01*
X5645Y3723D01*
X5645Y3723D01*
X5645Y3723D01*
X5645Y3723D01*
X5645Y3722D01*
X5644Y3722D01*
X5643Y3722D01*
X5643Y3721D01*
X5642Y3721D01*
X5641Y3721D01*
X5640Y3720D01*
X5639Y3720D01*
X5638Y3720D01*
X5637Y3720D01*
X5636Y3719D01*
X5634Y3719D01*
X5633Y3719D01*
X5632D01*
X5632Y3719D01*
X5631Y3719D01*
X5630Y3720D01*
X5629Y3720D01*
X5628Y3720D01*
X5627Y3720D01*
X5625Y3721D01*
X5624Y3721D01*
X5623Y3722D01*
X5622Y3722D01*
X5621Y3723D01*
X5621Y3723D01*
X5621Y3723D01*
X5620Y3724D01*
X5620Y3724D01*
X5620Y3724D01*
X5619Y3725D01*
X5619Y3725D01*
X5618Y3726D01*
X5618Y3727D01*
X5617Y3729D01*
X5616Y3731D01*
X5616Y3732D01*
X5615Y3733D01*
X5625Y3734D01*
Y3734D01*
X5625Y3734D01*
X5625Y3733D01*
X5625Y3733D01*
X5625Y3732D01*
X5626Y3732D01*
X5626Y3731D01*
X5626Y3731D01*
X5627Y3730D01*
X5627Y3729D01*
X5628Y3729D01*
X5629Y3728D01*
X5630Y3728D01*
X5630Y3727D01*
X5631Y3727D01*
X5633Y3727D01*
X5633D01*
X5634Y3727D01*
X5634Y3727D01*
X5635Y3728D01*
X5636Y3728D01*
X5637Y3728D01*
X5638Y3729D01*
X5638Y3729D01*
X5638Y3729D01*
X5638Y3729D01*
X5638Y3730D01*
X5639Y3731D01*
X5639Y3731D01*
X5639Y3732D01*
X5639Y3733D01*
Y3733D01*
Y3734D01*
X5639Y3734D01*
X5639Y3735D01*
X5639Y3735D01*
X5639Y3736D01*
X5638Y3737D01*
X5638Y3737D01*
X5638Y3737D01*
X5637Y3738D01*
X5637Y3738D01*
X5636Y3738D01*
X5635Y3738D01*
X5634Y3739D01*
X5633Y3739D01*
X5632Y3739D01*
X5627D01*
Y3747D01*
X5632D01*
X5633Y3747D01*
X5634Y3747D01*
X5635Y3747D01*
X5636Y3747D01*
X5636Y3748D01*
X5637Y3748D01*
X5637Y3748D01*
X5637Y3748D01*
X5638Y3749D01*
X5638Y3749D01*
X5638Y3750D01*
X5638Y3750D01*
X5638Y3751D01*
X5639Y3752D01*
Y3752D01*
Y3752D01*
X5638Y3752D01*
X5638Y3753D01*
X5638Y3754D01*
X5638Y3754D01*
X5638Y3755D01*
X5637Y3755D01*
X5637Y3756D01*
X5637Y3756D01*
X5636Y3756D01*
X5636Y3756D01*
X5635Y3757D01*
X5634Y3757D01*
X5634Y3757D01*
X5633Y3757D01*
X5632D01*
X5632Y3757D01*
X5632D01*
X5631Y3757D01*
X5631Y3757D01*
X5630Y3756D01*
X5629Y3756D01*
X5629Y3756D01*
X5628Y3755D01*
X5628Y3755D01*
X5627Y3754D01*
X5627Y3753D01*
X5626Y3752D01*
X5626Y3751D01*
X5617Y3753D01*
Y3753D01*
X5617Y3753D01*
X5617Y3753D01*
X5617Y3754D01*
X5617Y3754D01*
X5617Y3755D01*
X5618Y3756D01*
X5619Y3757D01*
X5620Y3759D01*
X5621Y3760D01*
X5621Y3761D01*
X5622Y3761D01*
X5622Y3761D01*
X5622Y3761D01*
X5623Y3762D01*
X5623Y3762D01*
X5623Y3762D01*
X5624Y3762D01*
X5624Y3763D01*
X5625Y3763D01*
X5626Y3763D01*
X5627Y3764D01*
X5629Y3764D01*
X5631Y3765D01*
X5632Y3765D01*
X5633Y3765D01*
X5633D01*
X5634Y3765D01*
D02*
G37*
G36*
X5559D02*
X5559D01*
X5560Y3765D01*
X5561Y3764D01*
X5561Y3764D01*
X5563Y3764D01*
X5565Y3763D01*
X5567Y3763D01*
X5568Y3762D01*
X5569Y3762D01*
X5569Y3761D01*
X5569Y3761D01*
X5569Y3761D01*
X5569Y3761D01*
X5570Y3761D01*
X5570Y3760D01*
X5571Y3759D01*
X5572Y3758D01*
X5572Y3757D01*
X5573Y3756D01*
X5573Y3755D01*
X5573Y3754D01*
X5573Y3753D01*
Y3753D01*
Y3752D01*
X5573Y3752D01*
X5573Y3752D01*
X5573Y3751D01*
X5573Y3750D01*
X5573Y3750D01*
X5572Y3749D01*
X5572Y3748D01*
X5571Y3747D01*
X5571Y3746D01*
X5570Y3746D01*
X5569Y3745D01*
X5568Y3744D01*
X5567Y3744D01*
X5566Y3743D01*
X5566D01*
X5566Y3743D01*
X5566Y3743D01*
X5567Y3742D01*
X5568Y3742D01*
X5568Y3742D01*
X5569Y3741D01*
X5570Y3741D01*
X5571Y3740D01*
X5572Y3739D01*
X5572Y3739D01*
X5573Y3738D01*
X5574Y3737D01*
X5574Y3735D01*
X5574Y3734D01*
X5574Y3733D01*
Y3732D01*
Y3732D01*
Y3732D01*
X5574Y3732D01*
X5574Y3731D01*
X5574Y3731D01*
X5574Y3729D01*
X5573Y3728D01*
X5573Y3727D01*
X5573Y3726D01*
X5572Y3725D01*
X5571Y3724D01*
X5571Y3724D01*
X5570Y3723D01*
X5570Y3723D01*
X5570Y3723D01*
X5569Y3723D01*
X5569Y3722D01*
X5569Y3722D01*
X5568Y3722D01*
X5567Y3721D01*
X5567Y3721D01*
X5566Y3721D01*
X5565Y3720D01*
X5564Y3720D01*
X5563Y3720D01*
X5562Y3720D01*
X5560Y3719D01*
X5559Y3719D01*
X5557Y3719D01*
X5557D01*
X5556Y3719D01*
X5556Y3719D01*
X5555Y3720D01*
X5554Y3720D01*
X5553Y3720D01*
X5551Y3720D01*
X5549Y3721D01*
X5548Y3721D01*
X5547Y3722D01*
X5546Y3722D01*
X5545Y3723D01*
X5545Y3723D01*
X5545Y3723D01*
X5545Y3724D01*
X5545Y3724D01*
X5544Y3724D01*
X5544Y3725D01*
X5543Y3725D01*
X5543Y3726D01*
X5542Y3727D01*
X5541Y3729D01*
X5540Y3731D01*
X5540Y3732D01*
X5540Y3733D01*
X5549Y3734D01*
Y3734D01*
X5549Y3734D01*
X5550Y3733D01*
X5550Y3733D01*
X5550Y3732D01*
X5550Y3732D01*
X5550Y3731D01*
X5551Y3731D01*
X5551Y3730D01*
X5552Y3729D01*
X5552Y3729D01*
X5553Y3728D01*
X5554Y3728D01*
X5555Y3727D01*
X5556Y3727D01*
X5557Y3727D01*
X5558D01*
X5558Y3727D01*
X5559Y3727D01*
X5560Y3728D01*
X5561Y3728D01*
X5561Y3728D01*
X5562Y3729D01*
X5562Y3729D01*
X5562Y3729D01*
X5563Y3729D01*
X5563Y3730D01*
X5563Y3731D01*
X5564Y3731D01*
X5564Y3732D01*
X5564Y3733D01*
Y3733D01*
Y3734D01*
X5564Y3734D01*
X5564Y3735D01*
X5564Y3735D01*
X5563Y3736D01*
X5563Y3737D01*
X5562Y3737D01*
X5562Y3737D01*
X5562Y3738D01*
X5561Y3738D01*
X5561Y3738D01*
X5560Y3738D01*
X5559Y3739D01*
X5557Y3739D01*
X5557Y3739D01*
X5552D01*
Y3747D01*
X5557D01*
X5558Y3747D01*
X5558Y3747D01*
X5559Y3747D01*
X5560Y3747D01*
X5561Y3748D01*
X5562Y3748D01*
X5562Y3748D01*
X5562Y3748D01*
X5562Y3749D01*
X5562Y3749D01*
X5563Y3750D01*
X5563Y3750D01*
X5563Y3751D01*
X5563Y3752D01*
Y3752D01*
Y3752D01*
X5563Y3752D01*
X5563Y3753D01*
X5563Y3754D01*
X5562Y3754D01*
X5562Y3755D01*
X5562Y3755D01*
X5561Y3756D01*
X5561Y3756D01*
X5561Y3756D01*
X5560Y3756D01*
X5560Y3757D01*
X5559Y3757D01*
X5558Y3757D01*
X5557Y3757D01*
X5557D01*
X5557Y3757D01*
X5556D01*
X5556Y3757D01*
X5555Y3757D01*
X5554Y3756D01*
X5554Y3756D01*
X5553Y3756D01*
X5553Y3755D01*
X5552Y3755D01*
X5552Y3754D01*
X5551Y3753D01*
X5551Y3752D01*
X5550Y3751D01*
X5541Y3753D01*
Y3753D01*
X5541Y3753D01*
X5541Y3753D01*
X5542Y3754D01*
X5542Y3754D01*
X5542Y3755D01*
X5542Y3756D01*
X5543Y3757D01*
X5544Y3759D01*
X5545Y3760D01*
X5546Y3761D01*
X5547Y3761D01*
X5547Y3761D01*
X5547Y3761D01*
X5547Y3762D01*
X5547Y3762D01*
X5548Y3762D01*
X5548Y3762D01*
X5549Y3763D01*
X5550Y3763D01*
X5550Y3763D01*
X5551Y3764D01*
X5553Y3764D01*
X5555Y3765D01*
X5556Y3765D01*
X5557Y3765D01*
X5558D01*
X5559Y3765D01*
D02*
G37*
G36*
X5643Y3669D02*
X5643Y3669D01*
X5644Y3669D01*
X5645Y3669D01*
X5647Y3669D01*
X5649Y3668D01*
X5651Y3668D01*
X5652Y3667D01*
X5653Y3667D01*
X5653D01*
X5653Y3667D01*
X5653Y3667D01*
X5654Y3666D01*
X5654Y3666D01*
X5655Y3665D01*
X5656Y3664D01*
X5658Y3663D01*
X5659Y3661D01*
X5660Y3660D01*
X5660Y3659D01*
X5660Y3659D01*
X5660Y3659D01*
X5661Y3659D01*
X5661Y3658D01*
X5661Y3658D01*
X5661Y3657D01*
X5662Y3656D01*
X5662Y3655D01*
X5662Y3654D01*
X5663Y3653D01*
X5663Y3652D01*
X5663Y3651D01*
X5663Y3650D01*
X5663Y3649D01*
Y3647D01*
Y3647D01*
Y3647D01*
X5663Y3646D01*
Y3646D01*
X5663Y3645D01*
X5663Y3644D01*
X5663Y3643D01*
X5663Y3642D01*
X5662Y3640D01*
X5662Y3639D01*
X5662Y3638D01*
X5661Y3636D01*
X5660Y3635D01*
X5660Y3634D01*
X5659Y3633D01*
X5658Y3631D01*
X5658Y3631D01*
X5657Y3631D01*
X5657Y3631D01*
X5657Y3630D01*
X5656Y3630D01*
X5655Y3629D01*
X5655Y3629D01*
X5654Y3628D01*
X5653Y3628D01*
X5652Y3627D01*
X5650Y3626D01*
X5649Y3626D01*
X5647Y3626D01*
X5646Y3625D01*
X5644Y3625D01*
X5642Y3625D01*
X5627D01*
Y3669D01*
X5642D01*
X5643Y3669D01*
D02*
G37*
G36*
X6402Y3460D02*
X6380D01*
X6374Y3478D01*
X6346D01*
X6340Y3460D01*
X6322D01*
X6350Y3548D01*
X6374D01*
X6402Y3460D01*
D02*
G37*
G36*
X5560Y3670D02*
X5561Y3670D01*
X5562Y3669D01*
X5562Y3669D01*
X5563Y3669D01*
X5565Y3669D01*
X5566Y3668D01*
X5567Y3668D01*
X5568Y3667D01*
X5569Y3667D01*
X5570Y3666D01*
X5571Y3666D01*
X5571Y3665D01*
X5571Y3665D01*
X5571Y3665D01*
X5572Y3665D01*
X5572Y3664D01*
X5572Y3664D01*
X5573Y3663D01*
X5573Y3663D01*
X5574Y3662D01*
X5574Y3661D01*
X5575Y3660D01*
X5575Y3659D01*
X5576Y3658D01*
X5576Y3657D01*
X5576Y3656D01*
X5576Y3654D01*
X5567Y3653D01*
Y3653D01*
X5567Y3654D01*
X5567Y3654D01*
X5566Y3654D01*
X5566Y3655D01*
X5566Y3656D01*
X5566Y3657D01*
X5565Y3657D01*
X5565Y3658D01*
X5564Y3659D01*
X5564Y3659D01*
X5563Y3660D01*
X5562Y3661D01*
X5561Y3661D01*
X5560Y3661D01*
X5559Y3661D01*
X5559D01*
X5558Y3661D01*
X5558Y3661D01*
X5557Y3661D01*
X5556Y3660D01*
X5555Y3660D01*
X5554Y3659D01*
X5554Y3659D01*
X5553Y3658D01*
X5553Y3657D01*
Y3657D01*
X5553Y3657D01*
X5552Y3657D01*
X5552Y3657D01*
X5552Y3656D01*
X5552Y3656D01*
X5552Y3655D01*
X5552Y3655D01*
X5551Y3654D01*
X5551Y3653D01*
X5551Y3652D01*
X5551Y3651D01*
X5551Y3650D01*
X5551Y3649D01*
X5551Y3648D01*
Y3647D01*
Y3647D01*
Y3646D01*
Y3646D01*
X5551Y3646D01*
Y3645D01*
X5551Y3644D01*
X5551Y3644D01*
X5551Y3643D01*
X5551Y3641D01*
X5552Y3639D01*
X5552Y3638D01*
X5552Y3637D01*
X5553Y3636D01*
Y3636D01*
X5553Y3636D01*
X5553Y3636D01*
X5554Y3635D01*
X5555Y3635D01*
X5555Y3634D01*
X5557Y3633D01*
X5558Y3633D01*
X5559Y3633D01*
X5560Y3633D01*
X5560D01*
X5560Y3633D01*
X5561Y3633D01*
X5562Y3633D01*
X5563Y3633D01*
X5564Y3634D01*
X5564Y3634D01*
X5564Y3635D01*
X5565Y3635D01*
X5565Y3635D01*
X5566Y3636D01*
X5566Y3637D01*
X5566Y3638D01*
X5567Y3639D01*
X5567Y3640D01*
X5558D01*
Y3649D01*
X5576D01*
Y3625D01*
X5572D01*
Y3625D01*
X5572Y3625D01*
X5572Y3626D01*
X5571Y3627D01*
X5571Y3627D01*
X5571Y3628D01*
X5570Y3630D01*
X5570Y3630D01*
X5570Y3630D01*
X5570Y3629D01*
X5569Y3629D01*
X5569Y3629D01*
X5568Y3628D01*
X5568Y3628D01*
X5567Y3627D01*
X5566Y3627D01*
X5565Y3626D01*
X5564Y3626D01*
X5563Y3625D01*
X5562Y3625D01*
X5561Y3625D01*
X5560Y3624D01*
X5558Y3624D01*
X5558D01*
X5557Y3624D01*
X5557D01*
X5556Y3625D01*
X5555Y3625D01*
X5554Y3625D01*
X5553Y3625D01*
X5552Y3625D01*
X5551Y3626D01*
X5550Y3626D01*
X5549Y3627D01*
X5548Y3628D01*
X5547Y3628D01*
X5546Y3629D01*
X5545Y3630D01*
X5545Y3630D01*
X5545Y3631D01*
X5544Y3631D01*
X5544Y3632D01*
X5544Y3632D01*
X5543Y3633D01*
X5543Y3634D01*
X5542Y3635D01*
X5542Y3636D01*
X5542Y3637D01*
X5541Y3638D01*
X5541Y3640D01*
X5540Y3641D01*
X5540Y3643D01*
X5540Y3645D01*
X5540Y3646D01*
Y3647D01*
Y3647D01*
X5540Y3647D01*
Y3648D01*
X5540Y3649D01*
X5540Y3650D01*
X5540Y3651D01*
X5541Y3652D01*
X5541Y3654D01*
X5541Y3655D01*
X5542Y3657D01*
X5542Y3658D01*
X5543Y3659D01*
X5543Y3661D01*
X5544Y3662D01*
X5545Y3663D01*
X5545Y3663D01*
X5545Y3664D01*
X5546Y3664D01*
X5546Y3664D01*
X5547Y3665D01*
X5547Y3665D01*
X5548Y3666D01*
X5549Y3667D01*
X5550Y3667D01*
X5551Y3668D01*
X5552Y3668D01*
X5553Y3669D01*
X5554Y3669D01*
X5556Y3669D01*
X5557Y3670D01*
X5559Y3670D01*
X5560D01*
X5560Y3670D01*
D02*
G37*
G36*
X5618Y3625D02*
X5609D01*
X5592Y3655D01*
Y3655D01*
Y3654D01*
Y3654D01*
Y3654D01*
X5592Y3653D01*
Y3653D01*
Y3653D01*
Y3653D01*
X5593Y3653D01*
Y3653D01*
X5593Y3652D01*
Y3651D01*
Y3625D01*
X5585D01*
Y3669D01*
X5596D01*
X5611Y3643D01*
Y3643D01*
Y3643D01*
X5611Y3644D01*
Y3644D01*
X5610Y3645D01*
X5610Y3646D01*
Y3646D01*
Y3669D01*
X5618D01*
Y3625D01*
D02*
G37*
G36*
X6929Y4010D02*
X6909D01*
Y4098D01*
X6929D01*
Y4010D01*
D02*
G37*
G36*
X6820D02*
X6798D01*
X6792Y4028D01*
X6764D01*
X6758Y4010D01*
X6740D01*
X6768Y4098D01*
X6792D01*
X6820Y4010D01*
D02*
G37*
G36*
X6674Y4098D02*
X6675D01*
X6677Y4098D01*
X6680Y4097D01*
X6682Y4097D01*
X6685Y4096D01*
X6687Y4095D01*
X6688Y4095D01*
X6688Y4095D01*
X6689Y4094D01*
X6691Y4093D01*
X6692Y4092D01*
X6694Y4091D01*
X6695Y4089D01*
X6697Y4088D01*
X6697Y4087D01*
X6697Y4087D01*
X6698Y4086D01*
X6698Y4084D01*
X6699Y4082D01*
X6700Y4080D01*
X6700Y4078D01*
X6700Y4075D01*
Y4075D01*
Y4075D01*
X6700Y4074D01*
X6700Y4073D01*
X6700Y4072D01*
X6699Y4071D01*
X6699Y4069D01*
X6698Y4067D01*
X6697Y4066D01*
X6696Y4064D01*
X6695Y4062D01*
X6694Y4061D01*
X6692Y4059D01*
X6690Y4058D01*
X6687Y4057D01*
X6684Y4056D01*
X6685D01*
X6685Y4056D01*
X6685Y4056D01*
X6686Y4055D01*
X6688Y4055D01*
X6690Y4054D01*
X6692Y4053D01*
X6694Y4052D01*
X6696Y4050D01*
X6698Y4048D01*
X6698Y4047D01*
X6699Y4047D01*
X6700Y4045D01*
X6701Y4044D01*
X6701Y4042D01*
X6702Y4039D01*
X6703Y4037D01*
X6703Y4034D01*
Y4034D01*
Y4034D01*
Y4033D01*
X6703Y4033D01*
X6702Y4032D01*
X6702Y4031D01*
X6702Y4028D01*
X6701Y4026D01*
X6700Y4023D01*
X6699Y4021D01*
X6698Y4020D01*
X6697Y4018D01*
X6695Y4017D01*
X6695Y4017D01*
X6695Y4017D01*
X6694Y4016D01*
X6694Y4016D01*
X6693Y4015D01*
X6692Y4015D01*
X6691Y4014D01*
X6689Y4014D01*
X6688Y4013D01*
X6686Y4012D01*
X6684Y4012D01*
X6682Y4011D01*
X6679Y4011D01*
X6677Y4010D01*
X6674Y4010D01*
X6671Y4010D01*
X6630D01*
Y4098D01*
X6673D01*
X6674Y4098D01*
D02*
G37*
G36*
X6872Y4057D02*
X6900Y4010D01*
X6875D01*
X6858Y4042D01*
X6840Y4010D01*
X6821D01*
X6848Y4057D01*
X6824Y4098D01*
X6848D01*
X6862Y4071D01*
X6877Y4098D01*
X6896D01*
X6872Y4057D01*
D02*
G37*
G36*
X6930Y4555D02*
X6910D01*
Y4643D01*
X6930D01*
Y4555D01*
D02*
G37*
G36*
X6821D02*
X6799D01*
X6793Y4573D01*
X6765D01*
X6759Y4555D01*
X6741D01*
X6769Y4643D01*
X6793D01*
X6821Y4555D01*
D02*
G37*
G36*
X6977Y4099D02*
X6979Y4099D01*
X6981Y4099D01*
X6983Y4098D01*
X6986Y4098D01*
X6988Y4097D01*
X6991Y4096D01*
X6994Y4094D01*
X6997Y4093D01*
X7000Y4091D01*
X7002Y4088D01*
X7004Y4086D01*
X7006Y4082D01*
X7008Y4079D01*
X6990Y4073D01*
Y4073D01*
X6990Y4073D01*
X6990Y4074D01*
X6990Y4074D01*
X6989Y4076D01*
X6987Y4078D01*
X6986Y4079D01*
X6985Y4080D01*
X6984Y4081D01*
X6982Y4082D01*
X6981Y4082D01*
X6979Y4083D01*
X6977Y4083D01*
X6975Y4083D01*
X6974D01*
X6973Y4083D01*
X6972Y4083D01*
X6971Y4083D01*
X6969Y4082D01*
X6967Y4081D01*
X6966Y4081D01*
X6965Y4080D01*
X6964Y4079D01*
X6964Y4078D01*
X6963Y4077D01*
X6963Y4075D01*
Y4075D01*
Y4075D01*
X6963Y4074D01*
X6963Y4073D01*
X6964Y4073D01*
X6964Y4072D01*
X6965Y4071D01*
X6965Y4070D01*
X6965Y4070D01*
X6966Y4070D01*
X6966Y4069D01*
X6967Y4069D01*
X6969Y4068D01*
X6971Y4067D01*
X6973Y4067D01*
X6976Y4066D01*
X6976D01*
X6976Y4066D01*
X6977Y4066D01*
X6978Y4066D01*
X6979Y4065D01*
X6980Y4065D01*
X6983Y4064D01*
X6986Y4063D01*
X6990Y4063D01*
X6993Y4061D01*
X6994Y4061D01*
X6995Y4061D01*
X6995D01*
X6996Y4060D01*
X6996Y4060D01*
X6998Y4059D01*
X6999Y4058D01*
X7001Y4057D01*
X7002Y4056D01*
X7004Y4054D01*
X7006Y4052D01*
X7006Y4051D01*
X7007Y4050D01*
X7007Y4049D01*
X7008Y4047D01*
X7009Y4046D01*
X7010Y4043D01*
X7010Y4041D01*
X7010Y4038D01*
Y4038D01*
Y4037D01*
Y4037D01*
X7010Y4036D01*
X7010Y4035D01*
X7010Y4034D01*
X7009Y4032D01*
X7009Y4031D01*
X7008Y4028D01*
X7007Y4026D01*
X7006Y4024D01*
X7005Y4022D01*
X7004Y4021D01*
X7003Y4019D01*
X7001Y4017D01*
X7001Y4017D01*
X7001Y4017D01*
X7000Y4016D01*
X6999Y4016D01*
X6998Y4015D01*
X6997Y4014D01*
X6996Y4014D01*
X6994Y4013D01*
X6992Y4012D01*
X6990Y4011D01*
X6988Y4011D01*
X6986Y4010D01*
X6983Y4009D01*
X6980Y4009D01*
X6977Y4009D01*
X6974Y4009D01*
X6972D01*
X6971Y4009D01*
X6970D01*
X6969Y4009D01*
X6967Y4009D01*
X6966Y4009D01*
X6962Y4010D01*
X6958Y4011D01*
X6954Y4013D01*
X6952Y4014D01*
X6951Y4015D01*
X6950Y4015D01*
X6950Y4015D01*
X6950Y4015D01*
X6949Y4016D01*
X6948Y4017D01*
X6947Y4017D01*
X6946Y4018D01*
X6945Y4019D01*
X6944Y4021D01*
X6943Y4022D01*
X6942Y4023D01*
X6941Y4025D01*
X6940Y4027D01*
X6940Y4029D01*
X6939Y4031D01*
X6938Y4033D01*
X6957Y4037D01*
Y4037D01*
X6957Y4037D01*
X6958Y4036D01*
X6958Y4035D01*
X6959Y4035D01*
X6959Y4033D01*
X6960Y4032D01*
X6961Y4031D01*
X6962Y4030D01*
X6963Y4029D01*
X6965Y4028D01*
X6966Y4027D01*
X6968Y4026D01*
X6970Y4026D01*
X6973Y4025D01*
X6975Y4025D01*
X6976D01*
X6978Y4025D01*
X6979Y4025D01*
X6981Y4026D01*
X6983Y4026D01*
X6984Y4027D01*
X6986Y4028D01*
X6986Y4028D01*
X6986Y4028D01*
X6987Y4029D01*
X6988Y4030D01*
X6988Y4031D01*
X6989Y4032D01*
X6989Y4033D01*
X6989Y4034D01*
Y4034D01*
Y4035D01*
X6989Y4036D01*
X6989Y4037D01*
X6989Y4037D01*
X6988Y4038D01*
X6987Y4039D01*
X6986Y4040D01*
X6986Y4040D01*
X6985Y4041D01*
X6985Y4041D01*
X6983Y4042D01*
X6982Y4042D01*
X6980Y4043D01*
X6977Y4044D01*
X6974Y4044D01*
X6974D01*
X6973Y4044D01*
X6972Y4045D01*
X6971Y4045D01*
X6970Y4045D01*
X6968Y4046D01*
X6966Y4046D01*
X6965Y4047D01*
X6961Y4048D01*
X6957Y4050D01*
X6955Y4051D01*
X6953Y4052D01*
X6951Y4053D01*
X6950Y4054D01*
X6950Y4054D01*
X6950Y4054D01*
X6949Y4054D01*
X6949Y4055D01*
X6948Y4056D01*
X6948Y4056D01*
X6946Y4058D01*
X6945Y4061D01*
X6944Y4064D01*
X6943Y4067D01*
X6943Y4069D01*
X6943Y4071D01*
Y4072D01*
Y4072D01*
Y4073D01*
X6943Y4073D01*
X6943Y4074D01*
X6943Y4076D01*
X6943Y4077D01*
X6944Y4078D01*
X6945Y4081D01*
X6945Y4083D01*
X6946Y4085D01*
X6947Y4086D01*
X6948Y4088D01*
X6950Y4090D01*
X6951Y4091D01*
X6951Y4091D01*
X6952Y4092D01*
X6952Y4092D01*
X6953Y4092D01*
X6954Y4093D01*
X6955Y4094D01*
X6956Y4095D01*
X6957Y4095D01*
X6959Y4096D01*
X6961Y4097D01*
X6963Y4097D01*
X6965Y4098D01*
X6967Y4099D01*
X6969Y4099D01*
X6972Y4099D01*
X6975Y4099D01*
X6976D01*
X6977Y4099D01*
D02*
G37*
G36*
X6395Y4010D02*
X6373D01*
X6367Y4028D01*
X6339D01*
X6333Y4010D01*
X6315D01*
X6343Y4098D01*
X6367D01*
X6395Y4010D01*
D02*
G37*
G36*
X6980Y3549D02*
X6982Y3549D01*
X6984Y3549D01*
X6986Y3548D01*
X6989Y3548D01*
X6992Y3547D01*
X6994Y3546D01*
X6997Y3544D01*
X7000Y3543D01*
X7003Y3541D01*
X7005Y3538D01*
X7008Y3536D01*
X7009Y3532D01*
X7011Y3529D01*
X6994Y3523D01*
Y3523D01*
X6993Y3523D01*
X6993Y3524D01*
X6993Y3524D01*
X6992Y3526D01*
X6990Y3528D01*
X6989Y3529D01*
X6988Y3530D01*
X6987Y3531D01*
X6986Y3532D01*
X6984Y3532D01*
X6982Y3533D01*
X6980Y3533D01*
X6978Y3533D01*
X6977D01*
X6976Y3533D01*
X6976Y3533D01*
X6975Y3533D01*
X6972Y3532D01*
X6970Y3531D01*
X6969Y3531D01*
X6968Y3530D01*
X6967Y3529D01*
X6967Y3528D01*
X6966Y3527D01*
X6966Y3525D01*
Y3525D01*
Y3525D01*
X6966Y3524D01*
X6966Y3523D01*
X6967Y3523D01*
X6967Y3522D01*
X6968Y3521D01*
X6968Y3520D01*
X6969Y3520D01*
X6969Y3520D01*
X6970Y3519D01*
X6971Y3519D01*
X6972Y3518D01*
X6974Y3517D01*
X6976Y3517D01*
X6979Y3516D01*
X6979D01*
X6979Y3516D01*
X6980Y3516D01*
X6981Y3516D01*
X6982Y3515D01*
X6983Y3515D01*
X6986Y3514D01*
X6989Y3513D01*
X6993Y3513D01*
X6996Y3511D01*
X6997Y3511D01*
X6999Y3511D01*
X6999D01*
X6999Y3510D01*
X7000Y3510D01*
X7001Y3509D01*
X7002Y3508D01*
X7004Y3507D01*
X7006Y3506D01*
X7007Y3504D01*
X7009Y3502D01*
X7009Y3501D01*
X7010Y3500D01*
X7010Y3499D01*
X7011Y3497D01*
X7012Y3496D01*
X7013Y3493D01*
X7013Y3491D01*
X7014Y3488D01*
Y3488D01*
Y3487D01*
Y3487D01*
X7013Y3486D01*
X7013Y3485D01*
X7013Y3484D01*
X7013Y3482D01*
X7012Y3481D01*
X7011Y3478D01*
X7010Y3476D01*
X7010Y3474D01*
X7009Y3472D01*
X7007Y3471D01*
X7006Y3469D01*
X7004Y3467D01*
X7004Y3467D01*
X7004Y3467D01*
X7003Y3466D01*
X7003Y3466D01*
X7002Y3465D01*
X7000Y3464D01*
X6999Y3464D01*
X6997Y3463D01*
X6996Y3462D01*
X6994Y3461D01*
X6991Y3461D01*
X6989Y3460D01*
X6986Y3459D01*
X6983Y3459D01*
X6980Y3459D01*
X6977Y3459D01*
X6976D01*
X6975Y3459D01*
X6973D01*
X6972Y3459D01*
X6971Y3459D01*
X6969Y3459D01*
X6965Y3460D01*
X6961Y3461D01*
X6958Y3463D01*
X6956Y3464D01*
X6954Y3465D01*
X6954Y3465D01*
X6953Y3465D01*
X6953Y3465D01*
X6952Y3466D01*
X6951Y3467D01*
X6951Y3467D01*
X6950Y3468D01*
X6949Y3469D01*
X6948Y3471D01*
X6947Y3472D01*
X6945Y3473D01*
X6945Y3475D01*
X6944Y3477D01*
X6943Y3479D01*
X6942Y3481D01*
X6941Y3483D01*
X6960Y3487D01*
Y3487D01*
X6961Y3487D01*
X6961Y3486D01*
X6961Y3485D01*
X6962Y3485D01*
X6962Y3483D01*
X6963Y3482D01*
X6964Y3481D01*
X6965Y3480D01*
X6966Y3479D01*
X6968Y3478D01*
X6969Y3477D01*
X6971Y3476D01*
X6973Y3476D01*
X6976Y3475D01*
X6978Y3475D01*
X6979D01*
X6981Y3475D01*
X6982Y3475D01*
X6984Y3476D01*
X6986Y3476D01*
X6988Y3477D01*
X6989Y3478D01*
X6989Y3478D01*
X6989Y3478D01*
X6990Y3479D01*
X6991Y3480D01*
X6991Y3481D01*
X6992Y3482D01*
X6992Y3483D01*
X6993Y3484D01*
Y3484D01*
Y3485D01*
X6992Y3486D01*
X6992Y3487D01*
X6992Y3487D01*
X6991Y3488D01*
X6990Y3489D01*
X6989Y3490D01*
X6989Y3490D01*
X6989Y3491D01*
X6988Y3491D01*
X6987Y3492D01*
X6985Y3492D01*
X6983Y3493D01*
X6980Y3494D01*
X6977Y3494D01*
X6977D01*
X6976Y3494D01*
X6975Y3495D01*
X6974Y3495D01*
X6973Y3495D01*
X6971Y3496D01*
X6970Y3496D01*
X6968Y3497D01*
X6964Y3498D01*
X6960Y3500D01*
X6958Y3501D01*
X6956Y3502D01*
X6955Y3503D01*
X6953Y3504D01*
X6953Y3504D01*
X6953Y3504D01*
X6952Y3504D01*
X6952Y3505D01*
X6951Y3506D01*
X6951Y3506D01*
X6950Y3508D01*
X6948Y3511D01*
X6947Y3514D01*
X6946Y3517D01*
X6946Y3519D01*
X6946Y3521D01*
Y3522D01*
Y3522D01*
Y3523D01*
X6946Y3523D01*
X6946Y3524D01*
X6946Y3526D01*
X6947Y3527D01*
X6947Y3528D01*
X6948Y3531D01*
X6949Y3533D01*
X6950Y3535D01*
X6950Y3536D01*
X6952Y3538D01*
X6953Y3540D01*
X6954Y3541D01*
X6955Y3541D01*
X6955Y3542D01*
X6955Y3542D01*
X6956Y3542D01*
X6957Y3543D01*
X6958Y3544D01*
X6959Y3545D01*
X6960Y3545D01*
X6962Y3546D01*
X6964Y3547D01*
X6966Y3547D01*
X6968Y3548D01*
X6970Y3549D01*
X6972Y3549D01*
X6975Y3549D01*
X6978Y3549D01*
X6979D01*
X6980Y3549D01*
D02*
G37*
G36*
X6875Y3507D02*
X6903Y3460D01*
X6879D01*
X6861Y3492D01*
X6843Y3460D01*
X6824D01*
X6851Y3507D01*
X6827Y3548D01*
X6851D01*
X6865Y3521D01*
X6880Y3548D01*
X6900D01*
X6875Y3507D01*
D02*
G37*
G36*
X6504Y4010D02*
X6484D01*
Y4098D01*
X6504D01*
Y4010D01*
D02*
G37*
G36*
X6552Y4099D02*
X6554Y4099D01*
X6556Y4099D01*
X6558Y4098D01*
X6561Y4098D01*
X6564Y4097D01*
X6566Y4096D01*
X6569Y4094D01*
X6572Y4093D01*
X6575Y4091D01*
X6577Y4088D01*
X6579Y4086D01*
X6581Y4082D01*
X6583Y4079D01*
X6565Y4073D01*
Y4073D01*
X6565Y4073D01*
X6565Y4074D01*
X6565Y4074D01*
X6564Y4076D01*
X6562Y4078D01*
X6561Y4079D01*
X6560Y4080D01*
X6559Y4081D01*
X6558Y4082D01*
X6556Y4082D01*
X6554Y4083D01*
X6552Y4083D01*
X6550Y4083D01*
X6549D01*
X6548Y4083D01*
X6548Y4083D01*
X6546Y4083D01*
X6544Y4082D01*
X6542Y4081D01*
X6541Y4081D01*
X6540Y4080D01*
X6539Y4079D01*
X6539Y4078D01*
X6538Y4077D01*
X6538Y4075D01*
Y4075D01*
Y4075D01*
X6538Y4074D01*
X6538Y4073D01*
X6539Y4073D01*
X6539Y4072D01*
X6540Y4071D01*
X6540Y4070D01*
X6540Y4070D01*
X6541Y4070D01*
X6541Y4069D01*
X6543Y4069D01*
X6544Y4068D01*
X6546Y4067D01*
X6548Y4067D01*
X6551Y4066D01*
X6551D01*
X6551Y4066D01*
X6552Y4066D01*
X6553Y4066D01*
X6554Y4065D01*
X6555Y4065D01*
X6558Y4064D01*
X6561Y4063D01*
X6565Y4063D01*
X6568Y4061D01*
X6569Y4061D01*
X6570Y4061D01*
X6571D01*
X6571Y4060D01*
X6572Y4060D01*
X6573Y4059D01*
X6574Y4058D01*
X6576Y4057D01*
X6578Y4056D01*
X6579Y4054D01*
X6581Y4052D01*
X6581Y4051D01*
X6582Y4050D01*
X6582Y4049D01*
X6583Y4047D01*
X6584Y4046D01*
X6585Y4043D01*
X6585Y4041D01*
X6585Y4038D01*
Y4038D01*
Y4037D01*
Y4037D01*
X6585Y4036D01*
X6585Y4035D01*
X6585Y4034D01*
X6585Y4032D01*
X6584Y4031D01*
X6583Y4028D01*
X6582Y4026D01*
X6582Y4024D01*
X6580Y4022D01*
X6579Y4021D01*
X6578Y4019D01*
X6576Y4017D01*
X6576Y4017D01*
X6576Y4017D01*
X6575Y4016D01*
X6574Y4016D01*
X6574Y4015D01*
X6572Y4014D01*
X6571Y4014D01*
X6569Y4013D01*
X6568Y4012D01*
X6565Y4011D01*
X6563Y4011D01*
X6561Y4010D01*
X6558Y4009D01*
X6555Y4009D01*
X6552Y4009D01*
X6549Y4009D01*
X6548D01*
X6547Y4009D01*
X6545D01*
X6544Y4009D01*
X6543Y4009D01*
X6541Y4009D01*
X6537Y4010D01*
X6533Y4011D01*
X6530Y4013D01*
X6528Y4014D01*
X6526Y4015D01*
X6526Y4015D01*
X6525Y4015D01*
X6525Y4015D01*
X6524Y4016D01*
X6523Y4017D01*
X6523Y4017D01*
X6522Y4018D01*
X6521Y4019D01*
X6520Y4021D01*
X6519Y4022D01*
X6517Y4023D01*
X6516Y4025D01*
X6515Y4027D01*
X6515Y4029D01*
X6514Y4031D01*
X6513Y4033D01*
X6532Y4037D01*
Y4037D01*
X6533Y4037D01*
X6533Y4036D01*
X6533Y4035D01*
X6534Y4035D01*
X6534Y4033D01*
X6535Y4032D01*
X6536Y4031D01*
X6537Y4030D01*
X6538Y4029D01*
X6540Y4028D01*
X6541Y4027D01*
X6543Y4026D01*
X6545Y4026D01*
X6548Y4025D01*
X6550Y4025D01*
X6551D01*
X6553Y4025D01*
X6554Y4025D01*
X6556Y4026D01*
X6558Y4026D01*
X6559Y4027D01*
X6561Y4028D01*
X6561Y4028D01*
X6561Y4028D01*
X6562Y4029D01*
X6563Y4030D01*
X6563Y4031D01*
X6564Y4032D01*
X6564Y4033D01*
X6564Y4034D01*
Y4034D01*
Y4035D01*
X6564Y4036D01*
X6564Y4037D01*
X6564Y4037D01*
X6563Y4038D01*
X6562Y4039D01*
X6561Y4040D01*
X6561Y4040D01*
X6561Y4041D01*
X6560Y4041D01*
X6559Y4042D01*
X6557Y4042D01*
X6555Y4043D01*
X6552Y4044D01*
X6549Y4044D01*
X6549D01*
X6548Y4044D01*
X6547Y4045D01*
X6546Y4045D01*
X6545Y4045D01*
X6543Y4046D01*
X6542Y4046D01*
X6540Y4047D01*
X6536Y4048D01*
X6532Y4050D01*
X6530Y4051D01*
X6528Y4052D01*
X6526Y4053D01*
X6525Y4054D01*
X6525Y4054D01*
X6525Y4054D01*
X6524Y4054D01*
X6524Y4055D01*
X6523Y4056D01*
X6523Y4056D01*
X6521Y4058D01*
X6520Y4061D01*
X6519Y4064D01*
X6518Y4067D01*
X6518Y4069D01*
X6518Y4071D01*
Y4072D01*
Y4072D01*
Y4073D01*
X6518Y4073D01*
X6518Y4074D01*
X6518Y4076D01*
X6519Y4077D01*
X6519Y4078D01*
X6520Y4081D01*
X6521Y4083D01*
X6521Y4085D01*
X6522Y4086D01*
X6524Y4088D01*
X6525Y4090D01*
X6526Y4091D01*
X6526Y4091D01*
X6527Y4092D01*
X6527Y4092D01*
X6528Y4092D01*
X6529Y4093D01*
X6530Y4094D01*
X6531Y4095D01*
X6532Y4095D01*
X6534Y4096D01*
X6536Y4097D01*
X6538Y4097D01*
X6540Y4098D01*
X6542Y4099D01*
X6544Y4099D01*
X6547Y4099D01*
X6550Y4099D01*
X6551D01*
X6552Y4099D01*
D02*
G37*
G36*
X6447Y4057D02*
X6475Y4010D01*
X6451D01*
X6433Y4042D01*
X6415Y4010D01*
X6396D01*
X6423Y4057D01*
X6399Y4098D01*
X6423D01*
X6437Y4071D01*
X6452Y4098D01*
X6471D01*
X6447Y4057D01*
D02*
G37*
G36*
X6258Y4047D02*
Y4010D01*
X6238D01*
Y4047D01*
X6210Y4098D01*
X6234D01*
X6251Y4065D01*
X6267Y4098D01*
X6286D01*
X6258Y4047D01*
D02*
G37*
G36*
X5593Y3280D02*
X5583D01*
Y3324D01*
X5593D01*
Y3280D01*
D02*
G37*
G36*
X5555Y3324D02*
X5556Y3324D01*
X5557Y3324D01*
X5558Y3324D01*
X5560Y3324D01*
X5562Y3323D01*
X5564Y3323D01*
X5565Y3322D01*
X5566Y3322D01*
X5566D01*
X5566Y3322D01*
X5566Y3322D01*
X5566Y3321D01*
X5567Y3321D01*
X5568Y3320D01*
X5569Y3319D01*
X5570Y3318D01*
X5572Y3316D01*
X5573Y3315D01*
X5573Y3314D01*
X5573Y3314D01*
X5573Y3314D01*
X5573Y3314D01*
X5574Y3313D01*
X5574Y3313D01*
X5574Y3312D01*
X5574Y3311D01*
X5575Y3310D01*
X5575Y3309D01*
X5575Y3308D01*
X5576Y3307D01*
X5576Y3306D01*
X5576Y3305D01*
X5576Y3304D01*
Y3302D01*
Y3302D01*
Y3302D01*
X5576Y3301D01*
Y3301D01*
X5576Y3300D01*
X5576Y3299D01*
X5576Y3298D01*
X5575Y3297D01*
X5575Y3295D01*
X5575Y3294D01*
X5574Y3293D01*
X5574Y3291D01*
X5573Y3290D01*
X5572Y3289D01*
X5571Y3288D01*
X5570Y3286D01*
X5570Y3286D01*
X5570Y3286D01*
X5570Y3286D01*
X5569Y3285D01*
X5569Y3285D01*
X5568Y3284D01*
X5567Y3284D01*
X5566Y3283D01*
X5565Y3283D01*
X5564Y3282D01*
X5563Y3281D01*
X5562Y3281D01*
X5560Y3281D01*
X5559Y3280D01*
X5557Y3280D01*
X5555Y3280D01*
X5540D01*
Y3324D01*
X5555D01*
X5555Y3324D01*
D02*
G37*
G36*
X5620Y3325D02*
X5620Y3325D01*
X5621Y3324D01*
X5622Y3324D01*
X5623Y3324D01*
X5624Y3324D01*
X5625Y3323D01*
X5626Y3323D01*
X5627Y3322D01*
X5629Y3322D01*
X5630Y3321D01*
X5631Y3320D01*
X5632Y3319D01*
X5633Y3318D01*
X5633Y3318D01*
X5633Y3317D01*
X5633Y3317D01*
X5633Y3317D01*
X5634Y3316D01*
X5634Y3315D01*
X5635Y3314D01*
X5635Y3313D01*
X5635Y3312D01*
X5636Y3311D01*
X5636Y3310D01*
X5637Y3308D01*
X5637Y3307D01*
X5637Y3305D01*
X5637Y3304D01*
X5637Y3302D01*
Y3302D01*
Y3302D01*
Y3301D01*
X5637Y3300D01*
X5637Y3300D01*
X5637Y3299D01*
X5637Y3298D01*
X5637Y3296D01*
X5637Y3295D01*
X5636Y3294D01*
X5636Y3292D01*
X5635Y3291D01*
X5635Y3290D01*
X5634Y3288D01*
X5633Y3287D01*
X5633Y3286D01*
X5633Y3286D01*
X5632Y3286D01*
X5632Y3285D01*
X5632Y3285D01*
X5631Y3284D01*
X5631Y3284D01*
X5630Y3283D01*
X5629Y3283D01*
X5628Y3282D01*
X5627Y3281D01*
X5626Y3281D01*
X5625Y3280D01*
X5623Y3280D01*
X5622Y3280D01*
X5620Y3279D01*
X5618Y3279D01*
X5618D01*
X5618Y3279D01*
X5617Y3279D01*
X5616Y3280D01*
X5615Y3280D01*
X5614Y3280D01*
X5613Y3280D01*
X5612Y3280D01*
X5611Y3281D01*
X5610Y3281D01*
X5609Y3282D01*
X5608Y3283D01*
X5607Y3284D01*
X5606Y3285D01*
X5605Y3286D01*
X5605Y3286D01*
X5604Y3286D01*
X5604Y3287D01*
X5604Y3287D01*
X5604Y3288D01*
X5603Y3289D01*
X5603Y3290D01*
X5602Y3290D01*
X5602Y3292D01*
X5601Y3293D01*
X5601Y3294D01*
X5601Y3296D01*
X5600Y3297D01*
X5600Y3299D01*
X5600Y3300D01*
X5600Y3302D01*
Y3302D01*
Y3303D01*
Y3303D01*
X5600Y3304D01*
X5600Y3305D01*
X5600Y3306D01*
X5600Y3307D01*
X5600Y3308D01*
X5601Y3309D01*
X5601Y3310D01*
X5601Y3312D01*
X5602Y3313D01*
X5602Y3314D01*
X5603Y3316D01*
X5604Y3317D01*
X5605Y3318D01*
X5605Y3318D01*
X5605Y3319D01*
X5605Y3319D01*
X5606Y3319D01*
X5606Y3320D01*
X5607Y3320D01*
X5608Y3321D01*
X5608Y3322D01*
X5609Y3322D01*
X5610Y3323D01*
X5611Y3323D01*
X5613Y3324D01*
X5614Y3324D01*
X5616Y3324D01*
X5617Y3325D01*
X5619Y3325D01*
X5619D01*
X5620Y3325D01*
D02*
G37*
G36*
X5561Y3419D02*
X5561D01*
X5562Y3419D01*
X5564Y3419D01*
X5565Y3419D01*
X5567Y3418D01*
X5568Y3418D01*
X5568D01*
X5568Y3418D01*
X5568Y3418D01*
X5569Y3417D01*
X5570Y3417D01*
X5571Y3416D01*
X5572Y3415D01*
X5572Y3414D01*
X5573Y3413D01*
Y3413D01*
X5573Y3413D01*
X5574Y3413D01*
X5574Y3413D01*
X5574Y3412D01*
X5574Y3411D01*
X5575Y3410D01*
X5575Y3409D01*
X5575Y3407D01*
X5575Y3406D01*
Y3406D01*
Y3405D01*
X5575Y3405D01*
X5575Y3404D01*
X5575Y3404D01*
X5575Y3403D01*
X5575Y3402D01*
X5574Y3401D01*
X5574Y3400D01*
X5574Y3399D01*
X5573Y3399D01*
X5572Y3398D01*
X5571Y3397D01*
X5570Y3396D01*
X5569Y3395D01*
X5568Y3394D01*
X5576Y3375D01*
X5565D01*
X5558Y3392D01*
X5550D01*
Y3375D01*
X5540D01*
Y3419D01*
X5560D01*
X5561Y3419D01*
D02*
G37*
G36*
X5559Y3215D02*
X5559D01*
X5560Y3215D01*
X5561Y3214D01*
X5561Y3214D01*
X5563Y3214D01*
X5565Y3213D01*
X5567Y3213D01*
X5568Y3212D01*
X5569Y3212D01*
X5569Y3211D01*
X5569Y3211D01*
X5569Y3211D01*
X5569Y3211D01*
X5570Y3211D01*
X5570Y3210D01*
X5571Y3209D01*
X5572Y3208D01*
X5572Y3207D01*
X5573Y3206D01*
X5573Y3205D01*
X5573Y3204D01*
X5573Y3203D01*
Y3203D01*
Y3202D01*
X5573Y3202D01*
X5573Y3202D01*
X5573Y3201D01*
X5573Y3200D01*
X5573Y3200D01*
X5572Y3199D01*
X5572Y3198D01*
X5571Y3197D01*
X5571Y3196D01*
X5570Y3196D01*
X5569Y3195D01*
X5568Y3194D01*
X5567Y3194D01*
X5566Y3193D01*
X5566D01*
X5566Y3193D01*
X5566Y3193D01*
X5567Y3192D01*
X5568Y3192D01*
X5568Y3192D01*
X5569Y3191D01*
X5570Y3191D01*
X5571Y3190D01*
X5572Y3189D01*
X5572Y3189D01*
X5573Y3188D01*
X5574Y3187D01*
X5574Y3185D01*
X5574Y3184D01*
X5574Y3183D01*
Y3182D01*
Y3182D01*
Y3182D01*
X5574Y3182D01*
X5574Y3181D01*
X5574Y3181D01*
X5574Y3179D01*
X5573Y3178D01*
X5573Y3177D01*
X5573Y3176D01*
X5572Y3175D01*
X5571Y3174D01*
X5571Y3174D01*
X5570Y3173D01*
X5570Y3173D01*
X5570Y3173D01*
X5569Y3173D01*
X5569Y3172D01*
X5569Y3172D01*
X5568Y3172D01*
X5567Y3171D01*
X5567Y3171D01*
X5566Y3171D01*
X5565Y3170D01*
X5564Y3170D01*
X5563Y3170D01*
X5562Y3170D01*
X5560Y3169D01*
X5559Y3169D01*
X5557Y3169D01*
X5557D01*
X5556Y3169D01*
X5556Y3169D01*
X5555Y3170D01*
X5554Y3170D01*
X5553Y3170D01*
X5551Y3170D01*
X5549Y3171D01*
X5548Y3171D01*
X5547Y3172D01*
X5546Y3172D01*
X5545Y3173D01*
X5545Y3173D01*
X5545Y3173D01*
X5545Y3174D01*
X5545Y3174D01*
X5544Y3174D01*
X5544Y3175D01*
X5543Y3175D01*
X5543Y3176D01*
X5542Y3177D01*
X5541Y3179D01*
X5540Y3181D01*
X5540Y3182D01*
X5540Y3183D01*
X5549Y3184D01*
Y3184D01*
X5549Y3184D01*
X5550Y3183D01*
X5550Y3183D01*
X5550Y3182D01*
X5550Y3182D01*
X5550Y3181D01*
X5551Y3181D01*
X5551Y3180D01*
X5552Y3179D01*
X5552Y3179D01*
X5553Y3178D01*
X5554Y3178D01*
X5555Y3177D01*
X5556Y3177D01*
X5557Y3177D01*
X5558D01*
X5558Y3177D01*
X5559Y3177D01*
X5560Y3178D01*
X5561Y3178D01*
X5561Y3178D01*
X5562Y3179D01*
X5562Y3179D01*
X5562Y3179D01*
X5563Y3179D01*
X5563Y3180D01*
X5563Y3181D01*
X5564Y3181D01*
X5564Y3182D01*
X5564Y3183D01*
Y3183D01*
Y3184D01*
X5564Y3184D01*
X5564Y3185D01*
X5564Y3185D01*
X5563Y3186D01*
X5563Y3187D01*
X5562Y3187D01*
X5562Y3187D01*
X5562Y3188D01*
X5561Y3188D01*
X5561Y3188D01*
X5560Y3188D01*
X5559Y3189D01*
X5557Y3189D01*
X5557Y3189D01*
X5552D01*
Y3197D01*
X5557D01*
X5558Y3197D01*
X5558Y3197D01*
X5559Y3197D01*
X5560Y3197D01*
X5561Y3198D01*
X5562Y3198D01*
X5562Y3198D01*
X5562Y3198D01*
X5562Y3199D01*
X5562Y3199D01*
X5563Y3200D01*
X5563Y3200D01*
X5563Y3201D01*
X5563Y3202D01*
Y3202D01*
Y3202D01*
X5563Y3202D01*
X5563Y3203D01*
X5563Y3204D01*
X5562Y3204D01*
X5562Y3205D01*
X5562Y3205D01*
X5561Y3206D01*
X5561Y3206D01*
X5561Y3206D01*
X5560Y3206D01*
X5560Y3207D01*
X5559Y3207D01*
X5558Y3207D01*
X5557Y3207D01*
X5557D01*
X5557Y3207D01*
X5556D01*
X5556Y3207D01*
X5555Y3207D01*
X5554Y3206D01*
X5554Y3206D01*
X5553Y3206D01*
X5553Y3205D01*
X5552Y3205D01*
X5552Y3204D01*
X5551Y3203D01*
X5551Y3202D01*
X5550Y3201D01*
X5541Y3203D01*
Y3203D01*
X5541Y3203D01*
X5541Y3203D01*
X5542Y3204D01*
X5542Y3204D01*
X5542Y3205D01*
X5542Y3206D01*
X5543Y3207D01*
X5544Y3209D01*
X5545Y3210D01*
X5546Y3211D01*
X5547Y3211D01*
X5547Y3211D01*
X5547Y3211D01*
X5547Y3212D01*
X5547Y3212D01*
X5548Y3212D01*
X5548Y3212D01*
X5549Y3213D01*
X5550Y3213D01*
X5550Y3213D01*
X5551Y3214D01*
X5553Y3214D01*
X5555Y3215D01*
X5556Y3215D01*
X5557Y3215D01*
X5558D01*
X5559Y3215D01*
D02*
G37*
G36*
X5598Y3420D02*
X5599Y3420D01*
X5600Y3419D01*
X5601Y3419D01*
X5603Y3419D01*
X5604Y3418D01*
X5606Y3418D01*
X5607Y3417D01*
X5608Y3416D01*
X5610Y3415D01*
X5611Y3414D01*
X5612Y3413D01*
X5613Y3411D01*
X5614Y3409D01*
X5605Y3406D01*
Y3406D01*
X5605Y3407D01*
X5605Y3407D01*
X5605Y3407D01*
X5604Y3408D01*
X5604Y3409D01*
X5603Y3409D01*
X5602Y3410D01*
X5602Y3410D01*
X5601Y3411D01*
X5600Y3411D01*
X5600Y3411D01*
X5599Y3412D01*
X5598Y3412D01*
X5597D01*
X5597Y3412D01*
X5596Y3412D01*
X5596Y3411D01*
X5594Y3411D01*
X5593Y3411D01*
X5593Y3410D01*
X5592Y3410D01*
X5592Y3409D01*
X5592Y3409D01*
X5591Y3408D01*
X5591Y3408D01*
Y3408D01*
Y3407D01*
X5591Y3407D01*
X5592Y3407D01*
X5592Y3406D01*
X5592Y3406D01*
X5592Y3405D01*
X5593Y3405D01*
X5593Y3405D01*
X5593Y3405D01*
X5593Y3405D01*
X5594Y3404D01*
X5594Y3404D01*
X5595Y3404D01*
X5596Y3403D01*
X5598Y3403D01*
X5598D01*
X5598Y3403D01*
X5598Y3403D01*
X5599Y3403D01*
X5599Y3403D01*
X5600Y3403D01*
X5601Y3402D01*
X5603Y3402D01*
X5605Y3401D01*
X5606Y3401D01*
X5607Y3401D01*
X5608Y3400D01*
X5608D01*
X5608Y3400D01*
X5608Y3400D01*
X5609Y3400D01*
X5609Y3399D01*
X5610Y3399D01*
X5611Y3398D01*
X5612Y3397D01*
X5613Y3396D01*
X5613Y3396D01*
X5613Y3395D01*
X5614Y3395D01*
X5614Y3394D01*
X5614Y3393D01*
X5615Y3392D01*
X5615Y3390D01*
X5615Y3389D01*
Y3389D01*
Y3389D01*
Y3388D01*
X5615Y3388D01*
X5615Y3387D01*
X5615Y3387D01*
X5615Y3386D01*
X5615Y3385D01*
X5614Y3384D01*
X5614Y3383D01*
X5613Y3382D01*
X5613Y3381D01*
X5612Y3380D01*
X5611Y3379D01*
X5610Y3379D01*
X5610Y3379D01*
X5610Y3378D01*
X5610Y3378D01*
X5610Y3378D01*
X5609Y3378D01*
X5608Y3377D01*
X5608Y3377D01*
X5607Y3376D01*
X5606Y3376D01*
X5605Y3376D01*
X5604Y3375D01*
X5603Y3375D01*
X5601Y3375D01*
X5600Y3375D01*
X5598Y3374D01*
X5597Y3374D01*
X5596D01*
X5596Y3374D01*
X5595D01*
X5594Y3374D01*
X5594Y3375D01*
X5593Y3375D01*
X5591Y3375D01*
X5589Y3376D01*
X5587Y3376D01*
X5586Y3377D01*
X5585Y3377D01*
X5585Y3377D01*
X5585Y3377D01*
X5585Y3378D01*
X5584Y3378D01*
X5584Y3378D01*
X5584Y3379D01*
X5583Y3379D01*
X5583Y3380D01*
X5582Y3380D01*
X5582Y3381D01*
X5581Y3382D01*
X5581Y3382D01*
X5580Y3383D01*
X5580Y3384D01*
X5579Y3385D01*
X5579Y3386D01*
X5589Y3389D01*
Y3389D01*
X5589Y3388D01*
X5589Y3388D01*
X5589Y3388D01*
X5589Y3387D01*
X5589Y3387D01*
X5590Y3386D01*
X5590Y3386D01*
X5591Y3385D01*
X5591Y3385D01*
X5592Y3384D01*
X5593Y3384D01*
X5594Y3383D01*
X5595Y3383D01*
X5596Y3383D01*
X5598Y3383D01*
X5598D01*
X5599Y3383D01*
X5600Y3383D01*
X5600Y3383D01*
X5601Y3383D01*
X5602Y3383D01*
X5603Y3384D01*
X5603Y3384D01*
X5603Y3384D01*
X5603Y3384D01*
X5604Y3385D01*
X5604Y3385D01*
X5604Y3386D01*
X5605Y3386D01*
X5605Y3387D01*
Y3387D01*
Y3387D01*
X5605Y3388D01*
X5604Y3388D01*
X5604Y3389D01*
X5604Y3389D01*
X5604Y3390D01*
X5603Y3390D01*
X5603Y3390D01*
X5603Y3390D01*
X5602Y3391D01*
X5602Y3391D01*
X5601Y3391D01*
X5600Y3391D01*
X5598Y3392D01*
X5597Y3392D01*
X5597D01*
X5597Y3392D01*
X5596Y3392D01*
X5596Y3392D01*
X5595Y3393D01*
X5594Y3393D01*
X5593Y3393D01*
X5592Y3393D01*
X5590Y3394D01*
X5588Y3395D01*
X5587Y3395D01*
X5586Y3396D01*
X5586Y3396D01*
X5585Y3397D01*
X5585Y3397D01*
X5585Y3397D01*
X5584Y3397D01*
X5584Y3397D01*
X5584Y3398D01*
X5584Y3398D01*
X5583Y3399D01*
X5582Y3400D01*
X5582Y3402D01*
X5581Y3404D01*
X5581Y3405D01*
X5581Y3406D01*
Y3406D01*
Y3406D01*
Y3406D01*
X5581Y3407D01*
X5581Y3407D01*
X5582Y3408D01*
X5582Y3408D01*
X5582Y3409D01*
X5582Y3411D01*
X5583Y3412D01*
X5583Y3412D01*
X5584Y3413D01*
X5584Y3414D01*
X5585Y3415D01*
X5586Y3416D01*
X5586Y3416D01*
X5586Y3416D01*
X5586Y3416D01*
X5586Y3416D01*
X5587Y3417D01*
X5587Y3417D01*
X5588Y3417D01*
X5589Y3418D01*
X5589Y3418D01*
X5590Y3418D01*
X5591Y3419D01*
X5592Y3419D01*
X5593Y3419D01*
X5595Y3419D01*
X5596Y3420D01*
X5597Y3420D01*
X5598D01*
X5598Y3420D01*
D02*
G37*
G36*
X5650Y3410D02*
X5639D01*
Y3375D01*
X5628D01*
Y3410D01*
X5617D01*
Y3419D01*
X5650D01*
Y3410D01*
D02*
G37*
G36*
X6997Y2600D02*
X6997D01*
X6998Y2600D01*
X6999Y2600D01*
X7000Y2600D01*
X7001Y2600D01*
X7002Y2599D01*
X7002D01*
X7002Y2599D01*
X7003Y2599D01*
X7003Y2599D01*
X7004Y2598D01*
X7005Y2598D01*
X7005Y2597D01*
X7006Y2596D01*
X7007Y2596D01*
Y2595D01*
X7007Y2595D01*
X7007Y2595D01*
X7007Y2595D01*
X7007Y2595D01*
X7008Y2594D01*
X7008Y2593D01*
X7008Y2592D01*
X7008Y2591D01*
X7008Y2590D01*
Y2590D01*
Y2589D01*
X7008Y2589D01*
X7008Y2589D01*
X7008Y2588D01*
X7008Y2587D01*
X7008Y2587D01*
X7008Y2586D01*
X7007Y2585D01*
X7007Y2585D01*
X7006Y2584D01*
X7006Y2583D01*
X7005Y2582D01*
X7004Y2582D01*
X7003Y2581D01*
X7002Y2580D01*
X7009Y2565D01*
X7000D01*
X6994Y2579D01*
X6988D01*
Y2565D01*
X6980D01*
Y2600D01*
X6996D01*
X6997Y2600D01*
D02*
G37*
G36*
X7027Y2504D02*
X7037Y2485D01*
X7028D01*
X7021Y2498D01*
X7014Y2485D01*
X7006D01*
X7017Y2504D01*
X7007Y2520D01*
X7017D01*
X7023Y2510D01*
X7029Y2520D01*
X7036D01*
X7027Y2504D01*
D02*
G37*
G36*
X7006Y2513D02*
X6997D01*
Y2485D01*
X6989D01*
Y2513D01*
X6980D01*
Y2520D01*
X7006D01*
Y2513D01*
D02*
G37*
G36*
X7032Y2584D02*
X7043Y2565D01*
X7033D01*
X7026Y2578D01*
X7019Y2565D01*
X7011D01*
X7022Y2584D01*
X7012Y2600D01*
X7022D01*
X7028Y2590D01*
X7034Y2600D01*
X7041D01*
X7032Y2584D01*
D02*
G37*
G36*
X5561Y3520D02*
X5561Y3520D01*
X5562Y3519D01*
X5563Y3519D01*
X5565Y3519D01*
X5566Y3518D01*
X5568Y3518D01*
X5569Y3517D01*
X5571Y3516D01*
X5573Y3514D01*
X5573Y3513D01*
X5574Y3512D01*
X5575Y3512D01*
X5575Y3511D01*
X5576Y3509D01*
X5576Y3508D01*
X5577Y3507D01*
X5577Y3506D01*
X5577Y3504D01*
X5578Y3503D01*
X5567Y3502D01*
Y3502D01*
Y3502D01*
X5567Y3503D01*
X5567Y3503D01*
X5567Y3504D01*
X5566Y3505D01*
X5566Y3506D01*
X5566Y3507D01*
X5565Y3507D01*
X5565Y3508D01*
X5564Y3509D01*
X5564Y3510D01*
X5563Y3510D01*
X5562Y3511D01*
X5561Y3511D01*
X5560Y3511D01*
X5559D01*
X5559Y3511D01*
X5558Y3511D01*
X5558Y3511D01*
X5557Y3511D01*
X5556Y3510D01*
X5555Y3509D01*
X5555Y3509D01*
X5554Y3508D01*
X5553Y3507D01*
X5553Y3505D01*
X5552Y3504D01*
X5552Y3503D01*
X5552Y3502D01*
X5552Y3501D01*
X5552Y3499D01*
X5551Y3498D01*
Y3497D01*
Y3497D01*
Y3497D01*
Y3496D01*
X5552Y3496D01*
Y3495D01*
X5552Y3494D01*
X5552Y3493D01*
X5552Y3492D01*
X5552Y3490D01*
X5552Y3489D01*
X5553Y3488D01*
X5553Y3487D01*
X5553Y3486D01*
X5554Y3486D01*
X5554Y3485D01*
X5554Y3485D01*
X5555Y3485D01*
X5555Y3484D01*
X5556Y3484D01*
X5557Y3483D01*
X5558Y3483D01*
X5560Y3483D01*
X5560D01*
X5560Y3483D01*
X5561Y3483D01*
X5561Y3483D01*
X5562Y3483D01*
X5562Y3483D01*
X5563Y3484D01*
X5564Y3484D01*
X5564Y3485D01*
X5565Y3485D01*
X5566Y3486D01*
X5566Y3487D01*
X5567Y3488D01*
X5567Y3490D01*
X5568Y3491D01*
X5578Y3490D01*
Y3490D01*
X5578Y3490D01*
X5577Y3490D01*
X5577Y3489D01*
X5577Y3488D01*
X5577Y3488D01*
X5577Y3487D01*
X5577Y3486D01*
X5576Y3484D01*
X5575Y3483D01*
X5575Y3482D01*
X5574Y3481D01*
X5573Y3480D01*
X5573Y3479D01*
X5572Y3478D01*
X5572Y3478D01*
X5572Y3478D01*
X5571Y3478D01*
X5571Y3478D01*
X5570Y3477D01*
X5570Y3477D01*
X5569Y3477D01*
X5568Y3476D01*
X5568Y3476D01*
X5567Y3476D01*
X5566Y3475D01*
X5565Y3475D01*
X5563Y3475D01*
X5562Y3475D01*
X5561Y3474D01*
X5560Y3474D01*
X5559D01*
X5559Y3474D01*
X5558D01*
X5557Y3475D01*
X5557Y3475D01*
X5556Y3475D01*
X5555Y3475D01*
X5553Y3475D01*
X5552Y3476D01*
X5551Y3476D01*
X5550Y3477D01*
X5549Y3477D01*
X5548Y3478D01*
X5546Y3479D01*
X5545Y3480D01*
X5545Y3480D01*
X5545Y3481D01*
X5545Y3481D01*
X5545Y3481D01*
X5544Y3482D01*
X5544Y3483D01*
X5543Y3484D01*
X5543Y3485D01*
X5542Y3486D01*
X5542Y3487D01*
X5541Y3488D01*
X5541Y3490D01*
X5540Y3492D01*
X5540Y3493D01*
X5540Y3495D01*
X5540Y3497D01*
Y3497D01*
Y3497D01*
X5540Y3498D01*
Y3499D01*
X5540Y3499D01*
X5540Y3500D01*
X5540Y3502D01*
X5541Y3503D01*
X5541Y3504D01*
X5541Y3505D01*
X5542Y3507D01*
X5542Y3508D01*
X5543Y3509D01*
X5544Y3511D01*
X5544Y3512D01*
X5545Y3513D01*
X5545Y3513D01*
X5546Y3514D01*
X5546Y3514D01*
X5546Y3514D01*
X5547Y3515D01*
X5547Y3515D01*
X5548Y3516D01*
X5549Y3517D01*
X5550Y3517D01*
X5551Y3518D01*
X5552Y3518D01*
X5554Y3519D01*
X5555Y3519D01*
X5556Y3519D01*
X5558Y3520D01*
X5560Y3520D01*
X5560D01*
X5561Y3520D01*
D02*
G37*
G36*
X5640Y3503D02*
X5653Y3475D01*
X5642D01*
X5633Y3494D01*
X5627Y3485D01*
Y3475D01*
X5617D01*
Y3519D01*
X5627D01*
Y3498D01*
X5641Y3519D01*
X5651D01*
X5640Y3503D01*
D02*
G37*
G36*
X5594Y3484D02*
X5611D01*
Y3475D01*
X5584D01*
Y3519D01*
X5594D01*
Y3484D01*
D02*
G37*
G36*
X5555Y3874D02*
X5556Y3874D01*
X5557Y3874D01*
X5558Y3874D01*
X5560Y3874D01*
X5562Y3873D01*
X5564Y3873D01*
X5565Y3872D01*
X5566Y3872D01*
X5566D01*
X5566Y3872D01*
X5566Y3872D01*
X5566Y3871D01*
X5567Y3871D01*
X5568Y3870D01*
X5569Y3869D01*
X5570Y3868D01*
X5572Y3866D01*
X5573Y3865D01*
X5573Y3864D01*
X5573Y3864D01*
X5573Y3864D01*
X5573Y3864D01*
X5574Y3863D01*
X5574Y3863D01*
X5574Y3862D01*
X5574Y3861D01*
X5575Y3860D01*
X5575Y3859D01*
X5575Y3858D01*
X5576Y3857D01*
X5576Y3856D01*
X5576Y3855D01*
X5576Y3854D01*
Y3852D01*
Y3852D01*
Y3852D01*
X5576Y3851D01*
Y3851D01*
X5576Y3850D01*
X5576Y3849D01*
X5576Y3848D01*
X5575Y3847D01*
X5575Y3845D01*
X5575Y3844D01*
X5574Y3843D01*
X5574Y3841D01*
X5573Y3840D01*
X5572Y3839D01*
X5571Y3838D01*
X5570Y3836D01*
X5570Y3836D01*
X5570Y3836D01*
X5570Y3836D01*
X5569Y3835D01*
X5569Y3835D01*
X5568Y3834D01*
X5567Y3834D01*
X5566Y3833D01*
X5565Y3833D01*
X5564Y3832D01*
X5563Y3831D01*
X5562Y3831D01*
X5560Y3831D01*
X5559Y3830D01*
X5557Y3830D01*
X5555Y3830D01*
X5540D01*
Y3874D01*
X5555D01*
X5555Y3874D01*
D02*
G37*
G36*
X5620Y3875D02*
X5620Y3875D01*
X5621Y3874D01*
X5622Y3874D01*
X5623Y3874D01*
X5624Y3874D01*
X5625Y3873D01*
X5626Y3873D01*
X5627Y3872D01*
X5629Y3872D01*
X5630Y3871D01*
X5631Y3870D01*
X5632Y3869D01*
X5633Y3868D01*
X5633Y3868D01*
X5633Y3867D01*
X5633Y3867D01*
X5633Y3867D01*
X5634Y3866D01*
X5634Y3865D01*
X5635Y3864D01*
X5635Y3863D01*
X5635Y3862D01*
X5636Y3861D01*
X5636Y3860D01*
X5637Y3858D01*
X5637Y3857D01*
X5637Y3855D01*
X5637Y3854D01*
X5637Y3852D01*
Y3852D01*
Y3852D01*
Y3851D01*
X5637Y3850D01*
X5637Y3850D01*
X5637Y3849D01*
X5637Y3848D01*
X5637Y3846D01*
X5637Y3845D01*
X5636Y3844D01*
X5636Y3842D01*
X5635Y3841D01*
X5635Y3840D01*
X5634Y3838D01*
X5633Y3837D01*
X5633Y3836D01*
X5633Y3836D01*
X5632Y3836D01*
X5632Y3835D01*
X5632Y3835D01*
X5631Y3834D01*
X5631Y3834D01*
X5630Y3833D01*
X5629Y3833D01*
X5628Y3832D01*
X5627Y3831D01*
X5626Y3831D01*
X5625Y3830D01*
X5623Y3830D01*
X5622Y3830D01*
X5620Y3829D01*
X5618Y3829D01*
X5618D01*
X5618Y3829D01*
X5617Y3829D01*
X5616Y3830D01*
X5615Y3830D01*
X5614Y3830D01*
X5613Y3830D01*
X5612Y3830D01*
X5611Y3831D01*
X5610Y3831D01*
X5609Y3832D01*
X5608Y3833D01*
X5607Y3834D01*
X5606Y3835D01*
X5605Y3836D01*
X5605Y3836D01*
X5604Y3836D01*
X5604Y3837D01*
X5604Y3837D01*
X5604Y3838D01*
X5603Y3839D01*
X5603Y3840D01*
X5602Y3840D01*
X5602Y3842D01*
X5601Y3843D01*
X5601Y3844D01*
X5601Y3846D01*
X5600Y3847D01*
X5600Y3849D01*
X5600Y3850D01*
X5600Y3852D01*
Y3852D01*
Y3853D01*
Y3853D01*
X5600Y3854D01*
X5600Y3855D01*
X5600Y3856D01*
X5600Y3857D01*
X5600Y3858D01*
X5601Y3859D01*
X5601Y3860D01*
X5601Y3862D01*
X5602Y3863D01*
X5602Y3864D01*
X5603Y3866D01*
X5604Y3867D01*
X5605Y3868D01*
X5605Y3868D01*
X5605Y3869D01*
X5605Y3869D01*
X5606Y3869D01*
X5606Y3870D01*
X5607Y3870D01*
X5608Y3871D01*
X5608Y3872D01*
X5609Y3872D01*
X5610Y3873D01*
X5611Y3873D01*
X5613Y3874D01*
X5614Y3874D01*
X5616Y3874D01*
X5617Y3875D01*
X5619Y3875D01*
X5619D01*
X5620Y3875D01*
D02*
G37*
G36*
X5561Y4070D02*
X5561Y4070D01*
X5562Y4069D01*
X5563Y4069D01*
X5565Y4069D01*
X5566Y4068D01*
X5568Y4068D01*
X5569Y4067D01*
X5571Y4066D01*
X5573Y4064D01*
X5573Y4063D01*
X5574Y4062D01*
X5575Y4062D01*
X5575Y4061D01*
X5576Y4059D01*
X5576Y4058D01*
X5577Y4057D01*
X5577Y4056D01*
X5577Y4054D01*
X5578Y4053D01*
X5567Y4052D01*
Y4052D01*
Y4052D01*
X5567Y4053D01*
X5567Y4053D01*
X5567Y4054D01*
X5566Y4055D01*
X5566Y4056D01*
X5566Y4057D01*
X5565Y4057D01*
X5565Y4058D01*
X5564Y4059D01*
X5564Y4060D01*
X5563Y4060D01*
X5562Y4061D01*
X5561Y4061D01*
X5560Y4061D01*
X5559D01*
X5559Y4061D01*
X5558Y4061D01*
X5558Y4061D01*
X5557Y4061D01*
X5556Y4060D01*
X5555Y4059D01*
X5555Y4059D01*
X5554Y4058D01*
X5553Y4057D01*
X5553Y4055D01*
X5552Y4054D01*
X5552Y4053D01*
X5552Y4052D01*
X5552Y4051D01*
X5552Y4049D01*
X5551Y4048D01*
Y4047D01*
Y4047D01*
Y4047D01*
Y4046D01*
X5552Y4046D01*
Y4045D01*
X5552Y4044D01*
X5552Y4043D01*
X5552Y4042D01*
X5552Y4040D01*
X5552Y4039D01*
X5553Y4038D01*
X5553Y4037D01*
X5553Y4036D01*
X5554Y4036D01*
X5554Y4035D01*
X5554Y4035D01*
X5555Y4035D01*
X5555Y4034D01*
X5556Y4034D01*
X5557Y4033D01*
X5558Y4033D01*
X5560Y4033D01*
X5560D01*
X5560Y4033D01*
X5561Y4033D01*
X5561Y4033D01*
X5562Y4033D01*
X5562Y4033D01*
X5563Y4034D01*
X5564Y4034D01*
X5564Y4035D01*
X5565Y4035D01*
X5566Y4036D01*
X5566Y4037D01*
X5567Y4038D01*
X5567Y4040D01*
X5568Y4041D01*
X5578Y4040D01*
Y4040D01*
X5578Y4040D01*
X5577Y4040D01*
X5577Y4039D01*
X5577Y4038D01*
X5577Y4038D01*
X5577Y4037D01*
X5577Y4036D01*
X5576Y4034D01*
X5575Y4033D01*
X5575Y4032D01*
X5574Y4031D01*
X5573Y4030D01*
X5573Y4029D01*
X5572Y4028D01*
X5572Y4028D01*
X5572Y4028D01*
X5571Y4028D01*
X5571Y4028D01*
X5570Y4027D01*
X5570Y4027D01*
X5569Y4027D01*
X5568Y4026D01*
X5568Y4026D01*
X5567Y4026D01*
X5566Y4025D01*
X5565Y4025D01*
X5563Y4025D01*
X5562Y4025D01*
X5561Y4024D01*
X5560Y4024D01*
X5559D01*
X5559Y4024D01*
X5558D01*
X5557Y4025D01*
X5557Y4025D01*
X5556Y4025D01*
X5555Y4025D01*
X5553Y4025D01*
X5552Y4026D01*
X5551Y4026D01*
X5550Y4027D01*
X5549Y4027D01*
X5548Y4028D01*
X5546Y4029D01*
X5545Y4030D01*
X5545Y4030D01*
X5545Y4031D01*
X5545Y4031D01*
X5545Y4031D01*
X5544Y4032D01*
X5544Y4033D01*
X5543Y4034D01*
X5543Y4035D01*
X5542Y4036D01*
X5542Y4037D01*
X5541Y4038D01*
X5541Y4040D01*
X5540Y4042D01*
X5540Y4043D01*
X5540Y4045D01*
X5540Y4047D01*
Y4047D01*
Y4047D01*
X5540Y4048D01*
Y4049D01*
X5540Y4049D01*
X5540Y4050D01*
X5540Y4052D01*
X5541Y4053D01*
X5541Y4054D01*
X5541Y4055D01*
X5542Y4057D01*
X5542Y4058D01*
X5543Y4059D01*
X5544Y4061D01*
X5544Y4062D01*
X5545Y4063D01*
X5545Y4063D01*
X5546Y4064D01*
X5546Y4064D01*
X5546Y4064D01*
X5547Y4065D01*
X5547Y4065D01*
X5548Y4066D01*
X5549Y4067D01*
X5550Y4067D01*
X5551Y4068D01*
X5552Y4068D01*
X5554Y4069D01*
X5555Y4069D01*
X5556Y4069D01*
X5558Y4070D01*
X5560Y4070D01*
X5560D01*
X5561Y4070D01*
D02*
G37*
G36*
X5593Y3830D02*
X5583D01*
Y3874D01*
X5593D01*
Y3830D01*
D02*
G37*
G36*
X5598Y3970D02*
X5599Y3970D01*
X5600Y3969D01*
X5601Y3969D01*
X5603Y3969D01*
X5604Y3968D01*
X5606Y3968D01*
X5607Y3967D01*
X5608Y3966D01*
X5610Y3965D01*
X5611Y3964D01*
X5612Y3963D01*
X5613Y3961D01*
X5614Y3959D01*
X5605Y3956D01*
Y3956D01*
X5605Y3957D01*
X5605Y3957D01*
X5605Y3957D01*
X5604Y3958D01*
X5604Y3959D01*
X5603Y3959D01*
X5602Y3960D01*
X5602Y3960D01*
X5601Y3961D01*
X5600Y3961D01*
X5600Y3961D01*
X5599Y3962D01*
X5598Y3962D01*
X5597D01*
X5597Y3962D01*
X5596Y3962D01*
X5596Y3961D01*
X5594Y3961D01*
X5593Y3961D01*
X5593Y3960D01*
X5592Y3960D01*
X5592Y3959D01*
X5592Y3959D01*
X5591Y3958D01*
X5591Y3958D01*
Y3958D01*
Y3957D01*
X5591Y3957D01*
X5592Y3957D01*
X5592Y3956D01*
X5592Y3956D01*
X5592Y3955D01*
X5593Y3955D01*
X5593Y3955D01*
X5593Y3955D01*
X5593Y3955D01*
X5594Y3954D01*
X5594Y3954D01*
X5595Y3954D01*
X5596Y3953D01*
X5598Y3953D01*
X5598D01*
X5598Y3953D01*
X5598Y3953D01*
X5599Y3953D01*
X5599Y3953D01*
X5600Y3953D01*
X5601Y3952D01*
X5603Y3952D01*
X5605Y3951D01*
X5606Y3951D01*
X5607Y3951D01*
X5608Y3950D01*
X5608D01*
X5608Y3950D01*
X5608Y3950D01*
X5609Y3950D01*
X5609Y3949D01*
X5610Y3949D01*
X5611Y3948D01*
X5612Y3947D01*
X5613Y3946D01*
X5613Y3946D01*
X5613Y3945D01*
X5614Y3945D01*
X5614Y3944D01*
X5614Y3943D01*
X5615Y3942D01*
X5615Y3940D01*
X5615Y3939D01*
Y3939D01*
Y3939D01*
Y3938D01*
X5615Y3938D01*
X5615Y3937D01*
X5615Y3937D01*
X5615Y3936D01*
X5615Y3935D01*
X5614Y3934D01*
X5614Y3933D01*
X5613Y3932D01*
X5613Y3931D01*
X5612Y3930D01*
X5611Y3929D01*
X5610Y3929D01*
X5610Y3929D01*
X5610Y3928D01*
X5610Y3928D01*
X5610Y3928D01*
X5609Y3928D01*
X5608Y3927D01*
X5608Y3927D01*
X5607Y3926D01*
X5606Y3926D01*
X5605Y3926D01*
X5604Y3925D01*
X5603Y3925D01*
X5601Y3925D01*
X5600Y3925D01*
X5598Y3924D01*
X5597Y3924D01*
X5596D01*
X5596Y3924D01*
X5595D01*
X5594Y3924D01*
X5594Y3925D01*
X5593Y3925D01*
X5591Y3925D01*
X5589Y3926D01*
X5587Y3926D01*
X5586Y3927D01*
X5585Y3927D01*
X5585Y3927D01*
X5585Y3927D01*
X5585Y3928D01*
X5584Y3928D01*
X5584Y3928D01*
X5584Y3929D01*
X5583Y3929D01*
X5583Y3930D01*
X5582Y3930D01*
X5582Y3931D01*
X5581Y3932D01*
X5581Y3932D01*
X5580Y3933D01*
X5580Y3934D01*
X5579Y3935D01*
X5579Y3936D01*
X5589Y3939D01*
Y3939D01*
X5589Y3938D01*
X5589Y3938D01*
X5589Y3938D01*
X5589Y3937D01*
X5589Y3937D01*
X5590Y3936D01*
X5590Y3936D01*
X5591Y3935D01*
X5591Y3935D01*
X5592Y3934D01*
X5593Y3934D01*
X5594Y3933D01*
X5595Y3933D01*
X5596Y3933D01*
X5598Y3933D01*
X5598D01*
X5599Y3933D01*
X5600Y3933D01*
X5600Y3933D01*
X5601Y3933D01*
X5602Y3933D01*
X5603Y3934D01*
X5603Y3934D01*
X5603Y3934D01*
X5603Y3934D01*
X5604Y3935D01*
X5604Y3935D01*
X5604Y3936D01*
X5605Y3936D01*
X5605Y3937D01*
Y3937D01*
Y3937D01*
X5605Y3938D01*
X5604Y3938D01*
X5604Y3939D01*
X5604Y3939D01*
X5604Y3940D01*
X5603Y3940D01*
X5603Y3940D01*
X5603Y3940D01*
X5602Y3941D01*
X5602Y3941D01*
X5601Y3941D01*
X5600Y3941D01*
X5598Y3942D01*
X5597Y3942D01*
X5597D01*
X5597Y3942D01*
X5596Y3942D01*
X5596Y3942D01*
X5595Y3943D01*
X5594Y3943D01*
X5593Y3943D01*
X5592Y3943D01*
X5590Y3944D01*
X5588Y3945D01*
X5587Y3945D01*
X5586Y3946D01*
X5586Y3946D01*
X5585Y3947D01*
X5585Y3947D01*
X5585Y3947D01*
X5584Y3947D01*
X5584Y3947D01*
X5584Y3948D01*
X5584Y3948D01*
X5583Y3949D01*
X5582Y3950D01*
X5582Y3952D01*
X5581Y3954D01*
X5581Y3955D01*
X5581Y3956D01*
Y3956D01*
Y3956D01*
Y3956D01*
X5581Y3957D01*
X5581Y3957D01*
X5582Y3958D01*
X5582Y3958D01*
X5582Y3959D01*
X5582Y3961D01*
X5583Y3962D01*
X5583Y3962D01*
X5584Y3963D01*
X5584Y3964D01*
X5585Y3965D01*
X5586Y3966D01*
X5586Y3966D01*
X5586Y3966D01*
X5586Y3966D01*
X5586Y3966D01*
X5587Y3967D01*
X5587Y3967D01*
X5588Y3967D01*
X5589Y3968D01*
X5589Y3968D01*
X5590Y3968D01*
X5591Y3969D01*
X5592Y3969D01*
X5593Y3969D01*
X5595Y3969D01*
X5596Y3970D01*
X5597Y3970D01*
X5598D01*
X5598Y3970D01*
D02*
G37*
G36*
X5650Y3960D02*
X5639D01*
Y3925D01*
X5628D01*
Y3960D01*
X5617D01*
Y3969D01*
X5650D01*
Y3960D01*
D02*
G37*
G36*
X5561Y3969D02*
X5561D01*
X5562Y3969D01*
X5564Y3969D01*
X5565Y3969D01*
X5567Y3968D01*
X5568Y3968D01*
X5568D01*
X5568Y3968D01*
X5568Y3968D01*
X5569Y3967D01*
X5570Y3967D01*
X5571Y3966D01*
X5572Y3965D01*
X5572Y3964D01*
X5573Y3963D01*
Y3963D01*
X5573Y3963D01*
X5574Y3963D01*
X5574Y3963D01*
X5574Y3962D01*
X5574Y3961D01*
X5575Y3960D01*
X5575Y3959D01*
X5575Y3957D01*
X5575Y3956D01*
Y3956D01*
Y3955D01*
X5575Y3955D01*
X5575Y3954D01*
X5575Y3954D01*
X5575Y3953D01*
X5575Y3952D01*
X5574Y3951D01*
X5574Y3950D01*
X5574Y3949D01*
X5573Y3949D01*
X5572Y3948D01*
X5571Y3947D01*
X5570Y3946D01*
X5569Y3945D01*
X5568Y3944D01*
X5576Y3925D01*
X5565D01*
X5558Y3942D01*
X5550D01*
Y3925D01*
X5540D01*
Y3969D01*
X5560D01*
X5561Y3969D01*
D02*
G37*
G36*
X5643Y3119D02*
X5643Y3119D01*
X5644Y3119D01*
X5645Y3119D01*
X5647Y3119D01*
X5649Y3118D01*
X5651Y3118D01*
X5652Y3117D01*
X5653Y3117D01*
X5653D01*
X5653Y3117D01*
X5653Y3117D01*
X5654Y3116D01*
X5654Y3116D01*
X5655Y3115D01*
X5656Y3114D01*
X5658Y3113D01*
X5659Y3111D01*
X5660Y3110D01*
X5660Y3109D01*
X5660Y3109D01*
X5660Y3109D01*
X5661Y3109D01*
X5661Y3108D01*
X5661Y3108D01*
X5661Y3107D01*
X5662Y3106D01*
X5662Y3105D01*
X5662Y3104D01*
X5663Y3103D01*
X5663Y3102D01*
X5663Y3101D01*
X5663Y3100D01*
X5663Y3099D01*
Y3097D01*
Y3097D01*
Y3097D01*
X5663Y3096D01*
Y3096D01*
X5663Y3095D01*
X5663Y3094D01*
X5663Y3093D01*
X5663Y3092D01*
X5662Y3090D01*
X5662Y3089D01*
X5662Y3088D01*
X5661Y3086D01*
X5660Y3085D01*
X5660Y3084D01*
X5659Y3083D01*
X5658Y3081D01*
X5658Y3081D01*
X5657Y3081D01*
X5657Y3081D01*
X5657Y3080D01*
X5656Y3080D01*
X5655Y3079D01*
X5655Y3079D01*
X5654Y3078D01*
X5653Y3078D01*
X5652Y3077D01*
X5650Y3076D01*
X5649Y3076D01*
X5647Y3076D01*
X5646Y3075D01*
X5644Y3075D01*
X5642Y3075D01*
X5627D01*
Y3119D01*
X5642D01*
X5643Y3119D01*
D02*
G37*
G36*
X5601Y3170D02*
X5590D01*
X5577Y3214D01*
X5588D01*
X5597Y3182D01*
X5606Y3214D01*
X5615D01*
X5601Y3170D01*
D02*
G37*
G36*
X5634Y3215D02*
X5635D01*
X5635Y3215D01*
X5636Y3214D01*
X5637Y3214D01*
X5639Y3214D01*
X5640Y3213D01*
X5642Y3213D01*
X5643Y3212D01*
X5644Y3212D01*
X5644Y3211D01*
X5644Y3211D01*
X5644Y3211D01*
X5645Y3211D01*
X5645Y3211D01*
X5645Y3210D01*
X5646Y3209D01*
X5647Y3208D01*
X5648Y3207D01*
X5648Y3206D01*
X5648Y3205D01*
X5649Y3204D01*
X5649Y3203D01*
Y3203D01*
Y3202D01*
X5649Y3202D01*
X5648Y3202D01*
X5648Y3201D01*
X5648Y3200D01*
X5648Y3200D01*
X5648Y3199D01*
X5647Y3198D01*
X5647Y3197D01*
X5646Y3196D01*
X5645Y3196D01*
X5645Y3195D01*
X5644Y3194D01*
X5642Y3194D01*
X5641Y3193D01*
X5641D01*
X5641Y3193D01*
X5642Y3193D01*
X5642Y3192D01*
X5643Y3192D01*
X5644Y3192D01*
X5645Y3191D01*
X5645Y3191D01*
X5646Y3190D01*
X5647Y3189D01*
X5648Y3189D01*
X5649Y3188D01*
X5649Y3187D01*
X5650Y3185D01*
X5650Y3184D01*
X5650Y3183D01*
Y3182D01*
Y3182D01*
Y3182D01*
X5650Y3182D01*
X5650Y3181D01*
X5650Y3181D01*
X5649Y3179D01*
X5649Y3178D01*
X5648Y3177D01*
X5648Y3176D01*
X5648Y3175D01*
X5647Y3174D01*
X5646Y3174D01*
X5645Y3173D01*
X5645Y3173D01*
X5645Y3173D01*
X5645Y3173D01*
X5645Y3172D01*
X5644Y3172D01*
X5643Y3172D01*
X5643Y3171D01*
X5642Y3171D01*
X5641Y3171D01*
X5640Y3170D01*
X5639Y3170D01*
X5638Y3170D01*
X5637Y3170D01*
X5636Y3169D01*
X5634Y3169D01*
X5633Y3169D01*
X5632D01*
X5632Y3169D01*
X5631Y3169D01*
X5630Y3170D01*
X5629Y3170D01*
X5628Y3170D01*
X5627Y3170D01*
X5625Y3171D01*
X5624Y3171D01*
X5623Y3172D01*
X5622Y3172D01*
X5621Y3173D01*
X5621Y3173D01*
X5621Y3173D01*
X5620Y3174D01*
X5620Y3174D01*
X5620Y3174D01*
X5619Y3175D01*
X5619Y3175D01*
X5618Y3176D01*
X5618Y3177D01*
X5617Y3179D01*
X5616Y3181D01*
X5616Y3182D01*
X5615Y3183D01*
X5625Y3184D01*
Y3184D01*
X5625Y3184D01*
X5625Y3183D01*
X5625Y3183D01*
X5625Y3182D01*
X5626Y3182D01*
X5626Y3181D01*
X5626Y3181D01*
X5627Y3180D01*
X5627Y3179D01*
X5628Y3179D01*
X5629Y3178D01*
X5630Y3178D01*
X5630Y3177D01*
X5631Y3177D01*
X5633Y3177D01*
X5633D01*
X5634Y3177D01*
X5634Y3177D01*
X5635Y3178D01*
X5636Y3178D01*
X5637Y3178D01*
X5638Y3179D01*
X5638Y3179D01*
X5638Y3179D01*
X5638Y3179D01*
X5638Y3180D01*
X5639Y3181D01*
X5639Y3181D01*
X5639Y3182D01*
X5639Y3183D01*
Y3183D01*
Y3184D01*
X5639Y3184D01*
X5639Y3185D01*
X5639Y3185D01*
X5639Y3186D01*
X5638Y3187D01*
X5638Y3187D01*
X5638Y3187D01*
X5637Y3188D01*
X5637Y3188D01*
X5636Y3188D01*
X5635Y3188D01*
X5634Y3189D01*
X5633Y3189D01*
X5632Y3189D01*
X5627D01*
Y3197D01*
X5632D01*
X5633Y3197D01*
X5634Y3197D01*
X5635Y3197D01*
X5636Y3197D01*
X5636Y3198D01*
X5637Y3198D01*
X5637Y3198D01*
X5637Y3198D01*
X5638Y3199D01*
X5638Y3199D01*
X5638Y3200D01*
X5638Y3200D01*
X5638Y3201D01*
X5639Y3202D01*
Y3202D01*
Y3202D01*
X5638Y3202D01*
X5638Y3203D01*
X5638Y3204D01*
X5638Y3204D01*
X5638Y3205D01*
X5637Y3205D01*
X5637Y3206D01*
X5637Y3206D01*
X5636Y3206D01*
X5636Y3206D01*
X5635Y3207D01*
X5634Y3207D01*
X5634Y3207D01*
X5633Y3207D01*
X5632D01*
X5632Y3207D01*
X5632D01*
X5631Y3207D01*
X5631Y3207D01*
X5630Y3206D01*
X5629Y3206D01*
X5629Y3206D01*
X5628Y3205D01*
X5628Y3205D01*
X5627Y3204D01*
X5627Y3203D01*
X5626Y3202D01*
X5626Y3201D01*
X5617Y3203D01*
Y3203D01*
X5617Y3203D01*
X5617Y3203D01*
X5617Y3204D01*
X5617Y3204D01*
X5617Y3205D01*
X5618Y3206D01*
X5619Y3207D01*
X5620Y3209D01*
X5621Y3210D01*
X5621Y3211D01*
X5622Y3211D01*
X5622Y3211D01*
X5622Y3211D01*
X5623Y3212D01*
X5623Y3212D01*
X5623Y3212D01*
X5624Y3212D01*
X5624Y3213D01*
X5625Y3213D01*
X5626Y3213D01*
X5627Y3214D01*
X5629Y3214D01*
X5631Y3215D01*
X5632Y3215D01*
X5633Y3215D01*
X5633D01*
X5634Y3215D01*
D02*
G37*
G36*
X5618Y3075D02*
X5609D01*
X5592Y3105D01*
Y3105D01*
Y3104D01*
Y3104D01*
Y3104D01*
X5592Y3103D01*
Y3103D01*
Y3103D01*
Y3103D01*
X5593Y3103D01*
Y3103D01*
X5593Y3102D01*
Y3101D01*
Y3075D01*
X5585D01*
Y3119D01*
X5596D01*
X5611Y3093D01*
Y3093D01*
Y3093D01*
X5611Y3094D01*
Y3094D01*
X5610Y3095D01*
X5610Y3096D01*
Y3096D01*
Y3119D01*
X5618D01*
Y3075D01*
D02*
G37*
G36*
X5640Y4053D02*
X5653Y4025D01*
X5642D01*
X5633Y4044D01*
X5627Y4035D01*
Y4025D01*
X5617D01*
Y4069D01*
X5627D01*
Y4048D01*
X5641Y4069D01*
X5651D01*
X5640Y4053D01*
D02*
G37*
G36*
X5594Y4034D02*
X5611D01*
Y4025D01*
X5584D01*
Y4069D01*
X5594D01*
Y4034D01*
D02*
G37*
G36*
X5560Y3120D02*
X5561Y3120D01*
X5562Y3119D01*
X5562Y3119D01*
X5563Y3119D01*
X5565Y3119D01*
X5566Y3118D01*
X5567Y3118D01*
X5568Y3117D01*
X5569Y3117D01*
X5570Y3116D01*
X5571Y3116D01*
X5571Y3115D01*
X5571Y3115D01*
X5571Y3115D01*
X5572Y3115D01*
X5572Y3114D01*
X5572Y3114D01*
X5573Y3113D01*
X5573Y3113D01*
X5574Y3112D01*
X5574Y3111D01*
X5575Y3110D01*
X5575Y3109D01*
X5576Y3108D01*
X5576Y3107D01*
X5576Y3106D01*
X5576Y3104D01*
X5567Y3103D01*
Y3103D01*
X5567Y3104D01*
X5567Y3104D01*
X5566Y3104D01*
X5566Y3105D01*
X5566Y3106D01*
X5566Y3107D01*
X5565Y3107D01*
X5565Y3108D01*
X5564Y3109D01*
X5564Y3109D01*
X5563Y3110D01*
X5562Y3111D01*
X5561Y3111D01*
X5560Y3111D01*
X5559Y3111D01*
X5559D01*
X5558Y3111D01*
X5558Y3111D01*
X5557Y3111D01*
X5556Y3110D01*
X5555Y3110D01*
X5554Y3109D01*
X5554Y3109D01*
X5553Y3108D01*
X5553Y3107D01*
Y3107D01*
X5553Y3107D01*
X5552Y3107D01*
X5552Y3107D01*
X5552Y3106D01*
X5552Y3106D01*
X5552Y3105D01*
X5552Y3105D01*
X5551Y3104D01*
X5551Y3103D01*
X5551Y3102D01*
X5551Y3101D01*
X5551Y3100D01*
X5551Y3099D01*
X5551Y3098D01*
Y3097D01*
Y3097D01*
Y3096D01*
Y3096D01*
X5551Y3096D01*
Y3095D01*
X5551Y3094D01*
X5551Y3094D01*
X5551Y3093D01*
X5551Y3091D01*
X5552Y3089D01*
X5552Y3088D01*
X5552Y3087D01*
X5553Y3086D01*
Y3086D01*
X5553Y3086D01*
X5553Y3086D01*
X5554Y3085D01*
X5555Y3085D01*
X5555Y3084D01*
X5557Y3083D01*
X5558Y3083D01*
X5559Y3083D01*
X5560Y3083D01*
X5560D01*
X5560Y3083D01*
X5561Y3083D01*
X5562Y3083D01*
X5563Y3083D01*
X5564Y3084D01*
X5564Y3084D01*
X5564Y3085D01*
X5565Y3085D01*
X5565Y3085D01*
X5566Y3086D01*
X5566Y3087D01*
X5566Y3088D01*
X5567Y3089D01*
X5567Y3090D01*
X5558D01*
Y3099D01*
X5576D01*
Y3075D01*
X5572D01*
Y3075D01*
X5572Y3075D01*
X5572Y3076D01*
X5571Y3077D01*
X5571Y3077D01*
X5571Y3078D01*
X5570Y3080D01*
X5570Y3080D01*
X5570Y3080D01*
X5570Y3079D01*
X5569Y3079D01*
X5569Y3079D01*
X5568Y3078D01*
X5568Y3078D01*
X5567Y3077D01*
X5566Y3077D01*
X5565Y3076D01*
X5564Y3076D01*
X5563Y3075D01*
X5562Y3075D01*
X5561Y3075D01*
X5560Y3074D01*
X5558Y3074D01*
X5558D01*
X5557Y3074D01*
X5557D01*
X5556Y3075D01*
X5555Y3075D01*
X5554Y3075D01*
X5553Y3075D01*
X5552Y3075D01*
X5551Y3076D01*
X5550Y3076D01*
X5549Y3077D01*
X5548Y3078D01*
X5547Y3078D01*
X5546Y3079D01*
X5545Y3080D01*
X5545Y3080D01*
X5545Y3081D01*
X5544Y3081D01*
X5544Y3082D01*
X5544Y3082D01*
X5543Y3083D01*
X5543Y3084D01*
X5542Y3085D01*
X5542Y3086D01*
X5542Y3087D01*
X5541Y3088D01*
X5541Y3090D01*
X5540Y3091D01*
X5540Y3093D01*
X5540Y3095D01*
X5540Y3096D01*
Y3097D01*
Y3097D01*
X5540Y3097D01*
Y3098D01*
X5540Y3099D01*
X5540Y3100D01*
X5540Y3101D01*
X5541Y3102D01*
X5541Y3104D01*
X5541Y3105D01*
X5542Y3107D01*
X5542Y3108D01*
X5543Y3109D01*
X5543Y3111D01*
X5544Y3112D01*
X5545Y3113D01*
X5545Y3113D01*
X5545Y3114D01*
X5546Y3114D01*
X5546Y3114D01*
X5547Y3115D01*
X5547Y3115D01*
X5548Y3116D01*
X5549Y3117D01*
X5550Y3117D01*
X5551Y3118D01*
X5552Y3118D01*
X5553Y3119D01*
X5554Y3119D01*
X5556Y3119D01*
X5557Y3120D01*
X5559Y3120D01*
X5560D01*
X5560Y3120D01*
D02*
G37*
G36*
X6445Y3011D02*
X6446Y3011D01*
X6448Y3011D01*
X6449Y3011D01*
X6451Y3010D01*
X6454Y3009D01*
X6456Y3009D01*
X6458Y3008D01*
X6459Y3007D01*
X6461Y3006D01*
X6463Y3004D01*
X6465Y3003D01*
X6465Y3002D01*
X6465Y3002D01*
X6466Y3002D01*
X6466Y3001D01*
X6467Y3000D01*
X6468Y2999D01*
X6469Y2997D01*
X6469Y2996D01*
X6470Y2994D01*
X6471Y2992D01*
X6472Y2989D01*
X6473Y2987D01*
X6473Y2984D01*
X6474Y2981D01*
X6474Y2978D01*
X6474Y2974D01*
X6432D01*
Y2974D01*
Y2974D01*
Y2973D01*
Y2972D01*
Y2971D01*
Y2971D01*
Y2971D01*
Y2970D01*
X6432Y2969D01*
X6432Y2967D01*
X6433Y2966D01*
X6433Y2964D01*
X6434Y2962D01*
X6435Y2961D01*
X6436Y2961D01*
X6436Y2960D01*
X6437Y2960D01*
X6438Y2959D01*
X6439Y2958D01*
X6441Y2958D01*
X6443Y2957D01*
X6444Y2957D01*
X6445D01*
X6445Y2957D01*
X6446D01*
X6448Y2958D01*
X6449Y2958D01*
X6450Y2959D01*
X6451Y2960D01*
X6452Y2961D01*
X6453Y2962D01*
X6454Y2963D01*
X6455Y2964D01*
X6456Y2966D01*
X6456Y2967D01*
X6474Y2966D01*
X6473Y2966D01*
X6473Y2965D01*
X6473Y2964D01*
X6472Y2963D01*
X6471Y2961D01*
X6470Y2959D01*
X6469Y2957D01*
X6467Y2955D01*
X6465Y2953D01*
X6463Y2951D01*
X6461Y2949D01*
X6458Y2947D01*
X6455Y2946D01*
X6451Y2945D01*
X6448Y2944D01*
X6444Y2944D01*
X6442D01*
X6441Y2944D01*
X6440Y2944D01*
X6438Y2944D01*
X6435Y2945D01*
X6433Y2945D01*
X6430Y2946D01*
X6427Y2947D01*
X6427D01*
X6427Y2948D01*
X6426Y2948D01*
X6425Y2949D01*
X6423Y2950D01*
X6421Y2952D01*
X6420Y2954D01*
X6418Y2956D01*
X6416Y2959D01*
Y2959D01*
X6416Y2959D01*
X6415Y2960D01*
X6415Y2960D01*
X6415Y2961D01*
X6415Y2962D01*
X6414Y2964D01*
X6413Y2967D01*
X6412Y2970D01*
X6412Y2973D01*
X6412Y2977D01*
Y2977D01*
Y2977D01*
Y2978D01*
X6412Y2979D01*
X6412Y2981D01*
X6412Y2982D01*
X6412Y2984D01*
X6413Y2986D01*
X6414Y2990D01*
X6415Y2992D01*
X6415Y2994D01*
X6416Y2996D01*
X6417Y2998D01*
X6419Y3000D01*
X6420Y3002D01*
X6420Y3002D01*
X6421Y3002D01*
X6421Y3003D01*
X6422Y3003D01*
X6423Y3004D01*
X6424Y3005D01*
X6425Y3006D01*
X6427Y3007D01*
X6428Y3008D01*
X6430Y3008D01*
X6432Y3009D01*
X6434Y3010D01*
X6436Y3011D01*
X6438Y3011D01*
X6441Y3011D01*
X6443Y3011D01*
X6444D01*
X6445Y3011D01*
D02*
G37*
G36*
X6303D02*
X6304Y3011D01*
X6305Y3011D01*
X6307Y3011D01*
X6309Y3010D01*
X6311Y3010D01*
X6312Y3009D01*
X6314Y3008D01*
X6316Y3007D01*
X6318Y3006D01*
X6320Y3005D01*
X6322Y3003D01*
X6323Y3002D01*
X6324Y3001D01*
X6324Y3001D01*
X6324Y3001D01*
X6325Y3000D01*
X6325Y2999D01*
X6326Y2998D01*
X6327Y2996D01*
X6328Y2995D01*
X6328Y2993D01*
X6329Y2991D01*
X6330Y2989D01*
X6331Y2987D01*
X6331Y2985D01*
X6332Y2983D01*
X6332Y2980D01*
X6332Y2977D01*
Y2977D01*
Y2977D01*
Y2976D01*
X6332Y2975D01*
X6332Y2974D01*
X6332Y2972D01*
X6331Y2971D01*
X6331Y2969D01*
X6330Y2965D01*
X6329Y2963D01*
X6328Y2961D01*
X6327Y2959D01*
X6326Y2957D01*
X6325Y2955D01*
X6323Y2953D01*
X6323Y2953D01*
X6323Y2953D01*
X6322Y2952D01*
X6322Y2952D01*
X6321Y2951D01*
X6320Y2950D01*
X6318Y2949D01*
X6317Y2948D01*
X6316Y2947D01*
X6314Y2947D01*
X6312Y2946D01*
X6310Y2945D01*
X6308Y2944D01*
X6305Y2944D01*
X6303Y2944D01*
X6300Y2944D01*
X6299D01*
X6298Y2944D01*
X6297Y2944D01*
X6295Y2944D01*
X6294Y2944D01*
X6292Y2945D01*
X6289Y2946D01*
X6287Y2947D01*
X6285Y2948D01*
X6283Y2949D01*
X6281Y2950D01*
X6280Y2951D01*
X6278Y2953D01*
X6278Y2953D01*
X6278Y2953D01*
X6277Y2954D01*
X6277Y2955D01*
X6276Y2956D01*
X6275Y2957D01*
X6275Y2958D01*
X6274Y2960D01*
X6273Y2961D01*
X6272Y2963D01*
X6272Y2965D01*
X6271Y2967D01*
X6270Y2970D01*
X6270Y2972D01*
X6270Y2975D01*
X6270Y2978D01*
Y2978D01*
Y2978D01*
Y2979D01*
Y2979D01*
X6270Y2980D01*
Y2981D01*
X6270Y2984D01*
X6271Y2987D01*
X6271Y2989D01*
X6272Y2992D01*
X6273Y2995D01*
Y2995D01*
X6273Y2996D01*
X6274Y2996D01*
X6274Y2996D01*
X6275Y2998D01*
X6276Y2999D01*
X6278Y3001D01*
X6279Y3003D01*
X6281Y3005D01*
X6284Y3007D01*
X6284D01*
X6284Y3007D01*
X6284Y3007D01*
X6285Y3008D01*
X6286Y3008D01*
X6288Y3009D01*
X6291Y3010D01*
X6293Y3011D01*
X6297Y3011D01*
X6300Y3011D01*
X6302D01*
X6303Y3011D01*
D02*
G37*
G36*
X5826D02*
X5827Y3011D01*
X5829Y3011D01*
X5830Y3011D01*
X5832Y3010D01*
X5835Y3009D01*
X5837Y3009D01*
X5839Y3008D01*
X5840Y3007D01*
X5842Y3006D01*
X5844Y3004D01*
X5846Y3003D01*
X5846Y3002D01*
X5846Y3002D01*
X5847Y3002D01*
X5847Y3001D01*
X5848Y3000D01*
X5849Y2999D01*
X5849Y2997D01*
X5850Y2996D01*
X5851Y2994D01*
X5852Y2992D01*
X5853Y2989D01*
X5853Y2987D01*
X5854Y2984D01*
X5854Y2981D01*
X5855Y2978D01*
X5855Y2974D01*
X5813D01*
Y2974D01*
Y2974D01*
Y2973D01*
Y2972D01*
Y2971D01*
Y2971D01*
Y2971D01*
Y2970D01*
X5813Y2969D01*
X5813Y2967D01*
X5814Y2966D01*
X5814Y2964D01*
X5815Y2962D01*
X5816Y2961D01*
X5817Y2961D01*
X5817Y2960D01*
X5818Y2960D01*
X5819Y2959D01*
X5820Y2958D01*
X5822Y2958D01*
X5824Y2957D01*
X5825Y2957D01*
X5826D01*
X5826Y2957D01*
X5827D01*
X5829Y2958D01*
X5830Y2958D01*
X5831Y2959D01*
X5832Y2960D01*
X5833Y2961D01*
X5834Y2962D01*
X5835Y2963D01*
X5836Y2964D01*
X5837Y2966D01*
X5837Y2967D01*
X5854Y2966D01*
X5854Y2966D01*
X5854Y2965D01*
X5854Y2964D01*
X5853Y2963D01*
X5852Y2961D01*
X5851Y2959D01*
X5850Y2957D01*
X5848Y2955D01*
X5846Y2953D01*
X5844Y2951D01*
X5842Y2949D01*
X5839Y2947D01*
X5836Y2946D01*
X5832Y2945D01*
X5829Y2944D01*
X5825Y2944D01*
X5823D01*
X5822Y2944D01*
X5821Y2944D01*
X5819Y2944D01*
X5816Y2945D01*
X5814Y2945D01*
X5811Y2946D01*
X5808Y2947D01*
X5808D01*
X5808Y2948D01*
X5807Y2948D01*
X5806Y2949D01*
X5804Y2950D01*
X5802Y2952D01*
X5800Y2954D01*
X5799Y2956D01*
X5797Y2959D01*
Y2959D01*
X5797Y2959D01*
X5796Y2960D01*
X5796Y2960D01*
X5796Y2961D01*
X5795Y2962D01*
X5795Y2964D01*
X5794Y2967D01*
X5793Y2970D01*
X5793Y2973D01*
X5793Y2977D01*
Y2977D01*
Y2977D01*
Y2978D01*
X5793Y2979D01*
X5793Y2981D01*
X5793Y2982D01*
X5793Y2984D01*
X5794Y2986D01*
X5795Y2990D01*
X5795Y2992D01*
X5796Y2994D01*
X5797Y2996D01*
X5798Y2998D01*
X5800Y3000D01*
X5801Y3002D01*
X5801Y3002D01*
X5802Y3002D01*
X5802Y3003D01*
X5803Y3003D01*
X5804Y3004D01*
X5805Y3005D01*
X5806Y3006D01*
X5808Y3007D01*
X5809Y3008D01*
X5811Y3008D01*
X5813Y3009D01*
X5815Y3010D01*
X5817Y3011D01*
X5819Y3011D01*
X5822Y3011D01*
X5824Y3011D01*
X5825D01*
X5826Y3011D01*
D02*
G37*
G36*
X6039Y2945D02*
X6019D01*
Y3010D01*
X6039D01*
Y2945D01*
D02*
G37*
G36*
X6009Y3016D02*
X5968D01*
Y2996D01*
X6001D01*
Y2979D01*
X5968D01*
Y2945D01*
X5947D01*
Y3033D01*
X6009D01*
Y3016D01*
D02*
G37*
G36*
X5503Y3016D02*
X5461D01*
Y2998D01*
X5494D01*
Y2982D01*
X5461D01*
Y2962D01*
X5503D01*
Y2945D01*
X5440D01*
Y3033D01*
X5503D01*
Y3016D01*
D02*
G37*
G36*
X5684Y3011D02*
X5685Y3011D01*
X5686Y3011D01*
X5688Y3011D01*
X5690Y3010D01*
X5692Y3010D01*
X5693Y3009D01*
X5695Y3008D01*
X5697Y3007D01*
X5699Y3006D01*
X5701Y3005D01*
X5703Y3003D01*
X5704Y3002D01*
X5705Y3001D01*
X5705Y3001D01*
X5705Y3001D01*
X5706Y3000D01*
X5706Y2999D01*
X5707Y2998D01*
X5708Y2996D01*
X5709Y2995D01*
X5709Y2993D01*
X5710Y2991D01*
X5711Y2989D01*
X5712Y2987D01*
X5712Y2985D01*
X5712Y2983D01*
X5713Y2980D01*
X5713Y2977D01*
Y2977D01*
Y2977D01*
Y2976D01*
X5713Y2975D01*
X5713Y2974D01*
X5712Y2972D01*
X5712Y2971D01*
X5712Y2969D01*
X5711Y2965D01*
X5710Y2963D01*
X5709Y2961D01*
X5708Y2959D01*
X5707Y2957D01*
X5706Y2955D01*
X5704Y2953D01*
X5704Y2953D01*
X5704Y2953D01*
X5703Y2952D01*
X5703Y2952D01*
X5702Y2951D01*
X5701Y2950D01*
X5699Y2949D01*
X5698Y2948D01*
X5697Y2947D01*
X5695Y2947D01*
X5693Y2946D01*
X5691Y2945D01*
X5689Y2944D01*
X5686Y2944D01*
X5684Y2944D01*
X5681Y2944D01*
X5680D01*
X5679Y2944D01*
X5678Y2944D01*
X5676Y2944D01*
X5675Y2944D01*
X5673Y2945D01*
X5670Y2946D01*
X5668Y2947D01*
X5666Y2948D01*
X5664Y2949D01*
X5662Y2950D01*
X5661Y2951D01*
X5659Y2953D01*
X5659Y2953D01*
X5658Y2953D01*
X5658Y2954D01*
X5658Y2955D01*
X5657Y2956D01*
X5656Y2957D01*
X5656Y2958D01*
X5655Y2960D01*
X5654Y2961D01*
X5653Y2963D01*
X5653Y2965D01*
X5652Y2967D01*
X5651Y2970D01*
X5651Y2972D01*
X5651Y2975D01*
X5651Y2978D01*
Y2978D01*
Y2978D01*
Y2979D01*
Y2979D01*
X5651Y2980D01*
Y2981D01*
X5651Y2984D01*
X5652Y2987D01*
X5652Y2989D01*
X5653Y2992D01*
X5654Y2995D01*
Y2995D01*
X5654Y2996D01*
X5655Y2996D01*
X5655Y2996D01*
X5656Y2998D01*
X5657Y2999D01*
X5658Y3001D01*
X5660Y3003D01*
X5662Y3005D01*
X5665Y3007D01*
X5665D01*
X5665Y3007D01*
X5665Y3007D01*
X5666Y3008D01*
X5667Y3008D01*
X5669Y3009D01*
X5672Y3010D01*
X5674Y3011D01*
X5678Y3011D01*
X5681Y3011D01*
X5683D01*
X5684Y3011D01*
D02*
G37*
G36*
X5593Y4380D02*
X5583D01*
Y4424D01*
X5593D01*
Y4380D01*
D02*
G37*
G36*
X5555Y4424D02*
X5556Y4424D01*
X5557Y4424D01*
X5558Y4424D01*
X5560Y4424D01*
X5562Y4423D01*
X5564Y4423D01*
X5565Y4422D01*
X5566Y4422D01*
X5566D01*
X5566Y4422D01*
X5566Y4422D01*
X5566Y4421D01*
X5567Y4421D01*
X5568Y4420D01*
X5569Y4419D01*
X5570Y4418D01*
X5572Y4416D01*
X5573Y4415D01*
X5573Y4414D01*
X5573Y4414D01*
X5573Y4414D01*
X5573Y4414D01*
X5574Y4413D01*
X5574Y4413D01*
X5574Y4412D01*
X5574Y4411D01*
X5575Y4410D01*
X5575Y4409D01*
X5575Y4408D01*
X5576Y4407D01*
X5576Y4406D01*
X5576Y4405D01*
X5576Y4404D01*
Y4402D01*
Y4402D01*
Y4402D01*
X5576Y4401D01*
Y4401D01*
X5576Y4400D01*
X5576Y4399D01*
X5576Y4398D01*
X5575Y4397D01*
X5575Y4395D01*
X5575Y4394D01*
X5574Y4393D01*
X5574Y4391D01*
X5573Y4390D01*
X5572Y4389D01*
X5571Y4388D01*
X5570Y4386D01*
X5570Y4386D01*
X5570Y4386D01*
X5570Y4386D01*
X5569Y4385D01*
X5569Y4385D01*
X5568Y4384D01*
X5567Y4384D01*
X5566Y4383D01*
X5565Y4383D01*
X5564Y4382D01*
X5563Y4381D01*
X5562Y4381D01*
X5560Y4381D01*
X5559Y4380D01*
X5557Y4380D01*
X5555Y4380D01*
X5540D01*
Y4424D01*
X5555D01*
X5555Y4424D01*
D02*
G37*
G36*
X5620Y4425D02*
X5620Y4425D01*
X5621Y4424D01*
X5622Y4424D01*
X5623Y4424D01*
X5624Y4424D01*
X5625Y4423D01*
X5626Y4423D01*
X5627Y4422D01*
X5629Y4422D01*
X5630Y4421D01*
X5631Y4420D01*
X5632Y4419D01*
X5633Y4418D01*
X5633Y4418D01*
X5633Y4417D01*
X5633Y4417D01*
X5633Y4417D01*
X5634Y4416D01*
X5634Y4415D01*
X5635Y4414D01*
X5635Y4413D01*
X5635Y4412D01*
X5636Y4411D01*
X5636Y4410D01*
X5637Y4408D01*
X5637Y4407D01*
X5637Y4405D01*
X5637Y4404D01*
X5637Y4402D01*
Y4402D01*
Y4402D01*
Y4401D01*
X5637Y4400D01*
X5637Y4400D01*
X5637Y4399D01*
X5637Y4398D01*
X5637Y4396D01*
X5637Y4395D01*
X5636Y4394D01*
X5636Y4392D01*
X5635Y4391D01*
X5635Y4390D01*
X5634Y4388D01*
X5633Y4387D01*
X5633Y4386D01*
X5633Y4386D01*
X5632Y4386D01*
X5632Y4385D01*
X5632Y4385D01*
X5631Y4384D01*
X5631Y4384D01*
X5630Y4383D01*
X5629Y4383D01*
X5628Y4382D01*
X5627Y4381D01*
X5626Y4381D01*
X5625Y4380D01*
X5623Y4380D01*
X5622Y4380D01*
X5620Y4379D01*
X5618Y4379D01*
X5618D01*
X5618Y4379D01*
X5617Y4379D01*
X5616Y4380D01*
X5615Y4380D01*
X5614Y4380D01*
X5613Y4380D01*
X5612Y4380D01*
X5611Y4381D01*
X5610Y4381D01*
X5609Y4382D01*
X5608Y4383D01*
X5607Y4384D01*
X5606Y4385D01*
X5605Y4386D01*
X5605Y4386D01*
X5604Y4386D01*
X5604Y4387D01*
X5604Y4387D01*
X5604Y4388D01*
X5603Y4389D01*
X5603Y4390D01*
X5602Y4390D01*
X5602Y4392D01*
X5601Y4393D01*
X5601Y4394D01*
X5601Y4396D01*
X5600Y4397D01*
X5600Y4399D01*
X5600Y4400D01*
X5600Y4402D01*
Y4402D01*
Y4403D01*
Y4403D01*
X5600Y4404D01*
X5600Y4405D01*
X5600Y4406D01*
X5600Y4407D01*
X5600Y4408D01*
X5601Y4409D01*
X5601Y4410D01*
X5601Y4412D01*
X5602Y4413D01*
X5602Y4414D01*
X5603Y4416D01*
X5604Y4417D01*
X5605Y4418D01*
X5605Y4418D01*
X5605Y4419D01*
X5605Y4419D01*
X5606Y4419D01*
X5606Y4420D01*
X5607Y4420D01*
X5608Y4421D01*
X5608Y4422D01*
X5609Y4422D01*
X5610Y4423D01*
X5611Y4423D01*
X5613Y4424D01*
X5614Y4424D01*
X5616Y4424D01*
X5617Y4425D01*
X5619Y4425D01*
X5619D01*
X5620Y4425D01*
D02*
G37*
G36*
X5561Y4620D02*
X5561Y4620D01*
X5562Y4619D01*
X5563Y4619D01*
X5565Y4619D01*
X5566Y4618D01*
X5568Y4618D01*
X5569Y4617D01*
X5571Y4616D01*
X5573Y4614D01*
X5573Y4613D01*
X5574Y4612D01*
X5575Y4612D01*
X5575Y4611D01*
X5576Y4609D01*
X5576Y4608D01*
X5577Y4607D01*
X5577Y4606D01*
X5577Y4604D01*
X5578Y4603D01*
X5567Y4602D01*
Y4602D01*
Y4602D01*
X5567Y4603D01*
X5567Y4603D01*
X5567Y4604D01*
X5566Y4605D01*
X5566Y4606D01*
X5566Y4607D01*
X5565Y4607D01*
X5565Y4608D01*
X5564Y4609D01*
X5564Y4610D01*
X5563Y4610D01*
X5562Y4611D01*
X5561Y4611D01*
X5560Y4611D01*
X5559D01*
X5559Y4611D01*
X5558Y4611D01*
X5558Y4611D01*
X5557Y4611D01*
X5556Y4610D01*
X5555Y4609D01*
X5555Y4609D01*
X5554Y4608D01*
X5553Y4607D01*
X5553Y4605D01*
X5552Y4604D01*
X5552Y4603D01*
X5552Y4602D01*
X5552Y4601D01*
X5552Y4599D01*
X5551Y4598D01*
Y4597D01*
Y4597D01*
Y4597D01*
Y4596D01*
X5552Y4596D01*
Y4595D01*
X5552Y4594D01*
X5552Y4593D01*
X5552Y4592D01*
X5552Y4590D01*
X5552Y4589D01*
X5553Y4588D01*
X5553Y4587D01*
X5553Y4586D01*
X5554Y4586D01*
X5554Y4585D01*
X5554Y4585D01*
X5555Y4585D01*
X5555Y4584D01*
X5556Y4584D01*
X5557Y4583D01*
X5558Y4583D01*
X5560Y4583D01*
X5560D01*
X5560Y4583D01*
X5561Y4583D01*
X5561Y4583D01*
X5562Y4583D01*
X5562Y4583D01*
X5563Y4584D01*
X5564Y4584D01*
X5564Y4585D01*
X5565Y4585D01*
X5566Y4586D01*
X5566Y4587D01*
X5567Y4588D01*
X5567Y4590D01*
X5568Y4591D01*
X5578Y4590D01*
Y4590D01*
X5578Y4590D01*
X5577Y4590D01*
X5577Y4589D01*
X5577Y4588D01*
X5577Y4588D01*
X5577Y4587D01*
X5577Y4586D01*
X5576Y4584D01*
X5575Y4583D01*
X5575Y4582D01*
X5574Y4581D01*
X5573Y4580D01*
X5573Y4579D01*
X5572Y4578D01*
X5572Y4578D01*
X5572Y4578D01*
X5571Y4578D01*
X5571Y4578D01*
X5570Y4577D01*
X5570Y4577D01*
X5569Y4577D01*
X5568Y4576D01*
X5568Y4576D01*
X5567Y4576D01*
X5566Y4575D01*
X5565Y4575D01*
X5563Y4575D01*
X5562Y4575D01*
X5561Y4574D01*
X5560Y4574D01*
X5559D01*
X5559Y4574D01*
X5558D01*
X5557Y4575D01*
X5557Y4575D01*
X5556Y4575D01*
X5555Y4575D01*
X5553Y4575D01*
X5552Y4576D01*
X5551Y4576D01*
X5550Y4577D01*
X5549Y4577D01*
X5548Y4578D01*
X5546Y4579D01*
X5545Y4580D01*
X5545Y4580D01*
X5545Y4581D01*
X5545Y4581D01*
X5545Y4581D01*
X5544Y4582D01*
X5544Y4583D01*
X5543Y4584D01*
X5543Y4585D01*
X5542Y4586D01*
X5542Y4587D01*
X5541Y4588D01*
X5541Y4590D01*
X5540Y4592D01*
X5540Y4593D01*
X5540Y4595D01*
X5540Y4597D01*
Y4597D01*
Y4597D01*
X5540Y4598D01*
Y4599D01*
X5540Y4599D01*
X5540Y4600D01*
X5540Y4602D01*
X5541Y4603D01*
X5541Y4604D01*
X5541Y4605D01*
X5542Y4607D01*
X5542Y4608D01*
X5543Y4609D01*
X5544Y4611D01*
X5544Y4612D01*
X5545Y4613D01*
X5545Y4613D01*
X5546Y4614D01*
X5546Y4614D01*
X5546Y4614D01*
X5547Y4615D01*
X5547Y4615D01*
X5548Y4616D01*
X5549Y4617D01*
X5550Y4617D01*
X5551Y4618D01*
X5552Y4618D01*
X5554Y4619D01*
X5555Y4619D01*
X5556Y4619D01*
X5558Y4620D01*
X5560Y4620D01*
X5560D01*
X5561Y4620D01*
D02*
G37*
G36*
X5640Y4603D02*
X5653Y4575D01*
X5642D01*
X5633Y4594D01*
X5627Y4585D01*
Y4575D01*
X5617D01*
Y4619D01*
X5627D01*
Y4598D01*
X5641Y4619D01*
X5651D01*
X5640Y4603D01*
D02*
G37*
G36*
X5594Y4584D02*
X5611D01*
Y4575D01*
X5584D01*
Y4619D01*
X5594D01*
Y4584D01*
D02*
G37*
G36*
X6092Y3011D02*
X6092D01*
X6093Y3011D01*
X6096Y3011D01*
X6098Y3010D01*
X6100Y3009D01*
X6103Y3008D01*
X6105Y3006D01*
X6105Y3006D01*
X6106Y3006D01*
X6106Y3005D01*
X6107Y3005D01*
X6107Y3004D01*
X6107Y3003D01*
X6108Y3002D01*
X6108Y3001D01*
X6109Y2999D01*
X6110Y2998D01*
X6110Y2996D01*
X6110Y2994D01*
X6111Y2992D01*
X6111Y2989D01*
Y2987D01*
Y2945D01*
X6092D01*
Y2982D01*
Y2982D01*
Y2982D01*
Y2983D01*
Y2984D01*
Y2985D01*
X6091Y2987D01*
X6091Y2988D01*
X6091Y2989D01*
X6091Y2991D01*
Y2991D01*
X6091Y2991D01*
X6091Y2991D01*
X6090Y2992D01*
X6090Y2993D01*
X6088Y2995D01*
X6088Y2995D01*
X6088Y2995D01*
X6088Y2995D01*
X6087Y2996D01*
X6086Y2996D01*
X6086Y2996D01*
X6085Y2996D01*
X6083Y2996D01*
X6083D01*
X6083Y2996D01*
X6082Y2996D01*
X6080Y2996D01*
X6079Y2995D01*
X6078Y2995D01*
X6078Y2994D01*
X6077Y2993D01*
X6076Y2992D01*
X6075Y2990D01*
X6074Y2988D01*
X6074Y2987D01*
X6074Y2984D01*
X6073Y2982D01*
Y2945D01*
X6054D01*
Y3010D01*
X6072D01*
Y2999D01*
X6072Y2999D01*
X6073Y3000D01*
X6073Y3000D01*
X6074Y3002D01*
X6075Y3003D01*
X6076Y3005D01*
X6078Y3007D01*
X6079Y3008D01*
X6081Y3009D01*
X6081Y3009D01*
X6082Y3010D01*
X6083Y3010D01*
X6084Y3010D01*
X6085Y3011D01*
X6087Y3011D01*
X6088Y3011D01*
X6090Y3011D01*
X6091D01*
X6092Y3011D01*
D02*
G37*
G36*
X5552D02*
X5553D01*
X5553Y3011D01*
X5556Y3011D01*
X5558Y3010D01*
X5560Y3009D01*
X5563Y3008D01*
X5565Y3006D01*
X5565Y3006D01*
X5566Y3006D01*
X5566Y3005D01*
X5567Y3005D01*
X5567Y3004D01*
X5568Y3003D01*
X5568Y3002D01*
X5569Y3001D01*
X5569Y2999D01*
X5570Y2998D01*
X5570Y2996D01*
X5570Y2994D01*
X5571Y2992D01*
X5571Y2989D01*
Y2987D01*
Y2945D01*
X5552D01*
Y2982D01*
Y2982D01*
Y2982D01*
Y2983D01*
Y2984D01*
Y2985D01*
X5551Y2987D01*
X5551Y2988D01*
X5551Y2989D01*
X5551Y2991D01*
Y2991D01*
X5551Y2991D01*
X5551Y2991D01*
X5550Y2992D01*
X5550Y2993D01*
X5549Y2995D01*
X5548Y2995D01*
X5548Y2995D01*
X5548Y2995D01*
X5547Y2996D01*
X5546Y2996D01*
X5546Y2996D01*
X5545Y2996D01*
X5544Y2996D01*
X5543D01*
X5543Y2996D01*
X5542Y2996D01*
X5540Y2996D01*
X5540Y2995D01*
X5539Y2995D01*
X5538Y2994D01*
X5537Y2993D01*
X5536Y2992D01*
X5535Y2990D01*
X5535Y2988D01*
X5534Y2987D01*
X5534Y2984D01*
X5534Y2982D01*
Y2945D01*
X5514D01*
Y3010D01*
X5532D01*
Y2999D01*
X5532Y2999D01*
X5533Y3000D01*
X5533Y3000D01*
X5534Y3002D01*
X5535Y3003D01*
X5536Y3005D01*
X5538Y3007D01*
X5539Y3008D01*
X5541Y3009D01*
X5541Y3009D01*
X5542Y3010D01*
X5543Y3010D01*
X5544Y3010D01*
X5545Y3011D01*
X5547Y3011D01*
X5548Y3011D01*
X5550Y3011D01*
X5551D01*
X5552Y3011D01*
D02*
G37*
G36*
X5901Y3011D02*
X5902Y3011D01*
Y2992D01*
X5901D01*
X5900Y2992D01*
X5899Y2992D01*
X5897Y2992D01*
X5896Y2992D01*
X5894Y2991D01*
X5893Y2991D01*
X5893Y2990D01*
X5892Y2990D01*
X5892Y2990D01*
X5891Y2989D01*
X5890Y2988D01*
X5889Y2987D01*
X5888Y2986D01*
X5887Y2984D01*
X5887Y2984D01*
X5887Y2983D01*
X5887Y2982D01*
X5887Y2981D01*
X5886Y2979D01*
X5886Y2977D01*
X5886Y2974D01*
X5886Y2972D01*
Y2945D01*
X5867D01*
Y3010D01*
X5885D01*
Y2998D01*
X5885Y2999D01*
X5885Y2999D01*
X5885Y3000D01*
X5886Y3001D01*
X5886Y3002D01*
X5888Y3005D01*
X5890Y3007D01*
X5891Y3008D01*
X5892Y3010D01*
X5893Y3010D01*
X5895Y3011D01*
X5897Y3011D01*
X5898Y3012D01*
X5899D01*
X5901Y3011D01*
D02*
G37*
G36*
X6039Y3016D02*
X6019D01*
Y3035D01*
X6039D01*
Y3016D01*
D02*
G37*
G36*
X6400Y2945D02*
X6382D01*
Y2955D01*
X6382Y2955D01*
X6381Y2955D01*
X6381Y2954D01*
X6381Y2953D01*
X6380Y2952D01*
X6379Y2952D01*
X6378Y2950D01*
X6377Y2949D01*
X6374Y2947D01*
X6371Y2945D01*
X6370Y2945D01*
X6368Y2944D01*
X6366Y2944D01*
X6364Y2944D01*
X6363D01*
X6362Y2944D01*
X6361Y2944D01*
X6360Y2944D01*
X6357Y2945D01*
X6355Y2946D01*
X6353Y2947D01*
X6352Y2947D01*
X6351Y2948D01*
X6349Y2949D01*
X6348Y2951D01*
X6347Y2952D01*
Y2952D01*
X6346Y2953D01*
X6346Y2953D01*
X6346Y2954D01*
X6345Y2955D01*
X6345Y2956D01*
X6344Y2957D01*
X6344Y2959D01*
X6343Y2960D01*
X6342Y2962D01*
X6342Y2964D01*
X6342Y2966D01*
X6341Y2969D01*
X6341Y2971D01*
X6341Y2974D01*
X6341Y2977D01*
Y2977D01*
Y2977D01*
Y2978D01*
X6341Y2979D01*
Y2981D01*
X6341Y2982D01*
X6341Y2984D01*
X6341Y2986D01*
X6342Y2990D01*
X6343Y2994D01*
X6345Y2998D01*
X6346Y3000D01*
X6347Y3002D01*
X6347Y3002D01*
X6347Y3003D01*
X6347Y3003D01*
X6348Y3004D01*
X6349Y3004D01*
X6349Y3005D01*
X6350Y3006D01*
X6351Y3007D01*
X6354Y3009D01*
X6357Y3010D01*
X6359Y3011D01*
X6361Y3011D01*
X6363Y3011D01*
X6365Y3011D01*
X6366D01*
X6366Y3011D01*
X6367Y3011D01*
X6368Y3011D01*
X6371Y3011D01*
X6373Y3009D01*
X6375Y3009D01*
X6376Y3008D01*
X6377Y3007D01*
X6379Y3006D01*
X6380Y3005D01*
X6381Y3003D01*
Y3033D01*
X6400D01*
Y2945D01*
D02*
G37*
G36*
X5780D02*
X5763D01*
Y2955D01*
X5763Y2955D01*
X5762Y2955D01*
X5762Y2954D01*
X5761Y2953D01*
X5761Y2952D01*
X5760Y2952D01*
X5759Y2950D01*
X5758Y2949D01*
X5755Y2947D01*
X5752Y2945D01*
X5750Y2945D01*
X5749Y2944D01*
X5747Y2944D01*
X5745Y2944D01*
X5744D01*
X5743Y2944D01*
X5742Y2944D01*
X5741Y2944D01*
X5738Y2945D01*
X5736Y2946D01*
X5734Y2947D01*
X5733Y2947D01*
X5731Y2948D01*
X5730Y2949D01*
X5729Y2951D01*
X5728Y2952D01*
Y2952D01*
X5727Y2953D01*
X5727Y2953D01*
X5727Y2954D01*
X5726Y2955D01*
X5726Y2956D01*
X5725Y2957D01*
X5725Y2959D01*
X5724Y2960D01*
X5723Y2962D01*
X5723Y2964D01*
X5722Y2966D01*
X5722Y2969D01*
X5722Y2971D01*
X5722Y2974D01*
X5721Y2977D01*
Y2977D01*
Y2977D01*
Y2978D01*
X5722Y2979D01*
Y2981D01*
X5722Y2982D01*
X5722Y2984D01*
X5722Y2986D01*
X5723Y2990D01*
X5724Y2994D01*
X5726Y2998D01*
X5727Y3000D01*
X5728Y3002D01*
X5728Y3002D01*
X5728Y3003D01*
X5728Y3003D01*
X5729Y3004D01*
X5730Y3004D01*
X5730Y3005D01*
X5731Y3006D01*
X5732Y3007D01*
X5735Y3009D01*
X5738Y3010D01*
X5740Y3011D01*
X5742Y3011D01*
X5744Y3011D01*
X5746Y3011D01*
X5747D01*
X5747Y3011D01*
X5748Y3011D01*
X5749Y3011D01*
X5752Y3011D01*
X5754Y3009D01*
X5756Y3009D01*
X5757Y3008D01*
X5758Y3007D01*
X5760Y3006D01*
X5761Y3005D01*
X5762Y3003D01*
Y3033D01*
X5780D01*
Y2945D01*
D02*
G37*
G36*
X5617Y3011D02*
X5618Y3011D01*
X5620Y3011D01*
X5622Y3011D01*
X5625Y3010D01*
X5629Y3008D01*
X5630Y3008D01*
X5632Y3007D01*
X5634Y3006D01*
X5635Y3004D01*
X5635Y3004D01*
X5635Y3004D01*
X5636Y3004D01*
X5636Y3003D01*
X5637Y3002D01*
X5638Y3001D01*
X5639Y2999D01*
X5641Y2997D01*
X5642Y2994D01*
X5643Y2990D01*
X5644Y2988D01*
X5644Y2986D01*
X5626Y2985D01*
Y2986D01*
Y2986D01*
X5626Y2987D01*
X5626Y2987D01*
X5625Y2989D01*
X5624Y2991D01*
X5623Y2993D01*
X5622Y2994D01*
X5621Y2995D01*
X5620Y2996D01*
X5619Y2996D01*
X5618Y2997D01*
X5616Y2997D01*
X5615D01*
X5615Y2997D01*
X5614Y2997D01*
X5613Y2996D01*
X5612Y2996D01*
X5611Y2996D01*
X5610Y2995D01*
X5609Y2994D01*
X5608Y2992D01*
X5607Y2991D01*
X5606Y2989D01*
X5606Y2987D01*
X5605Y2985D01*
X5605Y2982D01*
X5604Y2978D01*
Y2978D01*
Y2978D01*
Y2977D01*
Y2976D01*
X5605Y2975D01*
Y2974D01*
X5605Y2972D01*
X5605Y2969D01*
X5606Y2967D01*
X5606Y2965D01*
X5607Y2964D01*
X5607Y2963D01*
X5608Y2963D01*
X5608Y2962D01*
X5608Y2962D01*
X5609Y2962D01*
X5610Y2961D01*
X5611Y2960D01*
X5612Y2960D01*
X5614Y2959D01*
X5615Y2959D01*
X5616D01*
X5616Y2959D01*
X5617D01*
X5618Y2960D01*
X5620Y2961D01*
X5621Y2961D01*
X5622Y2962D01*
X5623Y2963D01*
X5624Y2964D01*
X5624Y2965D01*
X5625Y2967D01*
X5626Y2969D01*
X5626Y2971D01*
X5644Y2969D01*
Y2969D01*
Y2969D01*
X5644Y2968D01*
X5644Y2967D01*
X5643Y2967D01*
X5643Y2965D01*
X5643Y2963D01*
X5641Y2960D01*
X5640Y2957D01*
X5639Y2955D01*
X5638Y2953D01*
X5636Y2952D01*
X5635Y2951D01*
X5635Y2951D01*
X5634Y2950D01*
X5634Y2950D01*
X5633Y2950D01*
X5633Y2949D01*
X5632Y2948D01*
X5631Y2948D01*
X5629Y2947D01*
X5628Y2947D01*
X5626Y2946D01*
X5625Y2945D01*
X5623Y2945D01*
X5619Y2944D01*
X5616Y2944D01*
X5614Y2944D01*
X5613D01*
X5612Y2944D01*
X5611Y2944D01*
X5609Y2944D01*
X5608Y2944D01*
X5606Y2945D01*
X5603Y2946D01*
X5601Y2947D01*
X5599Y2947D01*
X5597Y2948D01*
X5595Y2950D01*
X5593Y2951D01*
X5592Y2953D01*
X5591Y2953D01*
X5591Y2953D01*
X5591Y2954D01*
X5590Y2954D01*
X5590Y2955D01*
X5589Y2956D01*
X5588Y2958D01*
X5587Y2959D01*
X5586Y2961D01*
X5586Y2963D01*
X5585Y2965D01*
X5584Y2967D01*
X5584Y2969D01*
X5583Y2972D01*
X5583Y2974D01*
X5583Y2977D01*
Y2977D01*
Y2978D01*
Y2979D01*
X5583Y2980D01*
X5583Y2981D01*
X5583Y2982D01*
X5584Y2984D01*
X5584Y2986D01*
X5585Y2990D01*
X5586Y2992D01*
X5587Y2994D01*
X5588Y2996D01*
X5589Y2998D01*
X5590Y3000D01*
X5592Y3002D01*
X5592Y3002D01*
X5592Y3002D01*
X5593Y3003D01*
X5593Y3003D01*
X5594Y3004D01*
X5595Y3005D01*
X5597Y3006D01*
X5598Y3007D01*
X5600Y3008D01*
X5601Y3008D01*
X5603Y3009D01*
X5605Y3010D01*
X5608Y3011D01*
X5610Y3011D01*
X5613Y3011D01*
X5615Y3011D01*
X5617D01*
X5617Y3011D01*
D02*
G37*
G36*
X6792Y2961D02*
X6817D01*
Y2945D01*
X6745D01*
Y2961D01*
X6772D01*
Y3011D01*
X6772Y3011D01*
X6771Y3011D01*
X6771Y3011D01*
X6769Y3010D01*
X6768Y3009D01*
X6767Y3008D01*
X6765Y3007D01*
X6763Y3006D01*
X6759Y3004D01*
X6755Y3002D01*
X6751Y3000D01*
X6749Y2999D01*
X6748Y2998D01*
Y3016D01*
X6748Y3017D01*
X6749Y3017D01*
X6750Y3017D01*
X6751Y3018D01*
X6753Y3018D01*
X6755Y3019D01*
X6757Y3020D01*
X6760Y3021D01*
X6765Y3024D01*
X6767Y3025D01*
X6770Y3027D01*
X6772Y3029D01*
X6774Y3030D01*
X6776Y3032D01*
X6777Y3034D01*
X6792D01*
Y2961D01*
D02*
G37*
G36*
X6600Y3033D02*
X6601D01*
X6603Y3033D01*
X6606Y3032D01*
X6608Y3032D01*
X6611Y3031D01*
X6613Y3030D01*
X6614Y3030D01*
X6614Y3030D01*
X6615Y3029D01*
X6617Y3028D01*
X6618Y3027D01*
X6620Y3026D01*
X6621Y3024D01*
X6623Y3023D01*
X6623Y3022D01*
X6623Y3022D01*
X6624Y3021D01*
X6624Y3019D01*
X6625Y3017D01*
X6626Y3015D01*
X6626Y3013D01*
X6626Y3010D01*
Y3010D01*
Y3010D01*
X6626Y3009D01*
X6626Y3008D01*
X6626Y3007D01*
X6625Y3006D01*
X6625Y3004D01*
X6624Y3002D01*
X6623Y3001D01*
X6622Y2999D01*
X6621Y2997D01*
X6620Y2996D01*
X6618Y2994D01*
X6616Y2993D01*
X6613Y2992D01*
X6610Y2991D01*
X6610D01*
X6611Y2991D01*
X6611Y2991D01*
X6612Y2990D01*
X6614Y2990D01*
X6615Y2989D01*
X6618Y2988D01*
X6620Y2987D01*
X6622Y2985D01*
X6624Y2983D01*
X6624Y2982D01*
X6625Y2982D01*
X6625Y2980D01*
X6626Y2979D01*
X6627Y2977D01*
X6628Y2974D01*
X6629Y2972D01*
X6629Y2969D01*
Y2969D01*
Y2969D01*
Y2968D01*
X6629Y2968D01*
X6628Y2967D01*
X6628Y2966D01*
X6628Y2963D01*
X6627Y2961D01*
X6625Y2958D01*
X6625Y2956D01*
X6624Y2955D01*
X6623Y2953D01*
X6621Y2952D01*
X6621Y2952D01*
X6621Y2952D01*
X6620Y2951D01*
X6620Y2951D01*
X6619Y2950D01*
X6618Y2950D01*
X6617Y2949D01*
X6615Y2949D01*
X6614Y2948D01*
X6612Y2947D01*
X6610Y2947D01*
X6608Y2946D01*
X6605Y2946D01*
X6603Y2945D01*
X6600Y2945D01*
X6597Y2945D01*
X6556D01*
Y3033D01*
X6599D01*
X6600Y3033D01*
D02*
G37*
G36*
X6505Y2945D02*
X6486D01*
Y3033D01*
X6505D01*
Y2945D01*
D02*
G37*
G36*
X6257D02*
X6236D01*
Y3017D01*
X6214Y2945D01*
X6199D01*
X6178Y3017D01*
Y2945D01*
X6161D01*
Y3033D01*
X6193D01*
X6208Y2980D01*
X6224Y3033D01*
X6257D01*
Y2945D01*
D02*
G37*
G36*
X6545Y2972D02*
X6515D01*
Y2986D01*
X6545D01*
Y2972D01*
D02*
G37*
G36*
X6714Y2945D02*
X6691D01*
X6665Y3033D01*
X6687D01*
X6705Y2970D01*
X6723Y3033D01*
X6740D01*
X6714Y2945D01*
D02*
G37*
G36*
X5598Y4520D02*
X5599Y4520D01*
X5600Y4519D01*
X5601Y4519D01*
X5603Y4519D01*
X5604Y4518D01*
X5606Y4518D01*
X5607Y4517D01*
X5608Y4516D01*
X5610Y4515D01*
X5611Y4514D01*
X5612Y4513D01*
X5613Y4511D01*
X5614Y4509D01*
X5605Y4506D01*
Y4506D01*
X5605Y4507D01*
X5605Y4507D01*
X5605Y4507D01*
X5604Y4508D01*
X5604Y4509D01*
X5603Y4509D01*
X5602Y4510D01*
X5602Y4510D01*
X5601Y4511D01*
X5600Y4511D01*
X5600Y4511D01*
X5599Y4512D01*
X5598Y4512D01*
X5597D01*
X5597Y4512D01*
X5596Y4512D01*
X5596Y4511D01*
X5594Y4511D01*
X5593Y4511D01*
X5593Y4510D01*
X5592Y4510D01*
X5592Y4509D01*
X5592Y4509D01*
X5591Y4508D01*
X5591Y4508D01*
Y4508D01*
Y4507D01*
X5591Y4507D01*
X5592Y4507D01*
X5592Y4506D01*
X5592Y4506D01*
X5592Y4505D01*
X5593Y4505D01*
X5593Y4505D01*
X5593Y4505D01*
X5593Y4505D01*
X5594Y4504D01*
X5594Y4504D01*
X5595Y4504D01*
X5596Y4503D01*
X5598Y4503D01*
X5598D01*
X5598Y4503D01*
X5598Y4503D01*
X5599Y4503D01*
X5599Y4503D01*
X5600Y4503D01*
X5601Y4502D01*
X5603Y4502D01*
X5605Y4501D01*
X5606Y4501D01*
X5607Y4501D01*
X5608Y4500D01*
X5608D01*
X5608Y4500D01*
X5608Y4500D01*
X5609Y4500D01*
X5609Y4499D01*
X5610Y4499D01*
X5611Y4498D01*
X5612Y4497D01*
X5613Y4496D01*
X5613Y4496D01*
X5613Y4495D01*
X5614Y4495D01*
X5614Y4494D01*
X5614Y4493D01*
X5615Y4492D01*
X5615Y4490D01*
X5615Y4489D01*
Y4489D01*
Y4489D01*
Y4488D01*
X5615Y4488D01*
X5615Y4487D01*
X5615Y4487D01*
X5615Y4486D01*
X5615Y4485D01*
X5614Y4484D01*
X5614Y4483D01*
X5613Y4482D01*
X5613Y4481D01*
X5612Y4480D01*
X5611Y4479D01*
X5610Y4479D01*
X5610Y4479D01*
X5610Y4478D01*
X5610Y4478D01*
X5610Y4478D01*
X5609Y4478D01*
X5608Y4477D01*
X5608Y4477D01*
X5607Y4476D01*
X5606Y4476D01*
X5605Y4476D01*
X5604Y4475D01*
X5603Y4475D01*
X5601Y4475D01*
X5600Y4475D01*
X5598Y4474D01*
X5597Y4474D01*
X5596D01*
X5596Y4474D01*
X5595D01*
X5594Y4474D01*
X5594Y4475D01*
X5593Y4475D01*
X5591Y4475D01*
X5589Y4476D01*
X5587Y4476D01*
X5586Y4477D01*
X5585Y4477D01*
X5585Y4477D01*
X5585Y4477D01*
X5585Y4478D01*
X5584Y4478D01*
X5584Y4478D01*
X5584Y4479D01*
X5583Y4479D01*
X5583Y4480D01*
X5582Y4480D01*
X5582Y4481D01*
X5581Y4482D01*
X5581Y4482D01*
X5580Y4483D01*
X5580Y4484D01*
X5579Y4485D01*
X5579Y4486D01*
X5589Y4489D01*
Y4489D01*
X5589Y4488D01*
X5589Y4488D01*
X5589Y4488D01*
X5589Y4487D01*
X5589Y4487D01*
X5590Y4486D01*
X5590Y4486D01*
X5591Y4485D01*
X5591Y4485D01*
X5592Y4484D01*
X5593Y4484D01*
X5594Y4483D01*
X5595Y4483D01*
X5596Y4483D01*
X5598Y4483D01*
X5598D01*
X5599Y4483D01*
X5600Y4483D01*
X5600Y4483D01*
X5601Y4483D01*
X5602Y4483D01*
X5603Y4484D01*
X5603Y4484D01*
X5603Y4484D01*
X5603Y4484D01*
X5604Y4485D01*
X5604Y4485D01*
X5604Y4486D01*
X5605Y4486D01*
X5605Y4487D01*
Y4487D01*
Y4487D01*
X5605Y4488D01*
X5604Y4488D01*
X5604Y4489D01*
X5604Y4489D01*
X5604Y4490D01*
X5603Y4490D01*
X5603Y4490D01*
X5603Y4490D01*
X5602Y4491D01*
X5602Y4491D01*
X5601Y4491D01*
X5600Y4491D01*
X5598Y4492D01*
X5597Y4492D01*
X5597D01*
X5597Y4492D01*
X5596Y4492D01*
X5596Y4492D01*
X5595Y4493D01*
X5594Y4493D01*
X5593Y4493D01*
X5592Y4493D01*
X5590Y4494D01*
X5588Y4495D01*
X5587Y4495D01*
X5586Y4496D01*
X5586Y4496D01*
X5585Y4497D01*
X5585Y4497D01*
X5585Y4497D01*
X5584Y4497D01*
X5584Y4497D01*
X5584Y4498D01*
X5584Y4498D01*
X5583Y4499D01*
X5582Y4500D01*
X5582Y4502D01*
X5581Y4504D01*
X5581Y4505D01*
X5581Y4506D01*
Y4506D01*
Y4506D01*
Y4506D01*
X5581Y4507D01*
X5581Y4507D01*
X5582Y4508D01*
X5582Y4508D01*
X5582Y4509D01*
X5582Y4511D01*
X5583Y4512D01*
X5583Y4512D01*
X5584Y4513D01*
X5584Y4514D01*
X5585Y4515D01*
X5586Y4516D01*
X5586Y4516D01*
X5586Y4516D01*
X5586Y4516D01*
X5586Y4516D01*
X5587Y4517D01*
X5587Y4517D01*
X5588Y4517D01*
X5589Y4518D01*
X5589Y4518D01*
X5590Y4518D01*
X5591Y4519D01*
X5592Y4519D01*
X5593Y4519D01*
X5595Y4519D01*
X5596Y4520D01*
X5597Y4520D01*
X5598D01*
X5598Y4520D01*
D02*
G37*
G36*
X5560Y4220D02*
X5561Y4220D01*
X5562Y4219D01*
X5562Y4219D01*
X5563Y4219D01*
X5565Y4219D01*
X5566Y4218D01*
X5567Y4218D01*
X5568Y4217D01*
X5569Y4217D01*
X5570Y4216D01*
X5571Y4216D01*
X5571Y4215D01*
X5571Y4215D01*
X5571Y4215D01*
X5572Y4215D01*
X5572Y4214D01*
X5572Y4214D01*
X5573Y4213D01*
X5573Y4213D01*
X5574Y4212D01*
X5574Y4211D01*
X5575Y4210D01*
X5575Y4209D01*
X5576Y4208D01*
X5576Y4207D01*
X5576Y4206D01*
X5576Y4204D01*
X5567Y4203D01*
Y4203D01*
X5567Y4204D01*
X5567Y4204D01*
X5566Y4204D01*
X5566Y4205D01*
X5566Y4206D01*
X5566Y4207D01*
X5565Y4207D01*
X5565Y4208D01*
X5564Y4209D01*
X5564Y4209D01*
X5563Y4210D01*
X5562Y4211D01*
X5561Y4211D01*
X5560Y4211D01*
X5559Y4211D01*
X5559D01*
X5558Y4211D01*
X5558Y4211D01*
X5557Y4211D01*
X5556Y4210D01*
X5555Y4210D01*
X5554Y4209D01*
X5554Y4209D01*
X5553Y4208D01*
X5553Y4207D01*
Y4207D01*
X5553Y4207D01*
X5552Y4207D01*
X5552Y4207D01*
X5552Y4206D01*
X5552Y4206D01*
X5552Y4205D01*
X5552Y4205D01*
X5551Y4204D01*
X5551Y4203D01*
X5551Y4202D01*
X5551Y4201D01*
X5551Y4200D01*
X5551Y4199D01*
X5551Y4198D01*
Y4197D01*
Y4197D01*
Y4196D01*
Y4196D01*
X5551Y4196D01*
Y4195D01*
X5551Y4194D01*
X5551Y4194D01*
X5551Y4193D01*
X5551Y4191D01*
X5552Y4189D01*
X5552Y4188D01*
X5552Y4187D01*
X5553Y4186D01*
Y4186D01*
X5553Y4186D01*
X5553Y4186D01*
X5554Y4185D01*
X5555Y4185D01*
X5555Y4184D01*
X5557Y4183D01*
X5558Y4183D01*
X5559Y4183D01*
X5560Y4183D01*
X5560D01*
X5560Y4183D01*
X5561Y4183D01*
X5562Y4183D01*
X5563Y4183D01*
X5564Y4184D01*
X5564Y4184D01*
X5564Y4185D01*
X5565Y4185D01*
X5565Y4185D01*
X5566Y4186D01*
X5566Y4187D01*
X5566Y4188D01*
X5567Y4189D01*
X5567Y4190D01*
X5558D01*
Y4199D01*
X5576D01*
Y4175D01*
X5572D01*
Y4175D01*
X5572Y4175D01*
X5572Y4176D01*
X5571Y4177D01*
X5571Y4177D01*
X5571Y4178D01*
X5570Y4180D01*
X5570Y4180D01*
X5570Y4180D01*
X5570Y4179D01*
X5569Y4179D01*
X5569Y4179D01*
X5568Y4178D01*
X5568Y4178D01*
X5567Y4177D01*
X5566Y4177D01*
X5565Y4176D01*
X5564Y4176D01*
X5563Y4175D01*
X5562Y4175D01*
X5561Y4175D01*
X5560Y4174D01*
X5558Y4174D01*
X5558D01*
X5557Y4174D01*
X5557D01*
X5556Y4175D01*
X5555Y4175D01*
X5554Y4175D01*
X5553Y4175D01*
X5552Y4175D01*
X5551Y4176D01*
X5550Y4176D01*
X5549Y4177D01*
X5548Y4178D01*
X5547Y4178D01*
X5546Y4179D01*
X5545Y4180D01*
X5545Y4180D01*
X5545Y4181D01*
X5544Y4181D01*
X5544Y4182D01*
X5544Y4182D01*
X5543Y4183D01*
X5543Y4184D01*
X5542Y4185D01*
X5542Y4186D01*
X5542Y4187D01*
X5541Y4188D01*
X5541Y4190D01*
X5540Y4191D01*
X5540Y4193D01*
X5540Y4195D01*
X5540Y4196D01*
Y4197D01*
Y4197D01*
X5540Y4197D01*
Y4198D01*
X5540Y4199D01*
X5540Y4200D01*
X5540Y4201D01*
X5541Y4202D01*
X5541Y4204D01*
X5541Y4205D01*
X5542Y4207D01*
X5542Y4208D01*
X5543Y4209D01*
X5543Y4211D01*
X5544Y4212D01*
X5545Y4213D01*
X5545Y4213D01*
X5545Y4214D01*
X5546Y4214D01*
X5546Y4214D01*
X5547Y4215D01*
X5547Y4215D01*
X5548Y4216D01*
X5549Y4217D01*
X5550Y4217D01*
X5551Y4218D01*
X5552Y4218D01*
X5553Y4219D01*
X5554Y4219D01*
X5556Y4219D01*
X5557Y4220D01*
X5559Y4220D01*
X5560D01*
X5560Y4220D01*
D02*
G37*
G36*
X5618Y4175D02*
X5609D01*
X5592Y4205D01*
Y4205D01*
Y4204D01*
Y4204D01*
Y4204D01*
X5592Y4203D01*
Y4203D01*
Y4203D01*
Y4203D01*
X5593Y4203D01*
Y4203D01*
X5593Y4202D01*
Y4201D01*
Y4175D01*
X5585D01*
Y4219D01*
X5596D01*
X5611Y4193D01*
Y4193D01*
Y4193D01*
X5611Y4194D01*
Y4194D01*
X5610Y4195D01*
X5610Y4196D01*
Y4196D01*
Y4219D01*
X5618D01*
Y4175D01*
D02*
G37*
G36*
X6280Y4628D02*
X6235Y4572D01*
X6281D01*
Y4555D01*
X6210D01*
Y4570D01*
X6254Y4626D01*
X6213D01*
Y4643D01*
X6280D01*
Y4628D01*
D02*
G37*
G36*
X5559Y4315D02*
X5559D01*
X5560Y4315D01*
X5561Y4314D01*
X5561Y4314D01*
X5563Y4314D01*
X5565Y4313D01*
X5567Y4313D01*
X5568Y4312D01*
X5569Y4312D01*
X5569Y4311D01*
X5569Y4311D01*
X5569Y4311D01*
X5569Y4311D01*
X5570Y4311D01*
X5570Y4310D01*
X5571Y4309D01*
X5572Y4308D01*
X5572Y4307D01*
X5573Y4306D01*
X5573Y4305D01*
X5573Y4304D01*
X5573Y4303D01*
Y4303D01*
Y4302D01*
X5573Y4302D01*
X5573Y4302D01*
X5573Y4301D01*
X5573Y4300D01*
X5573Y4300D01*
X5572Y4299D01*
X5572Y4298D01*
X5571Y4297D01*
X5571Y4296D01*
X5570Y4296D01*
X5569Y4295D01*
X5568Y4294D01*
X5567Y4294D01*
X5566Y4293D01*
X5566D01*
X5566Y4293D01*
X5566Y4293D01*
X5567Y4292D01*
X5568Y4292D01*
X5568Y4292D01*
X5569Y4291D01*
X5570Y4291D01*
X5571Y4290D01*
X5572Y4289D01*
X5572Y4289D01*
X5573Y4288D01*
X5574Y4287D01*
X5574Y4285D01*
X5574Y4284D01*
X5574Y4283D01*
Y4282D01*
Y4282D01*
Y4282D01*
X5574Y4282D01*
X5574Y4281D01*
X5574Y4281D01*
X5574Y4279D01*
X5573Y4278D01*
X5573Y4277D01*
X5573Y4276D01*
X5572Y4275D01*
X5571Y4274D01*
X5571Y4274D01*
X5570Y4273D01*
X5570Y4273D01*
X5570Y4273D01*
X5569Y4273D01*
X5569Y4272D01*
X5569Y4272D01*
X5568Y4272D01*
X5567Y4271D01*
X5567Y4271D01*
X5566Y4271D01*
X5565Y4270D01*
X5564Y4270D01*
X5563Y4270D01*
X5562Y4270D01*
X5560Y4269D01*
X5559Y4269D01*
X5557Y4269D01*
X5557D01*
X5556Y4269D01*
X5556Y4269D01*
X5555Y4270D01*
X5554Y4270D01*
X5553Y4270D01*
X5551Y4270D01*
X5549Y4271D01*
X5548Y4271D01*
X5547Y4272D01*
X5546Y4272D01*
X5545Y4273D01*
X5545Y4273D01*
X5545Y4273D01*
X5545Y4274D01*
X5545Y4274D01*
X5544Y4274D01*
X5544Y4275D01*
X5543Y4275D01*
X5543Y4276D01*
X5542Y4277D01*
X5541Y4279D01*
X5540Y4281D01*
X5540Y4282D01*
X5540Y4283D01*
X5549Y4284D01*
Y4284D01*
X5549Y4284D01*
X5550Y4283D01*
X5550Y4283D01*
X5550Y4282D01*
X5550Y4282D01*
X5550Y4281D01*
X5551Y4281D01*
X5551Y4280D01*
X5552Y4279D01*
X5552Y4279D01*
X5553Y4278D01*
X5554Y4278D01*
X5555Y4277D01*
X5556Y4277D01*
X5557Y4277D01*
X5558D01*
X5558Y4277D01*
X5559Y4277D01*
X5560Y4278D01*
X5561Y4278D01*
X5561Y4278D01*
X5562Y4279D01*
X5562Y4279D01*
X5562Y4279D01*
X5563Y4279D01*
X5563Y4280D01*
X5563Y4281D01*
X5564Y4281D01*
X5564Y4282D01*
X5564Y4283D01*
Y4283D01*
Y4284D01*
X5564Y4284D01*
X5564Y4285D01*
X5564Y4285D01*
X5563Y4286D01*
X5563Y4287D01*
X5562Y4287D01*
X5562Y4287D01*
X5562Y4288D01*
X5561Y4288D01*
X5561Y4288D01*
X5560Y4288D01*
X5559Y4289D01*
X5557Y4289D01*
X5557Y4289D01*
X5552D01*
Y4297D01*
X5557D01*
X5558Y4297D01*
X5558Y4297D01*
X5559Y4297D01*
X5560Y4297D01*
X5561Y4298D01*
X5562Y4298D01*
X5562Y4298D01*
X5562Y4298D01*
X5562Y4299D01*
X5562Y4299D01*
X5563Y4300D01*
X5563Y4300D01*
X5563Y4301D01*
X5563Y4302D01*
Y4302D01*
Y4302D01*
X5563Y4302D01*
X5563Y4303D01*
X5563Y4304D01*
X5562Y4304D01*
X5562Y4305D01*
X5562Y4305D01*
X5561Y4306D01*
X5561Y4306D01*
X5561Y4306D01*
X5560Y4306D01*
X5560Y4307D01*
X5559Y4307D01*
X5558Y4307D01*
X5557Y4307D01*
X5557D01*
X5557Y4307D01*
X5556D01*
X5556Y4307D01*
X5555Y4307D01*
X5554Y4306D01*
X5554Y4306D01*
X5553Y4306D01*
X5553Y4305D01*
X5552Y4305D01*
X5552Y4304D01*
X5551Y4303D01*
X5551Y4302D01*
X5550Y4301D01*
X5541Y4303D01*
Y4303D01*
X5541Y4303D01*
X5541Y4303D01*
X5542Y4304D01*
X5542Y4304D01*
X5542Y4305D01*
X5542Y4306D01*
X5543Y4307D01*
X5544Y4309D01*
X5545Y4310D01*
X5546Y4311D01*
X5547Y4311D01*
X5547Y4311D01*
X5547Y4311D01*
X5547Y4312D01*
X5547Y4312D01*
X5548Y4312D01*
X5548Y4312D01*
X5549Y4313D01*
X5550Y4313D01*
X5550Y4313D01*
X5551Y4314D01*
X5553Y4314D01*
X5555Y4315D01*
X5556Y4315D01*
X5557Y4315D01*
X5558D01*
X5559Y4315D01*
D02*
G37*
G36*
X5643Y4219D02*
X5643Y4219D01*
X5644Y4219D01*
X5645Y4219D01*
X5647Y4219D01*
X5649Y4218D01*
X5651Y4218D01*
X5652Y4217D01*
X5653Y4217D01*
X5653D01*
X5653Y4217D01*
X5653Y4217D01*
X5654Y4216D01*
X5654Y4216D01*
X5655Y4215D01*
X5656Y4214D01*
X5658Y4213D01*
X5659Y4211D01*
X5660Y4210D01*
X5660Y4209D01*
X5660Y4209D01*
X5660Y4209D01*
X5661Y4209D01*
X5661Y4208D01*
X5661Y4208D01*
X5661Y4207D01*
X5662Y4206D01*
X5662Y4205D01*
X5662Y4204D01*
X5663Y4203D01*
X5663Y4202D01*
X5663Y4201D01*
X5663Y4200D01*
X5663Y4199D01*
Y4197D01*
Y4197D01*
Y4197D01*
X5663Y4196D01*
Y4196D01*
X5663Y4195D01*
X5663Y4194D01*
X5663Y4193D01*
X5663Y4192D01*
X5662Y4190D01*
X5662Y4189D01*
X5662Y4188D01*
X5661Y4186D01*
X5660Y4185D01*
X5660Y4184D01*
X5659Y4183D01*
X5658Y4181D01*
X5658Y4181D01*
X5657Y4181D01*
X5657Y4181D01*
X5657Y4180D01*
X5656Y4180D01*
X5655Y4179D01*
X5655Y4179D01*
X5654Y4178D01*
X5653Y4178D01*
X5652Y4177D01*
X5650Y4176D01*
X5649Y4176D01*
X5647Y4176D01*
X5646Y4175D01*
X5644Y4175D01*
X5642Y4175D01*
X5627D01*
Y4219D01*
X5642D01*
X5643Y4219D01*
D02*
G37*
G36*
X6396Y4555D02*
X6374D01*
X6369Y4573D01*
X6340D01*
X6335Y4555D01*
X6317D01*
X6345Y4643D01*
X6369D01*
X6396Y4555D01*
D02*
G37*
G36*
X6506D02*
X6485D01*
Y4643D01*
X6506D01*
Y4555D01*
D02*
G37*
G36*
X6554Y4644D02*
X6555Y4644D01*
X6557Y4644D01*
X6560Y4643D01*
X6562Y4643D01*
X6565Y4642D01*
X6568Y4641D01*
X6571Y4639D01*
X6573Y4638D01*
X6576Y4636D01*
X6579Y4633D01*
X6581Y4631D01*
X6583Y4627D01*
X6584Y4624D01*
X6567Y4618D01*
Y4618D01*
X6567Y4618D01*
X6566Y4619D01*
X6566Y4619D01*
X6565Y4621D01*
X6564Y4623D01*
X6563Y4624D01*
X6562Y4625D01*
X6560Y4626D01*
X6559Y4627D01*
X6557Y4627D01*
X6556Y4628D01*
X6554Y4628D01*
X6552Y4628D01*
X6551D01*
X6550Y4628D01*
X6549Y4628D01*
X6548Y4628D01*
X6546Y4627D01*
X6543Y4626D01*
X6542Y4626D01*
X6541Y4625D01*
X6541Y4624D01*
X6540Y4623D01*
X6540Y4622D01*
X6540Y4620D01*
Y4620D01*
Y4620D01*
X6540Y4619D01*
X6540Y4618D01*
X6540Y4618D01*
X6540Y4617D01*
X6541Y4616D01*
X6542Y4615D01*
X6542Y4615D01*
X6542Y4615D01*
X6543Y4614D01*
X6544Y4614D01*
X6545Y4613D01*
X6547Y4612D01*
X6549Y4612D01*
X6552Y4611D01*
X6552D01*
X6553Y4611D01*
X6553Y4611D01*
X6554Y4611D01*
X6555Y4610D01*
X6557Y4610D01*
X6560Y4609D01*
X6563Y4608D01*
X6566Y4608D01*
X6569Y4606D01*
X6571Y4606D01*
X6572Y4606D01*
X6572D01*
X6572Y4605D01*
X6573Y4605D01*
X6574Y4604D01*
X6575Y4603D01*
X6577Y4602D01*
X6579Y4601D01*
X6581Y4599D01*
X6582Y4597D01*
X6583Y4596D01*
X6583Y4595D01*
X6584Y4594D01*
X6585Y4592D01*
X6585Y4591D01*
X6586Y4588D01*
X6587Y4586D01*
X6587Y4583D01*
Y4583D01*
Y4582D01*
Y4582D01*
X6587Y4581D01*
X6587Y4580D01*
X6586Y4579D01*
X6586Y4577D01*
X6586Y4576D01*
X6585Y4573D01*
X6584Y4571D01*
X6583Y4569D01*
X6582Y4567D01*
X6581Y4566D01*
X6579Y4564D01*
X6578Y4562D01*
X6577Y4562D01*
X6577Y4562D01*
X6577Y4561D01*
X6576Y4561D01*
X6575Y4560D01*
X6574Y4559D01*
X6572Y4559D01*
X6571Y4558D01*
X6569Y4557D01*
X6567Y4556D01*
X6565Y4556D01*
X6562Y4555D01*
X6559Y4554D01*
X6557Y4554D01*
X6554Y4554D01*
X6550Y4554D01*
X6549D01*
X6548Y4554D01*
X6547D01*
X6545Y4554D01*
X6544Y4554D01*
X6542Y4554D01*
X6539Y4555D01*
X6535Y4556D01*
X6531Y4558D01*
X6529Y4559D01*
X6527Y4560D01*
X6527Y4560D01*
X6527Y4560D01*
X6526Y4560D01*
X6526Y4561D01*
X6525Y4562D01*
X6524Y4562D01*
X6523Y4563D01*
X6522Y4564D01*
X6521Y4566D01*
X6520Y4567D01*
X6519Y4568D01*
X6518Y4570D01*
X6517Y4572D01*
X6516Y4574D01*
X6515Y4576D01*
X6515Y4578D01*
X6534Y4582D01*
Y4582D01*
X6534Y4582D01*
X6534Y4581D01*
X6535Y4580D01*
X6535Y4580D01*
X6536Y4578D01*
X6536Y4577D01*
X6537Y4576D01*
X6538Y4575D01*
X6540Y4574D01*
X6541Y4573D01*
X6543Y4572D01*
X6545Y4571D01*
X6547Y4571D01*
X6549Y4570D01*
X6552Y4570D01*
X6553D01*
X6554Y4570D01*
X6556Y4570D01*
X6557Y4571D01*
X6559Y4571D01*
X6561Y4572D01*
X6562Y4573D01*
X6562Y4573D01*
X6563Y4573D01*
X6563Y4574D01*
X6564Y4575D01*
X6565Y4576D01*
X6565Y4577D01*
X6566Y4578D01*
X6566Y4579D01*
Y4579D01*
Y4580D01*
X6566Y4581D01*
X6565Y4582D01*
X6565Y4582D01*
X6564Y4583D01*
X6564Y4584D01*
X6563Y4585D01*
X6563Y4585D01*
X6562Y4586D01*
X6561Y4586D01*
X6560Y4587D01*
X6558Y4587D01*
X6556Y4588D01*
X6554Y4589D01*
X6550Y4589D01*
X6550D01*
X6550Y4589D01*
X6549Y4590D01*
X6548Y4590D01*
X6546Y4590D01*
X6545Y4591D01*
X6543Y4591D01*
X6541Y4592D01*
X6537Y4593D01*
X6533Y4595D01*
X6531Y4596D01*
X6529Y4597D01*
X6528Y4598D01*
X6526Y4599D01*
X6526Y4599D01*
X6526Y4599D01*
X6526Y4599D01*
X6525Y4600D01*
X6525Y4601D01*
X6524Y4601D01*
X6523Y4603D01*
X6521Y4606D01*
X6520Y4609D01*
X6520Y4612D01*
X6519Y4614D01*
X6519Y4616D01*
Y4617D01*
Y4617D01*
Y4618D01*
X6519Y4618D01*
X6520Y4619D01*
X6520Y4621D01*
X6520Y4622D01*
X6520Y4623D01*
X6521Y4626D01*
X6522Y4628D01*
X6523Y4630D01*
X6524Y4631D01*
X6525Y4633D01*
X6526Y4635D01*
X6528Y4636D01*
X6528Y4636D01*
X6528Y4637D01*
X6529Y4637D01*
X6529Y4637D01*
X6530Y4638D01*
X6531Y4639D01*
X6532Y4640D01*
X6534Y4640D01*
X6535Y4641D01*
X6537Y4642D01*
X6539Y4642D01*
X6541Y4643D01*
X6543Y4644D01*
X6546Y4644D01*
X6548Y4644D01*
X6551Y4644D01*
X6552D01*
X6554Y4644D01*
D02*
G37*
G36*
X6449Y4602D02*
X6476Y4555D01*
X6452D01*
X6434Y4587D01*
X6417Y4555D01*
X6397D01*
X6424Y4602D01*
X6400Y4643D01*
X6424D01*
X6439Y4616D01*
X6454Y4643D01*
X6473D01*
X6449Y4602D01*
D02*
G37*
G36*
X6978Y4644D02*
X6980Y4644D01*
X6982Y4644D01*
X6984Y4643D01*
X6987Y4643D01*
X6989Y4642D01*
X6992Y4641D01*
X6995Y4639D01*
X6998Y4638D01*
X7001Y4636D01*
X7003Y4633D01*
X7005Y4631D01*
X7007Y4627D01*
X7009Y4624D01*
X6991Y4618D01*
Y4618D01*
X6991Y4618D01*
X6991Y4619D01*
X6991Y4619D01*
X6990Y4621D01*
X6988Y4623D01*
X6987Y4624D01*
X6986Y4625D01*
X6985Y4626D01*
X6984Y4627D01*
X6982Y4627D01*
X6980Y4628D01*
X6978Y4628D01*
X6976Y4628D01*
X6975D01*
X6974Y4628D01*
X6974Y4628D01*
X6972Y4628D01*
X6970Y4627D01*
X6968Y4626D01*
X6967Y4626D01*
X6966Y4625D01*
X6965Y4624D01*
X6965Y4623D01*
X6964Y4622D01*
X6964Y4620D01*
Y4620D01*
Y4620D01*
X6964Y4619D01*
X6964Y4618D01*
X6965Y4618D01*
X6965Y4617D01*
X6966Y4616D01*
X6966Y4615D01*
X6966Y4615D01*
X6967Y4615D01*
X6967Y4614D01*
X6969Y4614D01*
X6970Y4613D01*
X6972Y4612D01*
X6974Y4612D01*
X6977Y4611D01*
X6977D01*
X6977Y4611D01*
X6978Y4611D01*
X6979Y4611D01*
X6980Y4610D01*
X6981Y4610D01*
X6984Y4609D01*
X6987Y4608D01*
X6991Y4608D01*
X6994Y4606D01*
X6995Y4606D01*
X6996Y4606D01*
X6997D01*
X6997Y4605D01*
X6998Y4605D01*
X6999Y4604D01*
X7000Y4603D01*
X7002Y4602D01*
X7004Y4601D01*
X7005Y4599D01*
X7007Y4597D01*
X7007Y4596D01*
X7008Y4595D01*
X7008Y4594D01*
X7009Y4592D01*
X7010Y4591D01*
X7011Y4588D01*
X7011Y4586D01*
X7011Y4583D01*
Y4583D01*
Y4582D01*
Y4582D01*
X7011Y4581D01*
X7011Y4580D01*
X7011Y4579D01*
X7011Y4577D01*
X7010Y4576D01*
X7009Y4573D01*
X7008Y4571D01*
X7008Y4569D01*
X7006Y4567D01*
X7005Y4566D01*
X7004Y4564D01*
X7002Y4562D01*
X7002Y4562D01*
X7002Y4562D01*
X7001Y4561D01*
X7000Y4561D01*
X6999Y4560D01*
X6998Y4559D01*
X6997Y4559D01*
X6995Y4558D01*
X6994Y4557D01*
X6991Y4556D01*
X6989Y4556D01*
X6987Y4555D01*
X6984Y4554D01*
X6981Y4554D01*
X6978Y4554D01*
X6975Y4554D01*
X6974D01*
X6973Y4554D01*
X6971D01*
X6970Y4554D01*
X6969Y4554D01*
X6967Y4554D01*
X6963Y4555D01*
X6959Y4556D01*
X6955Y4558D01*
X6954Y4559D01*
X6952Y4560D01*
X6952Y4560D01*
X6951Y4560D01*
X6951Y4560D01*
X6950Y4561D01*
X6949Y4562D01*
X6949Y4562D01*
X6948Y4563D01*
X6947Y4564D01*
X6945Y4566D01*
X6945Y4567D01*
X6943Y4568D01*
X6942Y4570D01*
X6941Y4572D01*
X6941Y4574D01*
X6940Y4576D01*
X6939Y4578D01*
X6958Y4582D01*
Y4582D01*
X6959Y4582D01*
X6959Y4581D01*
X6959Y4580D01*
X6960Y4580D01*
X6960Y4578D01*
X6961Y4577D01*
X6962Y4576D01*
X6963Y4575D01*
X6964Y4574D01*
X6966Y4573D01*
X6967Y4572D01*
X6969Y4571D01*
X6971Y4571D01*
X6974Y4570D01*
X6976Y4570D01*
X6977D01*
X6979Y4570D01*
X6980Y4570D01*
X6982Y4571D01*
X6984Y4571D01*
X6985Y4572D01*
X6987Y4573D01*
X6987Y4573D01*
X6987Y4573D01*
X6988Y4574D01*
X6989Y4575D01*
X6989Y4576D01*
X6990Y4577D01*
X6990Y4578D01*
X6990Y4579D01*
Y4579D01*
Y4580D01*
X6990Y4581D01*
X6990Y4582D01*
X6990Y4582D01*
X6989Y4583D01*
X6988Y4584D01*
X6987Y4585D01*
X6987Y4585D01*
X6987Y4586D01*
X6986Y4586D01*
X6984Y4587D01*
X6983Y4587D01*
X6981Y4588D01*
X6978Y4589D01*
X6975Y4589D01*
X6975D01*
X6974Y4589D01*
X6973Y4590D01*
X6972Y4590D01*
X6971Y4590D01*
X6969Y4591D01*
X6968Y4591D01*
X6966Y4592D01*
X6962Y4593D01*
X6958Y4595D01*
X6956Y4596D01*
X6954Y4597D01*
X6952Y4598D01*
X6951Y4599D01*
X6951Y4599D01*
X6951Y4599D01*
X6950Y4599D01*
X6950Y4600D01*
X6949Y4601D01*
X6949Y4601D01*
X6947Y4603D01*
X6946Y4606D01*
X6945Y4609D01*
X6944Y4612D01*
X6944Y4614D01*
X6944Y4616D01*
Y4617D01*
Y4617D01*
Y4618D01*
X6944Y4618D01*
X6944Y4619D01*
X6944Y4621D01*
X6945Y4622D01*
X6945Y4623D01*
X6946Y4626D01*
X6947Y4628D01*
X6947Y4630D01*
X6948Y4631D01*
X6950Y4633D01*
X6951Y4635D01*
X6952Y4636D01*
X6952Y4636D01*
X6953Y4637D01*
X6953Y4637D01*
X6954Y4637D01*
X6955Y4638D01*
X6956Y4639D01*
X6957Y4640D01*
X6958Y4640D01*
X6960Y4641D01*
X6962Y4642D01*
X6964Y4642D01*
X6966Y4643D01*
X6968Y4644D01*
X6970Y4644D01*
X6973Y4644D01*
X6976Y4644D01*
X6977D01*
X6978Y4644D01*
D02*
G37*
G36*
X5650Y4510D02*
X5639D01*
Y4475D01*
X5628D01*
Y4510D01*
X5617D01*
Y4519D01*
X5650D01*
Y4510D01*
D02*
G37*
G36*
X6672Y4644D02*
X6672Y4644D01*
X6674Y4644D01*
X6677Y4643D01*
X6680Y4643D01*
X6683Y4641D01*
X6686Y4640D01*
X6689Y4638D01*
X6692Y4636D01*
X6695Y4633D01*
X6697Y4632D01*
X6698Y4630D01*
X6699Y4628D01*
X6700Y4626D01*
X6701Y4624D01*
X6703Y4621D01*
X6703Y4619D01*
X6704Y4616D01*
X6705Y4613D01*
X6705Y4610D01*
X6684Y4609D01*
Y4609D01*
Y4610D01*
X6683Y4611D01*
X6683Y4612D01*
X6683Y4613D01*
X6683Y4615D01*
X6682Y4616D01*
X6681Y4618D01*
X6681Y4620D01*
X6680Y4622D01*
X6679Y4623D01*
X6677Y4625D01*
X6676Y4626D01*
X6674Y4627D01*
X6672Y4627D01*
X6669Y4628D01*
X6668D01*
X6667Y4627D01*
X6667Y4627D01*
X6665Y4627D01*
X6664Y4626D01*
X6662Y4625D01*
X6661Y4624D01*
X6659Y4622D01*
X6658Y4621D01*
X6657Y4618D01*
X6655Y4615D01*
X6654Y4612D01*
X6654Y4610D01*
X6654Y4608D01*
X6653Y4606D01*
X6653Y4604D01*
X6653Y4601D01*
Y4599D01*
Y4599D01*
Y4598D01*
Y4597D01*
X6653Y4596D01*
Y4595D01*
X6653Y4593D01*
X6653Y4592D01*
X6653Y4590D01*
X6654Y4586D01*
X6655Y4582D01*
X6655Y4581D01*
X6656Y4579D01*
X6657Y4577D01*
X6657Y4576D01*
X6657Y4576D01*
X6658Y4575D01*
X6659Y4574D01*
X6660Y4573D01*
X6662Y4572D01*
X6664Y4571D01*
X6667Y4571D01*
X6670Y4570D01*
X6670D01*
X6671Y4571D01*
X6672Y4571D01*
X6673Y4571D01*
X6674Y4571D01*
X6675Y4572D01*
X6676Y4572D01*
X6678Y4573D01*
X6679Y4574D01*
X6680Y4576D01*
X6682Y4577D01*
X6683Y4579D01*
X6684Y4582D01*
X6685Y4584D01*
X6685Y4587D01*
X6705Y4586D01*
Y4586D01*
X6705Y4585D01*
X6705Y4584D01*
X6705Y4583D01*
X6705Y4582D01*
X6704Y4580D01*
X6704Y4579D01*
X6703Y4577D01*
X6701Y4573D01*
X6701Y4571D01*
X6699Y4569D01*
X6698Y4567D01*
X6697Y4565D01*
X6695Y4563D01*
X6693Y4562D01*
X6693Y4562D01*
X6693Y4561D01*
X6692Y4561D01*
X6692Y4561D01*
X6691Y4560D01*
X6690Y4559D01*
X6688Y4558D01*
X6687Y4558D01*
X6685Y4557D01*
X6683Y4556D01*
X6681Y4556D01*
X6679Y4555D01*
X6677Y4554D01*
X6674Y4554D01*
X6672Y4554D01*
X6669Y4554D01*
X6668D01*
X6668Y4554D01*
X6666D01*
X6665Y4554D01*
X6663Y4554D01*
X6661Y4555D01*
X6659Y4555D01*
X6657Y4556D01*
X6655Y4557D01*
X6652Y4557D01*
X6650Y4559D01*
X6647Y4560D01*
X6645Y4562D01*
X6643Y4563D01*
X6641Y4566D01*
X6641Y4566D01*
X6640Y4566D01*
X6640Y4567D01*
X6639Y4568D01*
X6638Y4569D01*
X6637Y4571D01*
X6636Y4572D01*
X6635Y4574D01*
X6634Y4577D01*
X6633Y4579D01*
X6632Y4582D01*
X6632Y4585D01*
X6631Y4588D01*
X6630Y4591D01*
X6630Y4595D01*
X6630Y4599D01*
Y4599D01*
Y4600D01*
X6630Y4601D01*
Y4602D01*
X6630Y4604D01*
X6631Y4606D01*
X6631Y4608D01*
X6631Y4611D01*
X6632Y4613D01*
X6633Y4616D01*
X6633Y4618D01*
X6634Y4621D01*
X6636Y4624D01*
X6637Y4627D01*
X6639Y4629D01*
X6641Y4632D01*
X6641Y4632D01*
X6641Y4632D01*
X6642Y4633D01*
X6642Y4634D01*
X6644Y4635D01*
X6645Y4636D01*
X6646Y4637D01*
X6648Y4638D01*
X6650Y4639D01*
X6652Y4640D01*
X6655Y4641D01*
X6657Y4642D01*
X6660Y4643D01*
X6663Y4644D01*
X6666Y4644D01*
X6669Y4644D01*
X6671D01*
X6672Y4644D01*
D02*
G37*
G36*
X5601Y4270D02*
X5590D01*
X5577Y4314D01*
X5588D01*
X5597Y4282D01*
X5606Y4314D01*
X5615D01*
X5601Y4270D01*
D02*
G37*
G36*
X5634Y4315D02*
X5635D01*
X5635Y4315D01*
X5636Y4314D01*
X5637Y4314D01*
X5639Y4314D01*
X5640Y4313D01*
X5642Y4313D01*
X5643Y4312D01*
X5644Y4312D01*
X5644Y4311D01*
X5644Y4311D01*
X5644Y4311D01*
X5645Y4311D01*
X5645Y4311D01*
X5645Y4310D01*
X5646Y4309D01*
X5647Y4308D01*
X5648Y4307D01*
X5648Y4306D01*
X5648Y4305D01*
X5649Y4304D01*
X5649Y4303D01*
Y4303D01*
Y4302D01*
X5649Y4302D01*
X5648Y4302D01*
X5648Y4301D01*
X5648Y4300D01*
X5648Y4300D01*
X5648Y4299D01*
X5647Y4298D01*
X5647Y4297D01*
X5646Y4296D01*
X5645Y4296D01*
X5645Y4295D01*
X5644Y4294D01*
X5642Y4294D01*
X5641Y4293D01*
X5641D01*
X5641Y4293D01*
X5642Y4293D01*
X5642Y4292D01*
X5643Y4292D01*
X5644Y4292D01*
X5645Y4291D01*
X5645Y4291D01*
X5646Y4290D01*
X5647Y4289D01*
X5648Y4289D01*
X5649Y4288D01*
X5649Y4287D01*
X5650Y4285D01*
X5650Y4284D01*
X5650Y4283D01*
Y4282D01*
Y4282D01*
Y4282D01*
X5650Y4282D01*
X5650Y4281D01*
X5650Y4281D01*
X5649Y4279D01*
X5649Y4278D01*
X5648Y4277D01*
X5648Y4276D01*
X5648Y4275D01*
X5647Y4274D01*
X5646Y4274D01*
X5645Y4273D01*
X5645Y4273D01*
X5645Y4273D01*
X5645Y4273D01*
X5645Y4272D01*
X5644Y4272D01*
X5643Y4272D01*
X5643Y4271D01*
X5642Y4271D01*
X5641Y4271D01*
X5640Y4270D01*
X5639Y4270D01*
X5638Y4270D01*
X5637Y4270D01*
X5636Y4269D01*
X5634Y4269D01*
X5633Y4269D01*
X5632D01*
X5632Y4269D01*
X5631Y4269D01*
X5630Y4270D01*
X5629Y4270D01*
X5628Y4270D01*
X5627Y4270D01*
X5625Y4271D01*
X5624Y4271D01*
X5623Y4272D01*
X5622Y4272D01*
X5621Y4273D01*
X5621Y4273D01*
X5621Y4273D01*
X5620Y4274D01*
X5620Y4274D01*
X5620Y4274D01*
X5619Y4275D01*
X5619Y4275D01*
X5618Y4276D01*
X5618Y4277D01*
X5617Y4279D01*
X5616Y4281D01*
X5616Y4282D01*
X5615Y4283D01*
X5625Y4284D01*
Y4284D01*
X5625Y4284D01*
X5625Y4283D01*
X5625Y4283D01*
X5625Y4282D01*
X5626Y4282D01*
X5626Y4281D01*
X5626Y4281D01*
X5627Y4280D01*
X5627Y4279D01*
X5628Y4279D01*
X5629Y4278D01*
X5630Y4278D01*
X5630Y4277D01*
X5631Y4277D01*
X5633Y4277D01*
X5633D01*
X5634Y4277D01*
X5634Y4277D01*
X5635Y4278D01*
X5636Y4278D01*
X5637Y4278D01*
X5638Y4279D01*
X5638Y4279D01*
X5638Y4279D01*
X5638Y4279D01*
X5638Y4280D01*
X5639Y4281D01*
X5639Y4281D01*
X5639Y4282D01*
X5639Y4283D01*
Y4283D01*
Y4284D01*
X5639Y4284D01*
X5639Y4285D01*
X5639Y4285D01*
X5639Y4286D01*
X5638Y4287D01*
X5638Y4287D01*
X5638Y4287D01*
X5637Y4288D01*
X5637Y4288D01*
X5636Y4288D01*
X5635Y4288D01*
X5634Y4289D01*
X5633Y4289D01*
X5632Y4289D01*
X5627D01*
Y4297D01*
X5632D01*
X5633Y4297D01*
X5634Y4297D01*
X5635Y4297D01*
X5636Y4297D01*
X5636Y4298D01*
X5637Y4298D01*
X5637Y4298D01*
X5637Y4298D01*
X5638Y4299D01*
X5638Y4299D01*
X5638Y4300D01*
X5638Y4300D01*
X5638Y4301D01*
X5639Y4302D01*
Y4302D01*
Y4302D01*
X5638Y4302D01*
X5638Y4303D01*
X5638Y4304D01*
X5638Y4304D01*
X5638Y4305D01*
X5637Y4305D01*
X5637Y4306D01*
X5637Y4306D01*
X5636Y4306D01*
X5636Y4306D01*
X5635Y4307D01*
X5634Y4307D01*
X5634Y4307D01*
X5633Y4307D01*
X5632D01*
X5632Y4307D01*
X5632D01*
X5631Y4307D01*
X5631Y4307D01*
X5630Y4306D01*
X5629Y4306D01*
X5629Y4306D01*
X5628Y4305D01*
X5628Y4305D01*
X5627Y4304D01*
X5627Y4303D01*
X5626Y4302D01*
X5626Y4301D01*
X5617Y4303D01*
Y4303D01*
X5617Y4303D01*
X5617Y4303D01*
X5617Y4304D01*
X5617Y4304D01*
X5617Y4305D01*
X5618Y4306D01*
X5619Y4307D01*
X5620Y4309D01*
X5621Y4310D01*
X5621Y4311D01*
X5622Y4311D01*
X5622Y4311D01*
X5622Y4311D01*
X5623Y4312D01*
X5623Y4312D01*
X5623Y4312D01*
X5624Y4312D01*
X5624Y4313D01*
X5625Y4313D01*
X5626Y4313D01*
X5627Y4314D01*
X5629Y4314D01*
X5631Y4315D01*
X5632Y4315D01*
X5633Y4315D01*
X5633D01*
X5634Y4315D01*
D02*
G37*
G36*
X5561Y4519D02*
X5561D01*
X5562Y4519D01*
X5564Y4519D01*
X5565Y4519D01*
X5567Y4518D01*
X5568Y4518D01*
X5568D01*
X5568Y4518D01*
X5568Y4518D01*
X5569Y4517D01*
X5570Y4517D01*
X5571Y4516D01*
X5572Y4515D01*
X5572Y4514D01*
X5573Y4513D01*
Y4513D01*
X5573Y4513D01*
X5574Y4513D01*
X5574Y4513D01*
X5574Y4512D01*
X5574Y4511D01*
X5575Y4510D01*
X5575Y4509D01*
X5575Y4507D01*
X5575Y4506D01*
Y4506D01*
Y4505D01*
X5575Y4505D01*
X5575Y4504D01*
X5575Y4504D01*
X5575Y4503D01*
X5575Y4502D01*
X5574Y4501D01*
X5574Y4500D01*
X5574Y4499D01*
X5573Y4499D01*
X5572Y4498D01*
X5571Y4497D01*
X5570Y4496D01*
X5569Y4495D01*
X5568Y4494D01*
X5576Y4475D01*
X5565D01*
X5558Y4492D01*
X5550D01*
Y4475D01*
X5540D01*
Y4519D01*
X5560D01*
X5561Y4519D01*
D02*
G37*
G36*
X6873Y4602D02*
X6901Y4555D01*
X6877D01*
X6859Y4587D01*
X6841Y4555D01*
X6822D01*
X6849Y4602D01*
X6825Y4643D01*
X6849D01*
X6863Y4616D01*
X6878Y4643D01*
X6897D01*
X6873Y4602D01*
D02*
G37*
%LPC*%
G36*
X5554Y3316D02*
X5550D01*
Y3288D01*
X5555D01*
X5555Y3288D01*
X5556Y3288D01*
X5556Y3288D01*
X5557Y3289D01*
X5559Y3289D01*
X5560Y3290D01*
X5560Y3290D01*
X5561Y3290D01*
X5562Y3291D01*
X5562Y3292D01*
X5563Y3292D01*
Y3292D01*
X5563Y3293D01*
X5563Y3293D01*
X5563Y3293D01*
X5563Y3294D01*
X5564Y3294D01*
X5564Y3295D01*
X5564Y3295D01*
X5565Y3297D01*
X5565Y3298D01*
X5565Y3300D01*
X5565Y3302D01*
Y3302D01*
Y3303D01*
Y3303D01*
Y3303D01*
X5565Y3304D01*
X5565Y3305D01*
X5565Y3306D01*
X5565Y3307D01*
X5564Y3308D01*
X5564Y3310D01*
Y3310D01*
X5564Y3310D01*
X5564Y3310D01*
X5563Y3311D01*
X5563Y3312D01*
X5562Y3312D01*
X5562Y3313D01*
X5561Y3314D01*
X5560Y3315D01*
X5560Y3315D01*
X5560Y3315D01*
X5559Y3315D01*
X5558Y3315D01*
X5558Y3316D01*
X5557Y3316D01*
X5556Y3316D01*
X5554Y3316D01*
D02*
G37*
G36*
X6779Y4620D02*
X6770Y4589D01*
X6789D01*
X6779Y4620D01*
D02*
G37*
G36*
X6593Y2982D02*
X6576D01*
Y2961D01*
X6593D01*
X6595Y2962D01*
X6597Y2962D01*
X6599Y2962D01*
X6600Y2962D01*
X6602Y2963D01*
X6604Y2964D01*
X6604Y2964D01*
X6604Y2965D01*
X6605Y2965D01*
X6605Y2966D01*
X6606Y2967D01*
X6606Y2969D01*
X6607Y2970D01*
X6607Y2972D01*
Y2972D01*
Y2973D01*
X6607Y2974D01*
X6607Y2975D01*
X6606Y2976D01*
X6606Y2977D01*
X6605Y2978D01*
X6604Y2979D01*
X6604Y2979D01*
X6603Y2980D01*
X6602Y2980D01*
X6601Y2981D01*
X6600Y2982D01*
X6598Y2982D01*
X6596Y2982D01*
X6593Y2982D01*
D02*
G37*
G36*
X6667Y4047D02*
X6651D01*
Y4026D01*
X6667D01*
X6669Y4027D01*
X6671Y4027D01*
X6673Y4027D01*
X6674Y4027D01*
X6676Y4028D01*
X6678Y4029D01*
X6678Y4029D01*
X6678Y4030D01*
X6679Y4030D01*
X6679Y4031D01*
X6680Y4032D01*
X6681Y4034D01*
X6681Y4035D01*
X6681Y4037D01*
Y4037D01*
Y4038D01*
X6681Y4039D01*
X6681Y4040D01*
X6680Y4041D01*
X6680Y4042D01*
X6679Y4043D01*
X6678Y4044D01*
X6678Y4044D01*
X6677Y4045D01*
X6676Y4045D01*
X6675Y4046D01*
X6674Y4047D01*
X6672Y4047D01*
X6670Y4047D01*
X6667Y4047D01*
D02*
G37*
G36*
X5558Y3411D02*
X5550D01*
Y3400D01*
X5558D01*
X5558Y3400D01*
X5560Y3400D01*
X5561Y3400D01*
X5561Y3400D01*
X5561D01*
X5561Y3400D01*
X5562Y3401D01*
X5562Y3401D01*
X5562Y3401D01*
X5563Y3401D01*
X5563Y3402D01*
X5564Y3402D01*
X5564Y3402D01*
X5564Y3402D01*
X5564Y3403D01*
X5564Y3403D01*
X5564Y3404D01*
X5565Y3404D01*
X5565Y3405D01*
X5565Y3406D01*
Y3406D01*
Y3406D01*
X5565Y3406D01*
X5565Y3407D01*
X5565Y3407D01*
X5564Y3408D01*
X5564Y3408D01*
X5564Y3409D01*
X5564Y3409D01*
X5564Y3409D01*
X5563Y3409D01*
X5563Y3410D01*
X5562Y3410D01*
X5562Y3411D01*
X5561Y3411D01*
X5561D01*
X5561Y3411D01*
X5561Y3411D01*
X5560Y3411D01*
X5560D01*
X5559Y3411D01*
X5558Y3411D01*
D02*
G37*
G36*
X6444Y2999D02*
X6444D01*
X6443Y2999D01*
X6442D01*
X6440Y2998D01*
X6439Y2998D01*
X6438Y2997D01*
X6437Y2996D01*
X6436Y2996D01*
X6435Y2995D01*
X6434Y2993D01*
X6433Y2992D01*
X6433Y2990D01*
X6432Y2988D01*
X6432Y2985D01*
X6455D01*
Y2986D01*
Y2986D01*
X6455Y2987D01*
X6455Y2987D01*
X6454Y2989D01*
X6454Y2990D01*
X6453Y2992D01*
X6453Y2993D01*
X6452Y2995D01*
X6451Y2996D01*
X6450Y2997D01*
X6449Y2998D01*
X6447Y2998D01*
X6446Y2999D01*
X6444Y2999D01*
D02*
G37*
G36*
X6667Y4083D02*
X6651D01*
Y4063D01*
X6667D01*
X6669Y4063D01*
X6671Y4064D01*
X6672Y4064D01*
X6674Y4065D01*
X6676Y4066D01*
X6676Y4066D01*
X6677Y4067D01*
X6677Y4067D01*
X6677Y4067D01*
X6677Y4068D01*
X6678Y4069D01*
X6678Y4070D01*
X6679Y4071D01*
X6679Y4072D01*
X6679Y4073D01*
Y4073D01*
Y4074D01*
X6679Y4074D01*
X6679Y4075D01*
X6678Y4077D01*
X6678Y4078D01*
X6677Y4079D01*
X6677Y4079D01*
X6677Y4079D01*
X6676Y4080D01*
X6675Y4081D01*
X6674Y4082D01*
X6673Y4082D01*
X6673D01*
X6673Y4082D01*
X6672Y4082D01*
X6671Y4082D01*
X6670D01*
X6669Y4082D01*
X6667Y4083D01*
D02*
G37*
G36*
X6593Y3018D02*
X6576D01*
Y2998D01*
X6593D01*
X6595Y2998D01*
X6597Y2999D01*
X6598Y2999D01*
X6600Y3000D01*
X6602Y3001D01*
X6602Y3001D01*
X6603Y3002D01*
X6603Y3002D01*
X6603Y3002D01*
X6603Y3003D01*
X6604Y3004D01*
X6604Y3005D01*
X6605Y3006D01*
X6605Y3007D01*
X6605Y3008D01*
Y3008D01*
Y3009D01*
X6605Y3009D01*
X6605Y3010D01*
X6604Y3012D01*
X6604Y3013D01*
X6603Y3014D01*
X6603Y3014D01*
X6603Y3014D01*
X6602Y3015D01*
X6601Y3016D01*
X6600Y3017D01*
X6599Y3017D01*
X6599D01*
X6599Y3017D01*
X6598Y3017D01*
X6597Y3017D01*
X6596D01*
X6595Y3017D01*
X6593Y3018D01*
D02*
G37*
G36*
X5825Y2999D02*
X5824D01*
X5824Y2999D01*
X5823D01*
X5821Y2998D01*
X5820Y2998D01*
X5819Y2997D01*
X5818Y2996D01*
X5817Y2996D01*
X5816Y2995D01*
X5815Y2993D01*
X5814Y2992D01*
X5814Y2990D01*
X5813Y2988D01*
X5813Y2985D01*
X5836D01*
Y2986D01*
Y2986D01*
X5836Y2987D01*
X5836Y2987D01*
X5835Y2989D01*
X5835Y2990D01*
X5834Y2992D01*
X5834Y2993D01*
X5833Y2995D01*
X5832Y2996D01*
X5831Y2997D01*
X5830Y2998D01*
X5828Y2998D01*
X5827Y2999D01*
X5825Y2999D01*
D02*
G37*
G36*
X5619Y3316D02*
X5618D01*
X5618Y3316D01*
X5617Y3316D01*
X5617Y3316D01*
X5616Y3316D01*
X5615Y3315D01*
X5615Y3314D01*
X5614Y3314D01*
X5613Y3313D01*
X5613Y3312D01*
X5612Y3310D01*
X5611Y3309D01*
X5611Y3308D01*
X5611Y3307D01*
X5611Y3306D01*
X5611Y3304D01*
X5611Y3303D01*
Y3302D01*
Y3302D01*
Y3302D01*
Y3302D01*
Y3301D01*
X5611Y3301D01*
X5611Y3300D01*
X5611Y3299D01*
X5611Y3297D01*
X5611Y3296D01*
X5612Y3295D01*
X5612Y3294D01*
X5613Y3292D01*
X5613Y3291D01*
X5614Y3290D01*
X5615Y3289D01*
X5616Y3288D01*
X5617Y3288D01*
X5617Y3288D01*
X5618Y3288D01*
X5619Y3288D01*
X5619D01*
X5619Y3288D01*
X5620Y3288D01*
X5621Y3288D01*
X5621Y3288D01*
X5622Y3289D01*
X5623Y3290D01*
X5623Y3290D01*
X5624Y3291D01*
X5625Y3292D01*
X5625Y3294D01*
X5626Y3295D01*
X5626Y3296D01*
X5626Y3297D01*
X5626Y3298D01*
X5627Y3299D01*
X5627Y3301D01*
Y3302D01*
Y3302D01*
Y3302D01*
Y3302D01*
Y3303D01*
X5627Y3303D01*
X5626Y3304D01*
X5626Y3305D01*
X5626Y3307D01*
X5626Y3308D01*
X5626Y3309D01*
X5625Y3310D01*
X5625Y3312D01*
X5624Y3313D01*
X5623Y3314D01*
X5622Y3315D01*
X5621Y3316D01*
X5621Y3316D01*
X5620Y3316D01*
X5619Y3316D01*
X5619Y3316D01*
D02*
G37*
G36*
X6778Y4075D02*
X6769Y4044D01*
X6787D01*
X6778Y4075D01*
D02*
G37*
G36*
X6994Y2594D02*
X6988D01*
Y2585D01*
X6994D01*
X6995Y2585D01*
X6996Y2585D01*
X6996Y2585D01*
X6997Y2585D01*
X6997D01*
X6997Y2585D01*
X6997Y2585D01*
X6998Y2586D01*
X6998Y2586D01*
X6998Y2586D01*
X6999Y2586D01*
X6999Y2587D01*
X6999Y2587D01*
X6999Y2587D01*
X6999Y2587D01*
X6999Y2588D01*
X7000Y2588D01*
X7000Y2588D01*
X7000Y2589D01*
X7000Y2590D01*
Y2590D01*
Y2590D01*
X7000Y2590D01*
X7000Y2590D01*
X7000Y2591D01*
X6999Y2591D01*
X6999Y2592D01*
X6999Y2592D01*
X6999Y2592D01*
X6999Y2592D01*
X6999Y2593D01*
X6998Y2593D01*
X6998Y2593D01*
X6997Y2593D01*
X6997Y2594D01*
X6997D01*
X6997Y2594D01*
X6997Y2594D01*
X6996Y2594D01*
X6996D01*
X6995Y2594D01*
X6994Y2594D01*
D02*
G37*
G36*
X6781Y3525D02*
X6772Y3494D01*
X6791D01*
X6781Y3525D01*
D02*
G37*
G36*
X6668D02*
X6658Y3494D01*
X6677D01*
X6668Y3525D01*
D02*
G37*
G36*
X5554Y3866D02*
X5550D01*
Y3838D01*
X5555D01*
X5555Y3838D01*
X5556Y3838D01*
X5556Y3838D01*
X5557Y3839D01*
X5559Y3839D01*
X5560Y3840D01*
X5560Y3840D01*
X5561Y3840D01*
X5562Y3841D01*
X5562Y3842D01*
X5563Y3842D01*
Y3842D01*
X5563Y3843D01*
X5563Y3843D01*
X5563Y3843D01*
X5563Y3844D01*
X5564Y3844D01*
X5564Y3845D01*
X5564Y3845D01*
X5565Y3847D01*
X5565Y3848D01*
X5565Y3850D01*
X5565Y3852D01*
Y3852D01*
Y3853D01*
Y3853D01*
Y3853D01*
X5565Y3854D01*
X5565Y3855D01*
X5565Y3856D01*
X5565Y3857D01*
X5564Y3858D01*
X5564Y3860D01*
Y3860D01*
X5564Y3860D01*
X5564Y3860D01*
X5563Y3861D01*
X5563Y3862D01*
X5562Y3862D01*
X5562Y3863D01*
X5561Y3864D01*
X5560Y3865D01*
X5560Y3865D01*
X5560Y3865D01*
X5559Y3865D01*
X5558Y3865D01*
X5558Y3866D01*
X5557Y3866D01*
X5556Y3866D01*
X5554Y3866D01*
D02*
G37*
G36*
X5558Y3961D02*
X5550D01*
Y3950D01*
X5558D01*
X5558Y3950D01*
X5560Y3950D01*
X5561Y3950D01*
X5561Y3950D01*
X5561D01*
X5561Y3950D01*
X5562Y3951D01*
X5562Y3951D01*
X5562Y3951D01*
X5563Y3951D01*
X5563Y3952D01*
X5564Y3952D01*
X5564Y3952D01*
X5564Y3952D01*
X5564Y3953D01*
X5564Y3953D01*
X5564Y3954D01*
X5565Y3954D01*
X5565Y3955D01*
X5565Y3956D01*
Y3956D01*
Y3956D01*
X5565Y3956D01*
X5565Y3957D01*
X5565Y3957D01*
X5564Y3958D01*
X5564Y3958D01*
X5564Y3959D01*
X5564Y3959D01*
X5564Y3959D01*
X5563Y3959D01*
X5563Y3960D01*
X5562Y3960D01*
X5562Y3961D01*
X5561Y3961D01*
X5561D01*
X5561Y3961D01*
X5561Y3961D01*
X5560Y3961D01*
X5560D01*
X5559Y3961D01*
X5558Y3961D01*
D02*
G37*
G36*
X5554Y4416D02*
X5550D01*
Y4388D01*
X5555D01*
X5555Y4388D01*
X5556Y4388D01*
X5556Y4388D01*
X5557Y4389D01*
X5559Y4389D01*
X5560Y4390D01*
X5560Y4390D01*
X5561Y4390D01*
X5562Y4391D01*
X5562Y4392D01*
X5563Y4392D01*
Y4392D01*
X5563Y4393D01*
X5563Y4393D01*
X5563Y4393D01*
X5563Y4394D01*
X5564Y4394D01*
X5564Y4395D01*
X5564Y4395D01*
X5565Y4397D01*
X5565Y4398D01*
X5565Y4400D01*
X5565Y4402D01*
Y4402D01*
Y4403D01*
Y4403D01*
Y4403D01*
X5565Y4404D01*
X5565Y4405D01*
X5565Y4406D01*
X5565Y4407D01*
X5564Y4408D01*
X5564Y4410D01*
Y4410D01*
X5564Y4410D01*
X5564Y4410D01*
X5563Y4411D01*
X5563Y4412D01*
X5562Y4412D01*
X5562Y4413D01*
X5561Y4414D01*
X5560Y4415D01*
X5560Y4415D01*
X5560Y4415D01*
X5559Y4415D01*
X5558Y4415D01*
X5558Y4416D01*
X5557Y4416D01*
X5556Y4416D01*
X5554Y4416D01*
D02*
G37*
G36*
X5558Y4511D02*
X5550D01*
Y4500D01*
X5558D01*
X5558Y4500D01*
X5560Y4500D01*
X5561Y4500D01*
X5561Y4500D01*
X5561D01*
X5561Y4500D01*
X5562Y4501D01*
X5562Y4501D01*
X5562Y4501D01*
X5563Y4501D01*
X5563Y4502D01*
X5564Y4502D01*
X5564Y4502D01*
X5564Y4502D01*
X5564Y4503D01*
X5564Y4503D01*
X5564Y4504D01*
X5565Y4504D01*
X5565Y4505D01*
X5565Y4506D01*
Y4506D01*
Y4506D01*
X5565Y4506D01*
X5565Y4507D01*
X5565Y4507D01*
X5564Y4508D01*
X5564Y4508D01*
X5564Y4509D01*
X5564Y4509D01*
X5564Y4509D01*
X5563Y4509D01*
X5563Y4510D01*
X5562Y4510D01*
X5562Y4511D01*
X5561Y4511D01*
X5561D01*
X5561Y4511D01*
X5561Y4511D01*
X5560Y4511D01*
X5560D01*
X5559Y4511D01*
X5558Y4511D01*
D02*
G37*
G36*
X6360Y3525D02*
X6351Y3494D01*
X6369D01*
X6360Y3525D01*
D02*
G37*
G36*
X5642Y3661D02*
X5637D01*
Y3633D01*
X5642D01*
X5643Y3633D01*
X5643Y3633D01*
X5644Y3633D01*
X5645Y3634D01*
X5646Y3634D01*
X5647Y3635D01*
X5648Y3635D01*
X5648Y3635D01*
X5649Y3636D01*
X5649Y3637D01*
X5650Y3637D01*
Y3637D01*
X5650Y3638D01*
X5650Y3638D01*
X5650Y3638D01*
X5651Y3639D01*
X5651Y3639D01*
X5651Y3640D01*
X5651Y3640D01*
X5652Y3642D01*
X5652Y3643D01*
X5653Y3645D01*
X5653Y3647D01*
Y3647D01*
Y3648D01*
Y3648D01*
Y3648D01*
X5653Y3649D01*
X5652Y3650D01*
X5652Y3651D01*
X5652Y3652D01*
X5652Y3653D01*
X5651Y3655D01*
Y3655D01*
X5651Y3655D01*
X5651Y3655D01*
X5650Y3656D01*
X5650Y3657D01*
X5650Y3657D01*
X5649Y3658D01*
X5648Y3659D01*
X5647Y3660D01*
X5647Y3660D01*
X5647Y3660D01*
X5646Y3660D01*
X5646Y3660D01*
X5645Y3661D01*
X5644Y3661D01*
X5643Y3661D01*
X5642Y3661D01*
D02*
G37*
G36*
X5619Y4416D02*
X5618D01*
X5618Y4416D01*
X5617Y4416D01*
X5617Y4416D01*
X5616Y4416D01*
X5615Y4415D01*
X5615Y4414D01*
X5614Y4414D01*
X5613Y4413D01*
X5613Y4412D01*
X5612Y4410D01*
X5611Y4409D01*
X5611Y4408D01*
X5611Y4407D01*
X5611Y4406D01*
X5611Y4404D01*
X5611Y4403D01*
Y4402D01*
Y4402D01*
Y4402D01*
Y4402D01*
Y4401D01*
X5611Y4401D01*
X5611Y4400D01*
X5611Y4399D01*
X5611Y4397D01*
X5611Y4396D01*
X5612Y4395D01*
X5612Y4394D01*
X5613Y4392D01*
X5613Y4391D01*
X5614Y4390D01*
X5615Y4389D01*
X5616Y4388D01*
X5617Y4388D01*
X5617Y4388D01*
X5618Y4388D01*
X5619Y4388D01*
X5619D01*
X5619Y4388D01*
X5620Y4388D01*
X5621Y4388D01*
X5621Y4388D01*
X5622Y4389D01*
X5623Y4390D01*
X5623Y4390D01*
X5624Y4391D01*
X5625Y4392D01*
X5625Y4394D01*
X5626Y4395D01*
X5626Y4396D01*
X5626Y4397D01*
X5626Y4398D01*
X5627Y4399D01*
X5627Y4401D01*
Y4402D01*
Y4402D01*
Y4402D01*
Y4402D01*
Y4403D01*
X5627Y4403D01*
X5626Y4404D01*
X5626Y4405D01*
X5626Y4407D01*
X5626Y4408D01*
X5626Y4409D01*
X5625Y4410D01*
X5625Y4412D01*
X5624Y4413D01*
X5623Y4414D01*
X5622Y4415D01*
X5621Y4416D01*
X5621Y4416D01*
X5620Y4416D01*
X5619Y4416D01*
X5619Y4416D01*
D02*
G37*
G36*
X6301Y2999D02*
X6300D01*
X6299Y2999D01*
X6298Y2998D01*
X6296Y2998D01*
X6295Y2997D01*
X6294Y2996D01*
X6293Y2995D01*
X6292Y2994D01*
X6292Y2994D01*
X6292Y2993D01*
X6291Y2992D01*
X6291Y2991D01*
X6291Y2990D01*
X6291Y2989D01*
X6290Y2987D01*
X6290Y2986D01*
X6290Y2984D01*
X6290Y2982D01*
X6290Y2980D01*
Y2978D01*
Y2978D01*
Y2977D01*
Y2977D01*
Y2976D01*
X6290Y2975D01*
Y2974D01*
X6290Y2971D01*
X6290Y2969D01*
X6291Y2966D01*
X6292Y2963D01*
X6292Y2962D01*
X6292Y2961D01*
X6293Y2961D01*
X6293Y2960D01*
X6293Y2960D01*
X6294Y2959D01*
X6296Y2958D01*
X6297Y2957D01*
X6299Y2957D01*
X6301Y2956D01*
X6301D01*
X6302Y2956D01*
X6302Y2957D01*
X6303Y2957D01*
X6305Y2957D01*
X6306Y2958D01*
X6307Y2959D01*
X6309Y2960D01*
X6309Y2961D01*
X6309Y2961D01*
X6310Y2962D01*
X6310Y2963D01*
X6310Y2964D01*
X6310Y2965D01*
X6311Y2966D01*
X6311Y2968D01*
X6311Y2969D01*
X6311Y2971D01*
X6312Y2973D01*
X6312Y2975D01*
Y2977D01*
Y2977D01*
Y2977D01*
Y2978D01*
Y2979D01*
X6312Y2980D01*
Y2981D01*
X6311Y2984D01*
X6311Y2987D01*
X6311Y2990D01*
X6310Y2992D01*
X6309Y2993D01*
X6309Y2994D01*
X6309Y2994D01*
X6308Y2995D01*
X6308Y2996D01*
X6307Y2997D01*
X6306Y2997D01*
X6304Y2998D01*
X6303Y2999D01*
X6301Y2999D01*
D02*
G37*
G36*
X5642Y3111D02*
X5637D01*
Y3083D01*
X5642D01*
X5643Y3083D01*
X5643Y3083D01*
X5644Y3083D01*
X5645Y3084D01*
X5646Y3084D01*
X5647Y3085D01*
X5648Y3085D01*
X5648Y3085D01*
X5649Y3086D01*
X5649Y3087D01*
X5650Y3087D01*
Y3087D01*
X5650Y3088D01*
X5650Y3088D01*
X5650Y3088D01*
X5651Y3089D01*
X5651Y3089D01*
X5651Y3090D01*
X5651Y3090D01*
X5652Y3092D01*
X5652Y3093D01*
X5653Y3095D01*
X5653Y3097D01*
Y3097D01*
Y3098D01*
Y3098D01*
Y3098D01*
X5653Y3099D01*
X5652Y3100D01*
X5652Y3101D01*
X5652Y3102D01*
X5652Y3103D01*
X5651Y3105D01*
Y3105D01*
X5651Y3105D01*
X5651Y3105D01*
X5650Y3106D01*
X5650Y3107D01*
X5650Y3107D01*
X5649Y3108D01*
X5648Y3109D01*
X5647Y3110D01*
X5647Y3110D01*
X5647Y3110D01*
X5646Y3110D01*
X5646Y3110D01*
X5645Y3111D01*
X5644Y3111D01*
X5643Y3111D01*
X5642Y3111D01*
D02*
G37*
G36*
X6371Y2998D02*
X6371D01*
X6371Y2998D01*
X6370Y2998D01*
X6369Y2997D01*
X6368Y2997D01*
X6367Y2996D01*
X6366Y2995D01*
X6365Y2994D01*
X6364Y2993D01*
X6363Y2991D01*
X6362Y2989D01*
X6361Y2987D01*
X6361Y2984D01*
X6361Y2980D01*
X6360Y2976D01*
Y2976D01*
Y2976D01*
X6361Y2975D01*
Y2973D01*
X6361Y2972D01*
X6361Y2970D01*
X6362Y2967D01*
X6362Y2965D01*
X6363Y2963D01*
X6364Y2962D01*
X6365Y2960D01*
X6366Y2959D01*
X6367Y2958D01*
X6369Y2957D01*
X6371Y2957D01*
X6371D01*
X6372Y2957D01*
X6373Y2958D01*
X6374Y2958D01*
X6376Y2959D01*
X6377Y2960D01*
X6378Y2961D01*
X6378Y2961D01*
X6378Y2961D01*
X6379Y2962D01*
X6379Y2963D01*
X6380Y2965D01*
X6381Y2966D01*
X6381Y2968D01*
X6381Y2971D01*
Y2983D01*
Y2983D01*
Y2983D01*
Y2984D01*
X6381Y2985D01*
X6381Y2986D01*
X6380Y2988D01*
X6380Y2991D01*
X6379Y2993D01*
X6378Y2995D01*
X6377Y2996D01*
X6376Y2997D01*
X6375Y2997D01*
X6373Y2998D01*
X6371Y2998D01*
D02*
G37*
G36*
X5752D02*
X5752D01*
X5751Y2998D01*
X5751Y2998D01*
X5750Y2997D01*
X5749Y2997D01*
X5748Y2996D01*
X5747Y2995D01*
X5746Y2994D01*
X5745Y2993D01*
X5744Y2991D01*
X5743Y2989D01*
X5742Y2987D01*
X5742Y2984D01*
X5741Y2980D01*
X5741Y2976D01*
Y2976D01*
Y2976D01*
X5741Y2975D01*
Y2973D01*
X5742Y2972D01*
X5742Y2970D01*
X5743Y2967D01*
X5743Y2965D01*
X5744Y2963D01*
X5745Y2962D01*
X5746Y2960D01*
X5747Y2959D01*
X5748Y2958D01*
X5750Y2957D01*
X5752Y2957D01*
X5752D01*
X5753Y2957D01*
X5754Y2958D01*
X5755Y2958D01*
X5756Y2959D01*
X5758Y2960D01*
X5759Y2961D01*
X5759Y2961D01*
X5759Y2961D01*
X5760Y2962D01*
X5760Y2963D01*
X5761Y2965D01*
X5761Y2966D01*
X5762Y2968D01*
X5762Y2971D01*
Y2983D01*
Y2983D01*
Y2983D01*
Y2984D01*
X5762Y2985D01*
X5762Y2986D01*
X5761Y2988D01*
X5761Y2991D01*
X5760Y2993D01*
X5759Y2995D01*
X5758Y2996D01*
X5757Y2997D01*
X5755Y2997D01*
X5754Y2998D01*
X5752Y2998D01*
D02*
G37*
G36*
X5682Y2999D02*
X5681D01*
X5680Y2999D01*
X5679Y2998D01*
X5677Y2998D01*
X5676Y2997D01*
X5675Y2996D01*
X5673Y2995D01*
X5673Y2994D01*
X5673Y2994D01*
X5673Y2993D01*
X5672Y2992D01*
X5672Y2991D01*
X5672Y2990D01*
X5672Y2989D01*
X5671Y2987D01*
X5671Y2986D01*
X5671Y2984D01*
X5671Y2982D01*
X5671Y2980D01*
Y2978D01*
Y2978D01*
Y2977D01*
Y2977D01*
Y2976D01*
X5671Y2975D01*
Y2974D01*
X5671Y2971D01*
X5671Y2969D01*
X5672Y2966D01*
X5672Y2963D01*
X5673Y2962D01*
X5673Y2961D01*
X5673Y2961D01*
X5674Y2960D01*
X5674Y2960D01*
X5675Y2959D01*
X5677Y2958D01*
X5678Y2957D01*
X5680Y2957D01*
X5682Y2956D01*
X5682D01*
X5682Y2956D01*
X5683Y2957D01*
X5684Y2957D01*
X5686Y2957D01*
X5687Y2958D01*
X5688Y2959D01*
X5690Y2960D01*
X5690Y2961D01*
X5690Y2961D01*
X5691Y2962D01*
X5691Y2963D01*
X5691Y2964D01*
X5691Y2965D01*
X5692Y2966D01*
X5692Y2968D01*
X5692Y2969D01*
X5692Y2971D01*
X5692Y2973D01*
X5693Y2975D01*
Y2977D01*
Y2977D01*
Y2977D01*
Y2978D01*
Y2979D01*
X5692Y2980D01*
Y2981D01*
X5692Y2984D01*
X5692Y2987D01*
X5692Y2990D01*
X5691Y2992D01*
X5690Y2993D01*
X5690Y2994D01*
X5690Y2994D01*
X5689Y2995D01*
X5689Y2996D01*
X5688Y2997D01*
X5687Y2997D01*
X5685Y2998D01*
X5684Y2999D01*
X5682Y2999D01*
D02*
G37*
G36*
X5642Y4211D02*
X5637D01*
Y4183D01*
X5642D01*
X5643Y4183D01*
X5643Y4183D01*
X5644Y4183D01*
X5645Y4184D01*
X5646Y4184D01*
X5647Y4185D01*
X5648Y4185D01*
X5648Y4185D01*
X5649Y4186D01*
X5649Y4187D01*
X5650Y4187D01*
Y4187D01*
X5650Y4188D01*
X5650Y4188D01*
X5650Y4188D01*
X5651Y4189D01*
X5651Y4189D01*
X5651Y4190D01*
X5651Y4190D01*
X5652Y4192D01*
X5652Y4193D01*
X5653Y4195D01*
X5653Y4197D01*
Y4197D01*
Y4198D01*
Y4198D01*
Y4198D01*
X5653Y4199D01*
X5652Y4200D01*
X5652Y4201D01*
X5652Y4202D01*
X5652Y4203D01*
X5651Y4205D01*
Y4205D01*
X5651Y4205D01*
X5651Y4205D01*
X5650Y4206D01*
X5650Y4207D01*
X5650Y4207D01*
X5649Y4208D01*
X5648Y4209D01*
X5647Y4210D01*
X5647Y4210D01*
X5647Y4210D01*
X5646Y4210D01*
X5646Y4210D01*
X5645Y4211D01*
X5644Y4211D01*
X5643Y4211D01*
X5642Y4211D01*
D02*
G37*
G36*
X5619Y3866D02*
X5618D01*
X5618Y3866D01*
X5617Y3866D01*
X5617Y3866D01*
X5616Y3866D01*
X5615Y3865D01*
X5615Y3864D01*
X5614Y3864D01*
X5613Y3863D01*
X5613Y3862D01*
X5612Y3860D01*
X5611Y3859D01*
X5611Y3858D01*
X5611Y3857D01*
X5611Y3856D01*
X5611Y3854D01*
X5611Y3853D01*
Y3852D01*
Y3852D01*
Y3852D01*
Y3852D01*
Y3851D01*
X5611Y3851D01*
X5611Y3850D01*
X5611Y3849D01*
X5611Y3847D01*
X5611Y3846D01*
X5612Y3845D01*
X5612Y3844D01*
X5613Y3842D01*
X5613Y3841D01*
X5614Y3840D01*
X5615Y3839D01*
X5616Y3838D01*
X5617Y3838D01*
X5617Y3838D01*
X5618Y3838D01*
X5619Y3838D01*
X5619D01*
X5619Y3838D01*
X5620Y3838D01*
X5621Y3838D01*
X5621Y3838D01*
X5622Y3839D01*
X5623Y3840D01*
X5623Y3840D01*
X5624Y3841D01*
X5625Y3842D01*
X5625Y3844D01*
X5626Y3845D01*
X5626Y3846D01*
X5626Y3847D01*
X5626Y3848D01*
X5627Y3849D01*
X5627Y3851D01*
Y3852D01*
Y3852D01*
Y3852D01*
Y3852D01*
Y3853D01*
X5627Y3853D01*
X5626Y3854D01*
X5626Y3855D01*
X5626Y3857D01*
X5626Y3858D01*
X5626Y3859D01*
X5625Y3860D01*
X5625Y3862D01*
X5624Y3863D01*
X5623Y3864D01*
X5622Y3865D01*
X5621Y3866D01*
X5621Y3866D01*
X5620Y3866D01*
X5619Y3866D01*
X5619Y3866D01*
D02*
G37*
G36*
X6355Y4620D02*
X6345Y4589D01*
X6364D01*
X6355Y4620D01*
D02*
G37*
G36*
X6353Y4075D02*
X6344Y4044D01*
X6363D01*
X6353Y4075D01*
D02*
G37*
%LPD*%
D23*
X5411Y2417D02*
X5529D01*
Y2578D01*
X5411D02*
X5529D01*
X5411Y2417D02*
Y2578D01*
X5676Y4162D02*
X5794D01*
Y4323D01*
X5676D02*
X5794D01*
X5676Y4162D02*
Y4323D01*
X5715Y4495D02*
Y4515D01*
Y4495D02*
X6140D01*
Y4515D01*
X5715Y4625D02*
Y4645D01*
X6140D01*
Y4625D02*
Y4645D01*
X5676Y3612D02*
X5794D01*
Y3773D01*
X5676D02*
X5794D01*
X5676Y3612D02*
Y3773D01*
X5715Y3945D02*
Y3965D01*
Y3945D02*
X6140D01*
Y3965D01*
X5715Y4075D02*
Y4095D01*
X6140D01*
Y4075D02*
Y4095D01*
X5676Y3062D02*
X5794D01*
Y3223D01*
X5676D02*
X5794D01*
X5676Y3062D02*
Y3223D01*
X5715Y3395D02*
Y3415D01*
Y3395D02*
X6140D01*
Y3415D01*
X5715Y3525D02*
Y3545D01*
X6140D01*
Y3525D02*
Y3545D01*
D25*
X6731Y2530D02*
X6759D01*
X6731Y2480D02*
X6759D01*
X6731Y2610D02*
X6759D01*
X6731Y2560D02*
X6759D01*
X6971Y2472D02*
Y2535D01*
X6881Y2479D02*
X6909D01*
X6881Y2529D02*
X6909D01*
X6971Y2557D02*
Y2620D01*
X6881Y2564D02*
X6909D01*
X6881Y2614D02*
X6909D01*
D35*
X5713Y2712D02*
G03*
X5713Y2712I-5J0D01*
G01*
X5940Y4349D02*
G03*
X5940Y4349I-5J0D01*
G01*
Y3799D02*
G03*
X5940Y3799I-5J0D01*
G01*
Y3249D02*
G03*
X5940Y3249I-5J0D01*
G01*
D36*
X5806Y2651D02*
G03*
X5806Y2651I-12J0D01*
G01*
D37*
X6281Y2894D02*
G03*
X6281Y2894I-5J0D01*
G01*
D38*
X6900Y2970D02*
X7040D01*
Y2925D02*
Y2970D01*
X6900Y2680D02*
X7040D01*
X7030Y2690D02*
Y2800D01*
X7040Y2725D02*
X7050D01*
Y2775D01*
X7040Y2925D02*
X7050D01*
X7040Y2680D02*
Y2925D01*
X7050Y2775D02*
X7065D01*
X7050D02*
Y2875D01*
X7065Y2775D02*
Y2875D01*
X7050D02*
X7065D01*
X7050D02*
Y2925D01*
X6990Y2800D02*
X7030D01*
Y2850D01*
X6990Y2800D02*
Y2850D01*
X7030D01*
Y2960D01*
X6900Y2690D02*
Y2720D01*
X6890D02*
X6900D01*
X6890D02*
Y2750D01*
X6900D01*
Y2795D01*
X6910D01*
Y2855D01*
X6900D02*
X6910D01*
X6900D02*
Y2895D01*
X6890D02*
X6900D01*
X6890D02*
Y2930D01*
X6900D01*
Y2960D01*
Y2690D02*
X6920D01*
X6980D02*
X7030D01*
X6980Y2960D02*
X7030D01*
X6900D02*
X6920D01*
D39*
X5410Y2110D02*
X6110D01*
X5410Y2310D02*
X6110D01*
X5410Y2110D02*
Y2310D01*
X6110Y2110D02*
Y2310D01*
X5755Y2460D02*
Y2690D01*
X5985Y2460D02*
Y2690D01*
X5755D02*
X5985D01*
X5755Y2460D02*
X5985D01*
X6694Y2727D02*
Y2743D01*
X6666Y2727D02*
Y2743D01*
X5702Y2819D02*
X5718D01*
X5702Y2791D02*
X5718D01*
X5742Y2869D02*
X5758D01*
X5742Y2841D02*
X5758D01*
X5960Y4185D02*
X5975D01*
X5960D02*
Y4200D01*
X6115Y4185D02*
X6130D01*
Y4200D01*
Y4340D02*
Y4355D01*
X6115D02*
X6130D01*
X5960D02*
X5975D01*
X5960Y4340D02*
Y4355D01*
X6127Y4391D02*
X6143D01*
X6127Y4419D02*
X6143D01*
X5425Y4145D02*
X5525D01*
X5425D02*
Y4645D01*
X5525Y4145D02*
Y4645D01*
X5425D02*
X5525D01*
X6205Y4145D02*
X6600D01*
X6205Y4545D02*
X6600D01*
Y4145D02*
Y4545D01*
X6205Y4145D02*
Y4545D01*
X6630Y4145D02*
X7025D01*
X6630Y4545D02*
X7025D01*
Y4145D02*
Y4545D01*
X6630Y4145D02*
Y4545D01*
X5960Y3635D02*
X5975D01*
X5960D02*
Y3650D01*
X6115Y3635D02*
X6130D01*
Y3650D01*
Y3790D02*
Y3805D01*
X6115D02*
X6130D01*
X5960D02*
X5975D01*
X5960Y3790D02*
Y3805D01*
X6127Y3841D02*
X6143D01*
X6127Y3869D02*
X6143D01*
X6630Y3595D02*
X7025D01*
X6630Y3995D02*
X7025D01*
Y3595D02*
Y3995D01*
X6630Y3595D02*
Y3995D01*
X5425Y3595D02*
X5525D01*
X5425D02*
Y4095D01*
X5525Y3595D02*
Y4095D01*
X5425D02*
X5525D01*
X6205Y3595D02*
X6600D01*
X6205Y3995D02*
X6600D01*
Y3595D02*
Y3995D01*
X6205Y3595D02*
Y3995D01*
X5960Y3085D02*
X5975D01*
X5960D02*
Y3100D01*
X6115Y3085D02*
X6130D01*
Y3100D01*
Y3240D02*
Y3255D01*
X6115D02*
X6130D01*
X5960D02*
X5975D01*
X5960Y3240D02*
Y3255D01*
X6127Y3291D02*
X6143D01*
X6127Y3319D02*
X6143D01*
X6630Y3045D02*
X7025D01*
X6630Y3445D02*
X7025D01*
Y3045D02*
Y3445D01*
X6630Y3045D02*
Y3445D01*
X5425Y3045D02*
X5525D01*
X5425D02*
Y3545D01*
X5525Y3045D02*
Y3545D01*
X5425D02*
X5525D01*
X6205Y3045D02*
X6600D01*
X6205Y3445D02*
X6600D01*
Y3045D02*
Y3445D01*
X6205Y3045D02*
Y3445D01*
X6330Y2555D02*
X6530D01*
X6330Y2455D02*
Y2555D01*
Y2455D02*
X6530D01*
Y2555D01*
D40*
X7000Y3015D02*
X6995Y3020D01*
X6985D01*
X6980Y3015D01*
Y3010D01*
X6985Y3005D01*
X6995D01*
X7000Y3000D01*
Y2995D01*
X6995Y2990D01*
X6985D01*
X6980Y2995D01*
X7010Y2990D02*
X7020D01*
X7015D01*
Y3020D01*
X7010Y3015D01*
X6740Y2680D02*
X6735Y2685D01*
X6725D01*
X6720Y2680D01*
Y2660D01*
X6725Y2655D01*
X6735D01*
X6740Y2660D01*
X6750D02*
X6755Y2655D01*
X6765D01*
X6770Y2660D01*
Y2680D01*
X6765Y2685D01*
X6755D01*
X6750Y2680D01*
Y2675D01*
X6755Y2670D01*
X6770D01*
X6157Y2610D02*
X6152Y2605D01*
Y2595D01*
X6157Y2590D01*
X6177D01*
X6182Y2595D01*
Y2605D01*
X6177Y2610D01*
X6182Y2620D02*
Y2630D01*
Y2625D01*
X6152D01*
X6157Y2620D01*
Y2645D02*
X6152Y2650D01*
Y2660D01*
X6157Y2665D01*
X6177D01*
X6182Y2660D01*
Y2650D01*
X6177Y2645D01*
X6157D01*
X6105Y2615D02*
X6100Y2610D01*
Y2600D01*
X6105Y2595D01*
X6125D01*
X6130Y2600D01*
Y2610D01*
X6125Y2615D01*
X6130Y2625D02*
Y2635D01*
Y2630D01*
X6100D01*
X6105Y2625D01*
X6130Y2650D02*
Y2660D01*
Y2655D01*
X6100D01*
X6105Y2650D01*
X6550Y2645D02*
Y2635D01*
Y2640D01*
X6575D01*
X6580Y2635D01*
Y2630D01*
X6575Y2625D01*
X6550Y2655D02*
Y2675D01*
Y2665D01*
X6580D01*
Y2685D02*
X6560D01*
X6550Y2695D01*
X6560Y2705D01*
X6580D01*
X6565D01*
Y2685D01*
X6555Y2735D02*
X6550Y2730D01*
Y2720D01*
X6555Y2715D01*
X6575D01*
X6580Y2720D01*
Y2730D01*
X6575Y2735D01*
X6565D01*
Y2725D01*
X6580Y2745D02*
X6560Y2765D01*
X6550Y2775D02*
X6580D01*
Y2790D01*
X6575Y2795D01*
X6555D01*
X6550Y2790D01*
Y2775D01*
Y2825D02*
Y2805D01*
X6580D01*
Y2825D01*
X6565Y2805D02*
Y2815D01*
X6550Y2835D02*
X6580D01*
Y2850D01*
X6575Y2855D01*
X6570D01*
X6565Y2850D01*
Y2835D01*
Y2850D01*
X6560Y2855D01*
X6555D01*
X6550Y2850D01*
Y2835D01*
Y2865D02*
X6575D01*
X6580Y2870D01*
Y2880D01*
X6575Y2885D01*
X6550D01*
X6555Y2915D02*
X6550Y2910D01*
Y2900D01*
X6555Y2895D01*
X6575D01*
X6580Y2900D01*
Y2910D01*
X6575Y2915D01*
X6565D01*
Y2905D01*
X6580Y2925D02*
Y2935D01*
Y2930D01*
X6550D01*
X6555Y2925D01*
X5411Y2369D02*
Y2339D01*
Y2349D01*
X5431Y2369D01*
X5416Y2354D01*
X5431Y2339D01*
X5441D02*
X5451D01*
X5446D01*
Y2369D01*
X5441Y2364D01*
X6330Y2415D02*
Y2445D01*
X6345D01*
X6350Y2440D01*
Y2430D01*
X6345Y2425D01*
X6330D01*
X6380Y2445D02*
X6360D01*
Y2430D01*
X6370Y2435D01*
X6375D01*
X6380Y2430D01*
Y2420D01*
X6375Y2415D01*
X6365D01*
X6360Y2420D01*
X5755Y2732D02*
Y2707D01*
X5760Y2702D01*
X5770D01*
X5775Y2707D01*
Y2732D01*
X5805Y2702D02*
X5785D01*
X5805Y2722D01*
Y2727D01*
X5800Y2732D01*
X5790D01*
X5785Y2727D01*
X5615Y2590D02*
X5610Y2595D01*
X5600D01*
X5595Y2590D01*
Y2570D01*
X5600Y2565D01*
X5610D01*
X5615Y2570D01*
X5625Y2590D02*
X5630Y2595D01*
X5640D01*
X5645Y2590D01*
Y2585D01*
X5640Y2580D01*
X5635D01*
X5640D01*
X5645Y2575D01*
Y2570D01*
X5640Y2565D01*
X5630D01*
X5625Y2570D01*
X5560Y2560D02*
X5555Y2565D01*
X5545D01*
X5540Y2560D01*
Y2540D01*
X5545Y2535D01*
X5555D01*
X5560Y2540D01*
X5585Y2535D02*
Y2565D01*
X5570Y2550D01*
X5590D01*
X5455Y2685D02*
X5450Y2690D01*
X5440D01*
X5435Y2685D01*
Y2665D01*
X5440Y2660D01*
X5450D01*
X5455Y2665D01*
X5485Y2690D02*
X5465D01*
Y2675D01*
X5475Y2680D01*
X5480D01*
X5485Y2675D01*
Y2665D01*
X5480Y2660D01*
X5470D01*
X5465Y2665D01*
X5615Y2690D02*
X5610Y2695D01*
X5600D01*
X5595Y2690D01*
Y2670D01*
X5600Y2665D01*
X5610D01*
X5615Y2670D01*
X5645Y2695D02*
X5635Y2690D01*
X5625Y2680D01*
Y2670D01*
X5630Y2665D01*
X5640D01*
X5645Y2670D01*
Y2675D01*
X5640Y2680D01*
X5625D01*
X5570Y2830D02*
X5565Y2835D01*
X5555D01*
X5550Y2830D01*
Y2810D01*
X5555Y2805D01*
X5565D01*
X5570Y2810D01*
X5580Y2805D02*
X5590D01*
X5585D01*
Y2835D01*
X5580Y2830D01*
X5605D02*
X5610Y2835D01*
X5620D01*
X5625Y2830D01*
Y2825D01*
X5620Y2820D01*
X5615D01*
X5620D01*
X5625Y2815D01*
Y2810D01*
X5620Y2805D01*
X5610D01*
X5605Y2810D01*
X5475Y2830D02*
X5470Y2835D01*
X5460D01*
X5455Y2830D01*
Y2810D01*
X5460Y2805D01*
X5470D01*
X5475Y2810D01*
X5485Y2805D02*
X5495D01*
X5490D01*
Y2835D01*
X5485Y2830D01*
X5525Y2805D02*
Y2835D01*
X5510Y2820D01*
X5530D01*
X6625Y2555D02*
Y2585D01*
X6640D01*
X6645Y2580D01*
Y2570D01*
X6640Y2565D01*
X6625D01*
X6635D02*
X6645Y2555D01*
X6670D02*
Y2585D01*
X6655Y2570D01*
X6675D01*
X6615Y2485D02*
Y2515D01*
X6630D01*
X6635Y2510D01*
Y2500D01*
X6630Y2495D01*
X6615D01*
X6625D02*
X6635Y2485D01*
X6665Y2515D02*
X6645D01*
Y2500D01*
X6655Y2505D01*
X6660D01*
X6665Y2500D01*
Y2490D01*
X6660Y2485D01*
X6650D01*
X6645Y2490D01*
X5485Y2405D02*
X5505Y2375D01*
Y2405D02*
X5485Y2375D01*
X5535D02*
X5515D01*
X5535Y2395D01*
Y2400D01*
X5530Y2405D01*
X5520D01*
X5515Y2400D01*
X6665Y2655D02*
Y2685D01*
X6680D01*
X6685Y2680D01*
Y2670D01*
X6680Y2665D01*
X6665D01*
X6675D02*
X6685Y2655D01*
X6695D02*
X6705D01*
X6700D01*
Y2685D01*
X6695Y2680D01*
X5645Y2835D02*
Y2865D01*
X5660D01*
X5665Y2860D01*
Y2850D01*
X5660Y2845D01*
X5645D01*
X5655D02*
X5665Y2835D01*
X5695D02*
X5675D01*
X5695Y2855D01*
Y2860D01*
X5690Y2865D01*
X5680D01*
X5675Y2860D01*
X5805Y2840D02*
Y2870D01*
X5820D01*
X5825Y2865D01*
Y2855D01*
X5820Y2850D01*
X5805D01*
X5815D02*
X5825Y2840D01*
X5835Y2865D02*
X5840Y2870D01*
X5850D01*
X5855Y2865D01*
Y2860D01*
X5850Y2855D01*
X5845D01*
X5850D01*
X5855Y2850D01*
Y2845D01*
X5850Y2840D01*
X5840D01*
X5835Y2845D01*
X5830Y3065D02*
X5825Y3070D01*
X5815D01*
X5810Y3065D01*
Y3045D01*
X5815Y3040D01*
X5825D01*
X5830Y3045D01*
X5840Y3040D02*
X5850D01*
X5845D01*
Y3070D01*
X5840Y3065D01*
X5865Y3040D02*
Y3060D01*
X5875Y3070D01*
X5885Y3060D01*
Y3040D01*
Y3055D01*
X5865D01*
X5822Y3616D02*
X5817Y3620D01*
X5809D01*
X5805Y3616D01*
Y3599D01*
X5809Y3595D01*
X5817D01*
X5822Y3599D01*
X5830Y3595D02*
X5838D01*
X5834D01*
Y3620D01*
X5830Y3616D01*
X5851Y3620D02*
Y3595D01*
X5863D01*
X5867Y3599D01*
Y3603D01*
X5863Y3607D01*
X5851D01*
X5863D01*
X5867Y3612D01*
Y3616D01*
X5863Y3620D01*
X5851D01*
X5830Y4165D02*
X5825Y4170D01*
X5815D01*
X5810Y4165D01*
Y4145D01*
X5815Y4140D01*
X5825D01*
X5830Y4145D01*
X5840Y4140D02*
X5850D01*
X5845D01*
Y4170D01*
X5840Y4165D01*
X5885D02*
X5880Y4170D01*
X5870D01*
X5865Y4165D01*
Y4145D01*
X5870Y4140D01*
X5880D01*
X5885Y4145D01*
X5915Y3125D02*
X5910Y3120D01*
Y3110D01*
X5915Y3105D01*
X5935D01*
X5940Y3110D01*
Y3120D01*
X5935Y3125D01*
X5940Y3155D02*
Y3135D01*
X5920Y3155D01*
X5915D01*
X5910Y3150D01*
Y3140D01*
X5915Y3135D01*
X5940Y3165D02*
X5920D01*
X5910Y3175D01*
X5920Y3185D01*
X5940D01*
X5925D01*
Y3165D01*
X5915Y3675D02*
X5910Y3670D01*
Y3660D01*
X5915Y3655D01*
X5935D01*
X5940Y3660D01*
Y3670D01*
X5935Y3675D01*
X5940Y3705D02*
Y3685D01*
X5920Y3705D01*
X5915D01*
X5910Y3700D01*
Y3690D01*
X5915Y3685D01*
X5910Y3715D02*
X5940D01*
Y3730D01*
X5935Y3735D01*
X5930D01*
X5925Y3730D01*
Y3715D01*
Y3730D01*
X5920Y3735D01*
X5915D01*
X5910Y3730D01*
Y3715D01*
X5915Y4225D02*
X5910Y4220D01*
Y4210D01*
X5915Y4205D01*
X5935D01*
X5940Y4210D01*
Y4220D01*
X5935Y4225D01*
X5940Y4255D02*
Y4235D01*
X5920Y4255D01*
X5915D01*
X5910Y4250D01*
Y4240D01*
X5915Y4235D01*
Y4285D02*
X5910Y4280D01*
Y4270D01*
X5915Y4265D01*
X5935D01*
X5940Y4270D01*
Y4280D01*
X5935Y4285D01*
X5785Y3345D02*
X5780Y3350D01*
X5770D01*
X5765Y3345D01*
Y3325D01*
X5770Y3320D01*
X5780D01*
X5785Y3325D01*
X5795Y3350D02*
X5815D01*
Y3345D01*
X5795Y3325D01*
Y3320D01*
X5825D02*
Y3340D01*
X5835Y3350D01*
X5845Y3340D01*
Y3320D01*
Y3335D01*
X5825D01*
X5785Y3895D02*
X5780Y3900D01*
X5770D01*
X5765Y3895D01*
Y3875D01*
X5770Y3870D01*
X5780D01*
X5785Y3875D01*
X5795Y3900D02*
X5815D01*
Y3895D01*
X5795Y3875D01*
Y3870D01*
X5825Y3900D02*
Y3870D01*
X5840D01*
X5845Y3875D01*
Y3880D01*
X5840Y3885D01*
X5825D01*
X5840D01*
X5845Y3890D01*
Y3895D01*
X5840Y3900D01*
X5825D01*
X5785Y4445D02*
X5780Y4450D01*
X5770D01*
X5765Y4445D01*
Y4425D01*
X5770Y4420D01*
X5780D01*
X5785Y4425D01*
X5795Y4450D02*
X5815D01*
Y4445D01*
X5795Y4425D01*
Y4420D01*
X5845Y4445D02*
X5840Y4450D01*
X5830D01*
X5825Y4445D01*
Y4425D01*
X5830Y4420D01*
X5840D01*
X5845Y4425D01*
X5880Y3330D02*
X5875Y3335D01*
X5865D01*
X5860Y3330D01*
Y3310D01*
X5865Y3305D01*
X5875D01*
X5880Y3310D01*
X5890Y3330D02*
X5895Y3335D01*
X5905D01*
X5910Y3330D01*
Y3325D01*
X5905Y3320D01*
X5910Y3315D01*
Y3310D01*
X5905Y3305D01*
X5895D01*
X5890Y3310D01*
Y3315D01*
X5895Y3320D01*
X5890Y3325D01*
Y3330D01*
X5895Y3320D02*
X5905D01*
X5920Y3305D02*
Y3325D01*
X5930Y3335D01*
X5940Y3325D01*
Y3305D01*
Y3320D01*
X5920D01*
X5880Y3880D02*
X5875Y3885D01*
X5865D01*
X5860Y3880D01*
Y3860D01*
X5865Y3855D01*
X5875D01*
X5880Y3860D01*
X5890Y3880D02*
X5895Y3885D01*
X5905D01*
X5910Y3880D01*
Y3875D01*
X5905Y3870D01*
X5910Y3865D01*
Y3860D01*
X5905Y3855D01*
X5895D01*
X5890Y3860D01*
Y3865D01*
X5895Y3870D01*
X5890Y3875D01*
Y3880D01*
X5895Y3870D02*
X5905D01*
X5920Y3885D02*
Y3855D01*
X5935D01*
X5940Y3860D01*
Y3865D01*
X5935Y3870D01*
X5920D01*
X5935D01*
X5940Y3875D01*
Y3880D01*
X5935Y3885D01*
X5920D01*
X5880Y4430D02*
X5875Y4435D01*
X5865D01*
X5860Y4430D01*
Y4410D01*
X5865Y4405D01*
X5875D01*
X5880Y4410D01*
X5890Y4430D02*
X5895Y4435D01*
X5905D01*
X5910Y4430D01*
Y4425D01*
X5905Y4420D01*
X5910Y4415D01*
Y4410D01*
X5905Y4405D01*
X5895D01*
X5890Y4410D01*
Y4415D01*
X5895Y4420D01*
X5890Y4425D01*
Y4430D01*
X5895Y4420D02*
X5905D01*
X5940Y4430D02*
X5935Y4435D01*
X5925D01*
X5920Y4430D01*
Y4410D01*
X5925Y4405D01*
X5935D01*
X5940Y4410D01*
X6020Y3365D02*
X6015Y3370D01*
X6005D01*
X6000Y3365D01*
Y3345D01*
X6005Y3340D01*
X6015D01*
X6020Y3345D01*
X6030D02*
X6035Y3340D01*
X6045D01*
X6050Y3345D01*
Y3365D01*
X6045Y3370D01*
X6035D01*
X6030Y3365D01*
Y3360D01*
X6035Y3355D01*
X6050D01*
X6060Y3340D02*
Y3360D01*
X6070Y3370D01*
X6080Y3360D01*
Y3340D01*
Y3355D01*
X6060D01*
X6020Y3915D02*
X6015Y3920D01*
X6005D01*
X6000Y3915D01*
Y3895D01*
X6005Y3890D01*
X6015D01*
X6020Y3895D01*
X6030D02*
X6035Y3890D01*
X6045D01*
X6050Y3895D01*
Y3915D01*
X6045Y3920D01*
X6035D01*
X6030Y3915D01*
Y3910D01*
X6035Y3905D01*
X6050D01*
X6060Y3920D02*
Y3890D01*
X6075D01*
X6080Y3895D01*
Y3900D01*
X6075Y3905D01*
X6060D01*
X6075D01*
X6080Y3910D01*
Y3915D01*
X6075Y3920D01*
X6060D01*
X6020Y4465D02*
X6015Y4470D01*
X6005D01*
X6000Y4465D01*
Y4445D01*
X6005Y4440D01*
X6015D01*
X6020Y4445D01*
X6030D02*
X6035Y4440D01*
X6045D01*
X6050Y4445D01*
Y4465D01*
X6045Y4470D01*
X6035D01*
X6030Y4465D01*
Y4460D01*
X6035Y4455D01*
X6050D01*
X6080Y4465D02*
X6075Y4470D01*
X6065D01*
X6060Y4465D01*
Y4445D01*
X6065Y4440D01*
X6075D01*
X6080Y4445D01*
X6220Y3055D02*
Y3085D01*
X6235D01*
X6240Y3080D01*
Y3070D01*
X6235Y3065D01*
X6220D01*
X6250Y3055D02*
X6260D01*
X6255D01*
Y3085D01*
X6250Y3080D01*
X6275Y3055D02*
Y3075D01*
X6285Y3085D01*
X6295Y3075D01*
Y3055D01*
Y3070D01*
X6275D01*
X6220Y3605D02*
Y3635D01*
X6235D01*
X6240Y3630D01*
Y3620D01*
X6235Y3615D01*
X6220D01*
X6250Y3605D02*
X6260D01*
X6255D01*
Y3635D01*
X6250Y3630D01*
X6275Y3635D02*
Y3605D01*
X6290D01*
X6295Y3610D01*
Y3615D01*
X6290Y3620D01*
X6275D01*
X6290D01*
X6295Y3625D01*
Y3630D01*
X6290Y3635D01*
X6275D01*
X6220Y4155D02*
Y4185D01*
X6235D01*
X6240Y4180D01*
Y4170D01*
X6235Y4165D01*
X6220D01*
X6250Y4155D02*
X6260D01*
X6255D01*
Y4185D01*
X6250Y4180D01*
X6295D02*
X6290Y4185D01*
X6280D01*
X6275Y4180D01*
Y4160D01*
X6280Y4155D01*
X6290D01*
X6295Y4160D01*
X6645Y3055D02*
Y3085D01*
X6660D01*
X6665Y3080D01*
Y3070D01*
X6660Y3065D01*
X6645D01*
X6675Y3080D02*
X6680Y3085D01*
X6690D01*
X6695Y3080D01*
Y3075D01*
X6690Y3070D01*
X6685D01*
X6690D01*
X6695Y3065D01*
Y3060D01*
X6690Y3055D01*
X6680D01*
X6675Y3060D01*
X6705Y3055D02*
Y3075D01*
X6715Y3085D01*
X6725Y3075D01*
Y3055D01*
Y3070D01*
X6705D01*
X6645Y3605D02*
Y3635D01*
X6660D01*
X6665Y3630D01*
Y3620D01*
X6660Y3615D01*
X6645D01*
X6675Y3630D02*
X6680Y3635D01*
X6690D01*
X6695Y3630D01*
Y3625D01*
X6690Y3620D01*
X6685D01*
X6690D01*
X6695Y3615D01*
Y3610D01*
X6690Y3605D01*
X6680D01*
X6675Y3610D01*
X6705Y3635D02*
Y3605D01*
X6720D01*
X6725Y3610D01*
Y3615D01*
X6720Y3620D01*
X6705D01*
X6720D01*
X6725Y3625D01*
Y3630D01*
X6720Y3635D01*
X6705D01*
X6645Y4155D02*
Y4185D01*
X6660D01*
X6665Y4180D01*
Y4170D01*
X6660Y4165D01*
X6645D01*
X6675Y4180D02*
X6680Y4185D01*
X6690D01*
X6695Y4180D01*
Y4175D01*
X6690Y4170D01*
X6685D01*
X6690D01*
X6695Y4165D01*
Y4160D01*
X6690Y4155D01*
X6680D01*
X6675Y4160D01*
X6725Y4180D02*
X6720Y4185D01*
X6710D01*
X6705Y4180D01*
Y4160D01*
X6710Y4155D01*
X6720D01*
X6725Y4160D01*
X6150Y3275D02*
X6180D01*
Y3260D01*
X6175Y3255D01*
X6165D01*
X6160Y3260D01*
Y3275D01*
Y3265D02*
X6150Y3255D01*
Y3245D02*
Y3235D01*
Y3240D01*
X6180D01*
X6175Y3245D01*
X6150Y3220D02*
X6170D01*
X6180Y3210D01*
X6170Y3200D01*
X6150D01*
X6165D01*
Y3220D01*
X6150Y3825D02*
X6180D01*
Y3810D01*
X6175Y3805D01*
X6165D01*
X6160Y3810D01*
Y3825D01*
Y3815D02*
X6150Y3805D01*
Y3795D02*
Y3785D01*
Y3790D01*
X6180D01*
X6175Y3795D01*
X6180Y3770D02*
X6150D01*
Y3755D01*
X6155Y3750D01*
X6160D01*
X6165Y3755D01*
Y3770D01*
Y3755D01*
X6170Y3750D01*
X6175D01*
X6180Y3755D01*
Y3770D01*
X6150Y4375D02*
X6180D01*
Y4360D01*
X6175Y4355D01*
X6165D01*
X6160Y4360D01*
Y4375D01*
Y4365D02*
X6150Y4355D01*
Y4345D02*
Y4335D01*
Y4340D01*
X6180D01*
X6175Y4345D01*
Y4300D02*
X6180Y4305D01*
Y4315D01*
X6175Y4320D01*
X6155D01*
X6150Y4315D01*
Y4305D01*
X6155Y4300D01*
X5820Y3435D02*
X5815Y3440D01*
X5805D01*
X5800Y3435D01*
Y3430D01*
X5805Y3425D01*
X5815D01*
X5820Y3420D01*
Y3415D01*
X5815Y3410D01*
X5805D01*
X5800Y3415D01*
X5830Y3410D02*
X5840D01*
X5835D01*
Y3440D01*
X5830Y3435D01*
X5855Y3410D02*
Y3430D01*
X5865Y3440D01*
X5875Y3430D01*
Y3410D01*
Y3425D01*
X5855D01*
X5820Y3985D02*
X5815Y3990D01*
X5805D01*
X5800Y3985D01*
Y3980D01*
X5805Y3975D01*
X5815D01*
X5820Y3970D01*
Y3965D01*
X5815Y3960D01*
X5805D01*
X5800Y3965D01*
X5830Y3960D02*
X5840D01*
X5835D01*
Y3990D01*
X5830Y3985D01*
X5855Y3990D02*
Y3960D01*
X5870D01*
X5875Y3965D01*
Y3970D01*
X5870Y3975D01*
X5855D01*
X5870D01*
X5875Y3980D01*
Y3985D01*
X5870Y3990D01*
X5855D01*
X5820Y4535D02*
X5815Y4540D01*
X5805D01*
X5800Y4535D01*
Y4530D01*
X5805Y4525D01*
X5815D01*
X5820Y4520D01*
Y4515D01*
X5815Y4510D01*
X5805D01*
X5800Y4515D01*
X5830Y4510D02*
X5840D01*
X5835D01*
Y4540D01*
X5830Y4535D01*
X5875D02*
X5870Y4540D01*
X5860D01*
X5855Y4535D01*
Y4515D01*
X5860Y4510D01*
X5870D01*
X5875Y4515D01*
X6115Y3070D02*
Y3045D01*
X6120Y3040D01*
X6130D01*
X6135Y3045D01*
Y3070D01*
X6145Y3040D02*
X6155D01*
X6150D01*
Y3070D01*
X6145Y3065D01*
X6170Y3040D02*
Y3060D01*
X6180Y3070D01*
X6190Y3060D01*
Y3040D01*
Y3055D01*
X6170D01*
X6115Y3620D02*
Y3595D01*
X6120Y3590D01*
X6130D01*
X6135Y3595D01*
Y3620D01*
X6145Y3590D02*
X6155D01*
X6150D01*
Y3620D01*
X6145Y3615D01*
X6170Y3620D02*
Y3590D01*
X6185D01*
X6190Y3595D01*
Y3600D01*
X6185Y3605D01*
X6170D01*
X6185D01*
X6190Y3610D01*
Y3615D01*
X6185Y3620D01*
X6170D01*
X6115Y4170D02*
Y4145D01*
X6120Y4140D01*
X6130D01*
X6135Y4145D01*
Y4170D01*
X6145Y4140D02*
X6155D01*
X6150D01*
Y4170D01*
X6145Y4165D01*
X6190D02*
X6185Y4170D01*
X6175D01*
X6170Y4165D01*
Y4145D01*
X6175Y4140D01*
X6185D01*
X6190Y4145D01*
X5660Y3265D02*
X5680Y3235D01*
Y3265D02*
X5660Y3235D01*
X5690D02*
X5700D01*
X5695D01*
Y3265D01*
X5690Y3260D01*
X5715Y3235D02*
Y3255D01*
X5725Y3265D01*
X5735Y3255D01*
Y3235D01*
Y3250D01*
X5715D01*
X5660Y3815D02*
X5680Y3785D01*
Y3815D02*
X5660Y3785D01*
X5690D02*
X5700D01*
X5695D01*
Y3815D01*
X5690Y3810D01*
X5715Y3815D02*
Y3785D01*
X5730D01*
X5735Y3790D01*
Y3795D01*
X5730Y3800D01*
X5715D01*
X5730D01*
X5735Y3805D01*
Y3810D01*
X5730Y3815D01*
X5715D01*
X5660Y4365D02*
X5680Y4335D01*
Y4365D02*
X5660Y4335D01*
X5690D02*
X5700D01*
X5695D01*
Y4365D01*
X5690Y4360D01*
X5735D02*
X5730Y4365D01*
X5720D01*
X5715Y4360D01*
Y4340D01*
X5720Y4335D01*
X5730D01*
X5735Y4340D01*
M02*
