M48
;Layer_Color=9474304
;FILE_FORMAT=2:3
INCH,LZ
;TYPE=PLATED
T1F00S00C0.008
T2F00S00C0.015
T3F00S00C0.035
T4F00S00C0.040
T5F00S00C0.059
%
T01
X06023Y03148
X06067
Y03192
X06023
Y03698
X06067
Y03742
X06023
Y04248
X06067
Y04292
X06023
T02
X064Y0266
Y0276
Y0281
X06735Y028
X06938Y02648
Y02444
X05955Y02565
X05785
Y0253
Y02485
X0566Y0237
X05605Y0221
X05602Y02778
X05478
X05781Y02805
X0584Y0281
X0589Y0281
X05865Y02845
X05935Y0283
X0597Y0286
X06005Y0283
X05995Y03035
X05925Y0301
X05885
X0586Y02975
X0573Y02905
X0583Y03195
X05788Y03298
X05922Y03278
X05997Y03309
X0605Y03325
X06165Y034
X05975Y03615
X05915Y0362
X0589Y03595
X0586Y03575
X05815Y0347
X05685Y034
X0563Y03445
X0583Y03745
X05788Y03848
X05922Y03828
X05997Y03859
X0605Y03875
X06165Y0395
X05815Y0402
X0586Y04127
X0589Y04147
X05915Y04172
X05965Y0417
X05922Y04378
X05997Y04409
X0605Y04425
X06165Y045
X05815Y0457
X05788Y04398
X0583Y04295
X05685Y045
X0563Y04545
Y03995
X05685Y0395
T03
X0638Y02505
X0648
X0606Y0226
Y0216
X0596
Y0226
X0586
Y0216
X0576
Y0226
X0566
Y0216
X0556
Y0226
X0546
Y0216
X05475Y03095
Y03195
Y03295
Y03395
Y03495
Y03645
Y03745
Y03845
Y03945
Y04045
Y04195
Y04295
Y04395
Y04495
Y04595
X06355Y04445
X06455
Y04345
X06355
Y04245
X06455
X0678
Y04345
Y04445
X0688
Y04345
Y04245
Y03895
X0678
Y03795
X0688
Y03695
X0678
X06455
Y03795
Y03895
X06355
Y03795
Y03695
Y03345
X06455
Y03245
X06355
Y03145
X06455
X0678
Y03245
Y03345
X0688
Y03245
Y03145
T04
X06949Y02736
Y02914
T05
X06851Y02687
Y02963
M30
